<svg width="49" height="78" xmlns="http://www.w3.org/2000/svg" xmlns:xlink="http://www.w3.org/1999/xlink" xml:space="preserve" overflow="hidden"><defs><clipPath id="clip0"><rect x="118" y="405" width="49" height="78"/></clipPath></defs><g clip-path="url(#clip0)" transform="translate(-118 -405)"><path d="M88.1337 22.4259 52.028 22.4259C51.4672 22.4259 50.9063 22.9867 50.9063 23.5476L50.9063 88.5826C50.9063 89.1433 51.4672 89.7041 52.028 89.7041L88.2458 89.7041C88.9184 89.7041 89.3675 89.1433 89.3675 88.5826L89.3675 23.5476C89.2556 22.9867 88.8067 22.4259 88.1339 22.4259ZM87.012 87.4609 53.1489 87.4609 53.1489 24.6685 87.1241 24.6685 87.1241 87.4609ZM62.0071 28.593C62.0071 28.0321 62.4555 27.4713 63.1288 27.4713L77.145 27.4713C77.8176 27.4713 78.2667 28.0321 78.2667 28.593 78.2667 29.1538 77.8184 29.7147 77.145 29.7147L63.1288 29.7139C62.4563 29.7139 62.0071 29.2656 62.0071 28.593ZM74.4535 81.5181C74.4535 83.9849 72.4356 85.8911 70.0805 85.8911 67.7253 85.8911 65.7074 83.9849 65.7074 81.5181 65.7074 79.1629 67.7253 77.145 70.0805 77.145 72.4356 77.145 74.4535 79.1629 74.4535 81.5181ZM57.0732 75.1263 83.0873 75.1263C83.6481 75.1263 84.209 74.5654 84.209 74.0046L84.2082 33.9744C84.2082 33.4138 83.6473 32.8529 83.0865 32.8529L57.0727 32.8529C56.5118 32.8529 55.951 33.4138 55.951 33.9744L55.9518 74.0046C55.9518 74.5646 56.3999 75.1255 57.0727 75.1255ZM58.1949 35.0961 81.9664 35.0961 81.9664 72.8837 58.1949 72.8837Z" transform="matrix(1.00896 0 0 1 71.0477 387.899)"/><path d="M3.75754-0.22526C3.56357-0.125144 3.36098-0.0500578 3.1506 0 2.94175 0.0516216 2.72276 0.0782142 2.4936 0.0782142 1.81313 0.0782142 1.27423-0.111066 0.876111-0.491203 0.477211-0.872883 0.278541-1.38912 0.278541-2.03987 0.278541-2.69219 0.477209-3.2084 0.876111-3.58854 1.27423-3.97022 1.81313-4.16108 2.4936-4.16108 2.72276-4.16108 2.94177-4.13449 3.1506-4.08287 3.361-4.03281 3.56357-3.95773 3.75754-3.85761L3.75754-3.01288C3.56121-3.14427 3.36803-3.24126 3.17875-3.30383 2.98869-3.3664 2.78846-3.39768 2.57805-3.39768 2.20262-3.39768 1.90696-3.27644 1.69265-3.03476 1.47756-2.79464 1.3704-2.463 1.3704-2.03985 1.3704-1.61827 1.47756-1.28665 1.69265-1.04495 1.90696-0.804831 2.20262-0.685153 2.57805-0.685153 2.78846-0.685153 2.98869-0.714875 3.17875-0.775881 3.36803-0.838453 3.56123-0.936222 3.75754-1.06998Z" transform="matrix(1.00896 0 0 1 85.1896 516.848)"/><path d="M2.74997-2.23077C2.66237-2.26988 2.57555-2.29959 2.49029-2.31837 2.4066-2.33872 2.32214-2.34965 2.23688-2.34965 1.98425-2.34965 1.79027-2.26832 1.65497-2.10563 1.51887-1.9445 1.45161-1.71455 1.45161-1.4142L1.45161-7.00809e-05 0.472365-7.00809e-05 0.472365-3.06602 1.45161-3.06602 1.45161-2.56232C1.57676-2.76255 1.72069-2.90802 1.88335-3.00032 2.0476-3.09417 2.24393-3.1411 2.47153-3.1411 2.50439-3.1411 2.54037-3.13876 2.57791-3.13484 2.61702-3.13249 2.67332-3.12703 2.74685-3.1192Z" transform="matrix(1.00896 0 0 1 89.3414 516.848)"/><path d="M3.53228-1.5424 3.53228-1.26083 1.23903-1.26083C1.26406-1.03089 1.34697-0.858811 1.48932-0.744619 1.63089-0.629642 1.83033-0.572545 2.08689-0.572545 2.29337-0.572545 2.50377-0.602267 2.71886-0.663273 2.93551-0.725846 3.15764-0.81814 3.38525-0.941715L3.38525-0.187725C3.15374-0.100124 2.92221-0.0344237 2.69068 0.00937882 2.45918 0.0547432 2.22765 0.0782082 1.99612 0.0782082 1.4408 0.0782082 1.00904-0.0625782 0.700869-0.344159 0.394275-0.625724 0.240958-1.02072 0.240958-1.52991 0.240958-2.03048 0.391914-2.42312 0.694601-2.70939 0.99651-2.99722 1.41183-3.14112 1.9398-3.14112 2.42159-3.14112 2.8072-2.99486 3.09737-2.70312 3.38677-2.41294 3.53226-2.02578 3.53226-1.5424ZM2.52487-1.86778C2.52487-2.05315 2.47013-2.20254 2.36219-2.31517 2.25346-2.42936 2.1119-2.48725 1.93669-2.48725 1.74663-2.48725 1.59254-2.43407 1.47366-2.32769 1.35478-2.2213 1.28047-2.06801 1.25152-1.86778Z" transform="matrix(1.00896 0 0 1 92.131 516.848)"/><path d="M1.84589-1.37971C1.64097-1.37971 1.48688-1.3453 1.38286-1.27647 1.28039-1.20764 1.22955-1.10518 1.22955-0.969875 1.22955-0.844731 1.27101-0.746177 1.3547-0.675776 1.43761-0.606946 1.55258-0.572533 1.69886-0.572533 1.88423-0.572533 2.03987-0.638232 2.16502-0.769636 2.29172-0.902601 2.35586-1.06842 2.35586-1.26709L2.35586-1.37972ZM3.34138-1.7489 3.34138 0 2.35586 0 2.35586-0.453643C2.22447-0.267491 2.07586-0.132172 1.91159-0.0469342 1.74655 0.0359735 1.54632 0.0782102 1.31089 0.0782102 0.993346 0.0782102 0.736009-0.0133013 0.538121-0.197107 0.339454-0.382477 0.240898-0.623379 0.240898-0.919821 0.240898-1.27805 0.363696-1.54086 0.610084-1.70823 0.85803-1.87718 1.24676-1.96164 1.77705-1.96164L2.35584-1.96164 2.35584-2.03985C2.35584-2.19395 2.29405-2.30656 2.17125-2.37774 2.04766-2.45049 1.85683-2.48725 1.59871-2.48725 1.38752-2.48725 1.192-2.46613 1.01053-2.42468 0.830634-2.38245 0.66403-2.31988 0.509952-2.23696L0.509952-2.9847C0.718012-3.03476 0.927614-3.07309 1.1388-3.10046 1.35154-3.12705 1.56429-3.14112 1.77703-3.14112 2.32923-3.14112 2.72813-3.03164 2.97217-2.81263 3.21777-2.59519 3.34136-2.24087 3.34136-1.74891Z" transform="matrix(1.00896 0 0 1 95.9672 516.848)"/><path d="M1.5424-3.93574 1.5424-3.06598 2.55295-3.06598 2.55295-2.36517 1.5424-2.36517 1.5424-1.06367C1.5424-0.921315 1.57056-0.825893 1.62687-0.775835 1.68319-0.725777 1.79425-0.700749 1.96164-0.700749L2.46534-0.700749 2.46534 6.00693e-05 1.62687 6.00693e-05C1.23893 6.00693e-05 0.963608-0.07972 0.80092-0.240838 0.639796-0.403526 0.560022-0.677281 0.560022-1.06367L0.560022-2.36517 0.0750826-2.36517 0.0750826-3.06598 0.560022-3.06598 0.560022-3.93574Z" transform="matrix(1.00896 0 0 1 99.7843 516.848)"/><path d="M3.53228-1.5424 3.53228-1.26083 1.23903-1.26083C1.26406-1.03089 1.34697-0.858811 1.48932-0.744619 1.63089-0.629642 1.83033-0.572545 2.08689-0.572545 2.29337-0.572545 2.50377-0.602267 2.71886-0.663273 2.93551-0.725846 3.15764-0.81814 3.38525-0.941715L3.38525-0.187725C3.15374-0.100124 2.92221-0.0344237 2.69068 0.00937882 2.45918 0.0547432 2.22765 0.0782082 1.99612 0.0782082 1.4408 0.0782082 1.00904-0.0625782 0.700869-0.344159 0.394275-0.625724 0.240958-1.02072 0.240958-1.52991 0.240958-2.03048 0.391914-2.42312 0.694601-2.70939 0.99651-2.99722 1.41183-3.14112 1.9398-3.14112 2.42159-3.14112 2.8072-2.99486 3.09737-2.70312 3.38677-2.41294 3.53226-2.02578 3.53226-1.5424ZM2.52487-1.86778C2.52487-2.05315 2.47013-2.20254 2.36219-2.31517 2.25346-2.42936 2.1119-2.48725 1.93669-2.48725 1.74663-2.48725 1.59254-2.43407 1.47366-2.32769 1.35478-2.2213 1.28047-2.06801 1.25152-1.86778Z" transform="matrix(1.00896 0 0 1 102.489 516.848)"/><path d="M2.55615-2.61862 2.55615-4.26114 3.54167-4.26114 3.54167-2.00231e-05 2.55615-2.00231e-05 2.55615-0.444293C2.42239-0.262833 2.27458-0.12987 2.11188-0.0469542 1.94917 0.0359615 1.75991 0.0781902 1.5456 0.0781902 1.16783 0.0781902 0.85809-0.0719831 0.616411-0.37233 0.373951-0.672676 0.253493-1.05828 0.253493-1.52991 0.253493-2.00311 0.373943-2.39028 0.616411-2.69062 0.85809-2.99097 1.16783-3.14114 1.5456-3.14114 1.75835-3.14114 1.94607-3.09813 2.10875-3.01288 2.273-2.92684 2.42239-2.79545 2.55615-2.61866ZM1.91165-0.631949C2.11971-0.631949 2.27925-0.707819 2.39032-0.860333 2.50061-1.01442 2.55613-1.23733 2.55613-1.52987 2.55613-1.8216 2.50061-2.04374 2.39032-2.19625 2.27925-2.35033 2.11969-2.42776 1.91165-2.42776 1.7028-2.42776 1.54326-2.35033 1.43297-2.19625 1.32191-2.04374 1.26716-1.8216 1.26716-1.52987 1.26716-1.23735 1.32191-1.01443 1.43297-0.860333 1.54326-0.707813 1.70282-0.631949 1.91165-0.631949Z" transform="matrix(1.00896 0 0 1 106.325 516.848)"/><path d="M2.10243-0.631969C2.31283-0.631969 2.47317-0.707839 2.58422-0.860353 2.69451-1.01444 2.75003-1.23735 2.75003-1.52989 2.75003-1.82162 2.69451-2.04376 2.58422-2.19627 2.47315-2.35035 2.31281-2.42778 2.10243-2.42778 1.89124-2.42778 1.73012-2.35035 1.61749-2.19627 1.50642-2.04142 1.45167-1.81928 1.45167-1.52989 1.45167-1.23971 1.50642-1.01757 1.61749-0.863496 1.73012-0.70863 1.89124-0.631989 2.10243-0.631989ZM1.45167-2.61864C1.58699-2.79541 1.73638-2.92682 1.89907-3.01286 2.06332-3.09811 2.2526-3.14112 2.46534-3.14112 2.84468-3.14112 3.1552-2.99095 3.39766-2.6906 3.63934-2.39026 3.76058-2.00309 3.76058-1.52989 3.76058-1.05825 3.63934-0.67266 3.39766-0.372314 3.1552-0.071967 2.84468 0.0782062 2.46534 0.0782062 2.2526 0.0782062 2.06332 0.0359695 1.89907-0.0469382 1.73638-0.132193 1.58699-0.264369 1.45167-0.444277L1.45167-4.00462e-06 0.472425-4.00462e-06 0.472425-4.26112 1.45167-4.26112Z" transform="matrix(1.00896 0 0 1 112.344 516.848)"/><path d="M0.0688294-3.06594 1.04808-3.06594 1.87403-0.985337 2.57485-3.06594 3.5541-3.06594 2.26511 0.291136C2.13526 0.630588 1.98432 0.868362 1.81146 1.00446 1.63782 1.14212 1.411 1.21094 1.12943 1.21094L0.560016 1.21094 0.560016 0.566434 0.86661 0.566434C1.03321 0.566434 1.15444 0.539058 1.22953 0.48509 1.30618 0.432685 1.36562 0.338827 1.40786 0.203525L1.43601 0.119051Z" transform="matrix(1.00896 0 0 1 116.393 516.848)"/><path d="M0.516216-4.08591 1.85526-4.08591 2.78758-1.89899 3.72304-4.08591 5.06208-4.08591 5.06208 0 4.06405 0 4.06405-2.99105 3.12234-0.785306 2.45595-0.785306 1.51425-2.99105 1.51425 0 0.516216 0Z" transform="matrix(1.00896 0 0 1 122.05 516.848)"/><path d="M3.53228-1.5424 3.53228-1.26083 1.23903-1.26083C1.26406-1.03089 1.34697-0.858811 1.48932-0.744619 1.63089-0.629642 1.83033-0.572545 2.08689-0.572545 2.29337-0.572545 2.50377-0.602267 2.71886-0.663273 2.93551-0.725846 3.15764-0.81814 3.38525-0.941715L3.38525-0.187725C3.15374-0.100124 2.92221-0.0344237 2.69068 0.00937882 2.45918 0.0547432 2.22765 0.0782082 1.99612 0.0782082 1.4408 0.0782082 1.00904-0.0625782 0.700869-0.344159 0.394275-0.625724 0.240958-1.02072 0.240958-1.52991 0.240958-2.03048 0.391914-2.42312 0.694601-2.70939 0.99651-2.99722 1.41183-3.14112 1.9398-3.14112 2.42159-3.14112 2.8072-2.99486 3.09737-2.70312 3.38677-2.41294 3.53226-2.02578 3.53226-1.5424ZM2.52487-1.86778C2.52487-2.05315 2.47013-2.20254 2.36219-2.31517 2.25346-2.42936 2.1119-2.48725 1.93669-2.48725 1.74663-2.48725 1.59254-2.43407 1.47366-2.32769 1.35478-2.2213 1.28047-2.06801 1.25152-1.86778Z" transform="matrix(1.00896 0 0 1 127.678 516.848)"/><path d="M0.472425-4.26112 1.45167-4.26112 1.45167 0 0.472425 0Z" transform="matrix(1.00896 0 0 1 131.515 516.848)"/><path d="M0.472425-4.26112 1.45167-4.26112 1.45167 0 0.472425 0Z" transform="matrix(1.00896 0 0 1 133.454 516.848)"/><path d="M1.93035-2.44042C1.71292-2.44042 1.54709-2.36221 1.43289-2.20577 1.31792-2.04932 1.26082-1.82408 1.26082-1.52999 1.26082-1.23589 1.31792-1.01063 1.43289-0.854206 1.54709-0.699339 1.7129-0.622698 1.93035-0.622698 2.14309-0.622698 2.30578-0.699349 2.41841-0.854206 2.5326-1.01064 2.59049-1.23589 2.59049-1.52999 2.59049-1.82408 2.5326-2.04934 2.41841-2.20577 2.30578-2.36219 2.14309-2.44042 1.93035-2.44042ZM1.93035-3.14122C2.45752-3.14122 2.86971-2.9981 3.16615-2.71261 3.46181-2.42868 3.61043-2.03449 3.61043-1.53001 3.61043-1.02709 3.46181-0.63287 3.16615-0.347401 2.86971-0.0634732 2.45752 0.0780901 1.93035 0.0780901 1.40006 0.0780901 0.986298-0.0634792 0.688294-0.347401 0.389509-0.63289 0.240898-1.02709 0.240898-1.53001 0.240898-2.03449 0.389507-2.4287 0.688294-2.71261 0.986298-2.9981 1.40006-3.14122 1.93035-3.14122Z" transform="matrix(1.00896 0 0 1 135.393 516.848)"/><path d="M2.48727-4.26112 2.48727-3.61661 1.94603-3.61661C1.80837-3.61661 1.71137-3.59158 1.65507-3.54153 1.60032-3.49147 1.57373-3.40387 1.57373-3.27872L1.57373-3.06598 2.4122-3.06598 2.4122-2.36517 1.57373-2.36517 1.57373-4.00462e-05 0.594476-4.00462e-05 0.594476-2.36517 0.106413-2.36517 0.106413-3.06598 0.594476-3.06598 0.594476-3.27872C0.594476-3.61193 0.68677-3.85907 0.872917-4.0202 1.05829-4.18054 1.3469-4.2611 1.73954-4.2611Z" transform="matrix(1.00896 0 0 1 85.1896 522.454)"/><path d="M2.74997-2.23077C2.66237-2.26988 2.57555-2.29959 2.49029-2.31837 2.4066-2.33872 2.32214-2.34965 2.23688-2.34965 1.98425-2.34965 1.79027-2.26832 1.65497-2.10563 1.51887-1.9445 1.45161-1.71455 1.45161-1.4142L1.45161-7.00809e-05 0.472365-7.00809e-05 0.472365-3.06602 1.45161-3.06602 1.45161-2.56232C1.57676-2.76255 1.72069-2.90802 1.88335-3.00032 2.0476-3.09417 2.24393-3.1411 2.47153-3.1411 2.50439-3.1411 2.54037-3.13876 2.57791-3.13484 2.61702-3.13249 2.67332-3.12703 2.74685-3.1192Z" transform="matrix(1.00896 0 0 1 87.651 522.454)"/><path d="M1.93035-2.44042C1.71292-2.44042 1.54709-2.36221 1.43289-2.20577 1.31792-2.04932 1.26082-1.82408 1.26082-1.52999 1.26082-1.23589 1.31792-1.01063 1.43289-0.854206 1.54709-0.699339 1.7129-0.622698 1.93035-0.622698 2.14309-0.622698 2.30578-0.699349 2.41841-0.854206 2.5326-1.01064 2.59049-1.23589 2.59049-1.52999 2.59049-1.82408 2.5326-2.04934 2.41841-2.20577 2.30578-2.36219 2.14309-2.44042 1.93035-2.44042ZM1.93035-3.14122C2.45752-3.14122 2.86971-2.9981 3.16615-2.71261 3.46181-2.42868 3.61043-2.03449 3.61043-1.53001 3.61043-1.02709 3.46181-0.63287 3.16615-0.347401 2.86971-0.0634732 2.45752 0.0780901 1.93035 0.0780901 1.40006 0.0780901 0.986298-0.0634792 0.688294-0.347401 0.389509-0.63289 0.240898-1.02709 0.240898-1.53001 0.240898-2.03449 0.389507-2.4287 0.688294-2.71261 0.986298-2.9981 1.40006-3.14122 1.93035-3.14122Z" transform="matrix(1.00896 0 0 1 90.4407 522.454)"/><path d="M3.31322-2.55615C3.43602-2.74543 3.58307-2.89092 3.75435-2.99103 3.92487-3.09115 4.11259-3.1412 4.3175-3.1412 4.66947-3.1412 4.93776-3.0317 5.12155-2.81271 5.30692-2.59527 5.39999-2.28085 5.39999-1.86786L5.39999-8.00924e-05 4.41447-8.00924e-05 4.41447-1.5988 4.41447-1.67076C4.41604-1.69736 4.4176-1.7349 4.4176-1.78339 4.4176-2.00004 4.38476-2.15649 4.32061-2.2527 4.25803-2.35047 4.15557-2.39975 4.01401-2.39975 3.82788-2.39975 3.68395-2.3223 3.58227-2.16824 3.47982-2.01571 3.42741-1.79436 3.42585-1.50497L3.42585-0.000112129 2.44034-0.000112129 2.44034-1.59884C2.44034-1.93829 2.41062-2.15653 2.35273-2.25272 2.29407-2.35047 2.19005-2.39975 2.03987-2.39975 1.85216-2.39975 1.70667-2.32232 1.60499-2.16824 1.50253-2.01573 1.45169-1.79594 1.45169-1.50811L1.45169-0.000128148 0.466174-0.000128148 0.466174-3.06606 1.45169-3.06606 1.45169-2.61866C1.57214-2.79152 1.70981-2.92213 1.86467-3.00973 2.02109-3.09733 2.19317-3.14114 2.38089-3.14114 2.59363-3.14114 2.78135-3.08952 2.94404-2.98785 3.10672-2.88537 3.22953-2.74146 3.31322-2.55611Z" transform="matrix(1.00896 0 0 1 94.3266 522.454)"/><path d="M1.5424-3.93574 1.5424-3.06598 2.55295-3.06598 2.55295-2.36517 1.5424-2.36517 1.5424-1.06367C1.5424-0.921315 1.57056-0.825893 1.62687-0.775835 1.68319-0.725777 1.79425-0.700749 1.96164-0.700749L2.46534-0.700749 2.46534 6.00693e-05 1.62687 6.00693e-05C1.23893 6.00693e-05 0.963608-0.07972 0.80092-0.240838 0.639796-0.403526 0.560022-0.677281 0.560022-1.06367L0.560022-2.36517 0.0750826-2.36517 0.0750826-3.06598 0.560022-3.06598 0.560022-3.93574Z" transform="matrix(1.00896 0 0 1 102.19 522.454)"/><path d="M3.5541-1.86778 3.5541 0 2.56858 0 2.56858-1.42352C2.56858-1.69259 2.56234-1.87717 2.54982-1.97728 2.53731-2.0774 2.51618-2.15092 2.48725-2.19942 2.44971-2.26199 2.39729-2.31049 2.33081-2.34647 2.26589-2.38167 2.19159-2.39965 2.10867-2.39965 1.90376-2.39965 1.74341-2.31988 1.62688-2.16187 1.50955-2.00543 1.45167-1.78722 1.45167-1.508L1.45167-2.00231e-05 0.472425-2.00231e-05 0.472425-4.26114 1.45167-4.26114 1.45167-2.61862C1.5995-2.79539 1.75593-2.9268 1.92098-3.01284 2.08757-3.09809 2.27138-3.1411 2.47161-3.1411 2.82592-3.1411 3.09499-3.0316 3.27878-2.81261 3.46181-2.59517 3.5541-2.28075 3.5541-1.86776Z" transform="matrix(1.00896 0 0 1 104.894 522.454)"/><path d="M3.53228-1.5424 3.53228-1.26083 1.23903-1.26083C1.26406-1.03089 1.34697-0.858811 1.48932-0.744619 1.63089-0.629642 1.83033-0.572545 2.08689-0.572545 2.29337-0.572545 2.50377-0.602267 2.71886-0.663273 2.93551-0.725846 3.15764-0.81814 3.38525-0.941715L3.38525-0.187725C3.15374-0.100124 2.92221-0.0344237 2.69068 0.00937882 2.45918 0.0547432 2.22765 0.0782082 1.99612 0.0782082 1.4408 0.0782082 1.00904-0.0625782 0.700869-0.344159 0.394275-0.625724 0.240958-1.02072 0.240958-1.52991 0.240958-2.03048 0.391914-2.42312 0.694601-2.70939 0.99651-2.99722 1.41183-3.14112 1.9398-3.14112 2.42159-3.14112 2.8072-2.99486 3.09737-2.70312 3.38677-2.41294 3.53226-2.02578 3.53226-1.5424ZM2.52487-1.86778C2.52487-2.05315 2.47013-2.20254 2.36219-2.31517 2.25346-2.42936 2.1119-2.48725 1.93669-2.48725 1.74663-2.48725 1.59254-2.43407 1.47366-2.32769 1.35478-2.2213 1.28047-2.06801 1.25152-1.86778Z" transform="matrix(1.00896 0 0 1 108.921 522.454)"/><path d="M0.516216-4.08591 1.69257-4.08591 3.17867-1.28268 3.17867-4.08591 4.1767-4.08591 4.1767 0 3.00034 0 1.51425-2.80323 1.51425 0 0.516216 0Z" transform="matrix(1.00896 0 0 1 114.727 522.454)"/><path d="M1.93035-2.44042C1.71292-2.44042 1.54709-2.36221 1.43289-2.20577 1.31792-2.04932 1.26082-1.82408 1.26082-1.52999 1.26082-1.23589 1.31792-1.01063 1.43289-0.854206 1.54709-0.699339 1.7129-0.622698 1.93035-0.622698 2.14309-0.622698 2.30578-0.699349 2.41841-0.854206 2.5326-1.01064 2.59049-1.23589 2.59049-1.52999 2.59049-1.82408 2.5326-2.04934 2.41841-2.20577 2.30578-2.36219 2.14309-2.44042 1.93035-2.44042ZM1.93035-3.14122C2.45752-3.14122 2.86971-2.9981 3.16615-2.71261 3.46181-2.42868 3.61043-2.03449 3.61043-1.53001 3.61043-1.02709 3.46181-0.63287 3.16615-0.347401 2.86971-0.0634732 2.45752 0.0780901 1.93035 0.0780901 1.40006 0.0780901 0.986298-0.0634792 0.688294-0.347401 0.389509-0.63289 0.240898-1.02709 0.240898-1.53001 0.240898-2.03449 0.389507-2.4287 0.688294-2.71261 0.986298-2.9981 1.40006-3.14122 1.93035-3.14122Z" transform="matrix(1.00896 0 0 1 119.461 522.454)"/><path d="M0.438005-1.19514 0.438005-3.06606 1.42352-3.06606 1.42352-2.75946C1.42352-2.59209 1.42196-2.38403 1.42039-2.13374 1.41805-1.88345 1.41727-1.71608 1.41727-1.63316 1.41727-1.38444 1.42352-1.20611 1.43604-1.09817 1.45012-0.989448 1.47202-0.911233 1.50174-0.863516 1.54319-0.798597 1.59638-0.74854 1.6613-0.713343 1.72543-0.67971 1.79974-0.663285 1.88343-0.663285 2.08757-0.663285 2.24791-0.7415 2.36523-0.897936 2.48176-1.05437 2.54043-1.27181 2.54043-1.55181L2.54043-3.06606 3.51968-3.06606 3.51968-0.000120139 2.54043-0.000120139 2.54043-0.444393C2.39182-0.264497 2.2354-0.132313 2.07113-0.0470543 1.9061 0.0358534 1.72385 0.0780901 1.52362 0.0780901 1.17087 0.0780901 0.901801-0.0298464 0.716447-0.247285 0.530294-0.463935 0.438005-0.77994 0.438005-1.19526Z" transform="matrix(1.00896 0 0 1 123.348 522.454)"/><path d="M3.5541-1.86778 3.5541 0 2.56858 0 2.56858-1.42977C2.56858-1.69413 2.56234-1.87717 2.54982-1.97728 2.53731-2.0774 2.51618-2.15092 2.48725-2.19942 2.44971-2.26199 2.39729-2.31049 2.33081-2.34647 2.26589-2.38167 2.19159-2.39965 2.10867-2.39965 1.90376-2.39965 1.74341-2.31988 1.62688-2.16187 1.50955-2.00543 1.45167-1.78722 1.45167-1.508L1.45167-2.00231e-05 0.472425-2.00231e-05 0.472425-3.06596 1.45167-3.06596 1.45167-2.61856C1.5995-2.79533 1.75593-2.92674 1.92098-3.01278 2.08757-3.09803 2.27138-3.14104 2.47161-3.14104 2.82592-3.14104 3.09499-3.03154 3.27878-2.81255 3.46181-2.59511 3.5541-2.28069 3.5541-1.8677Z" transform="matrix(1.00896 0 0 1 127.375 522.454)"/><path d="M0.516216-4.08591 2.26511-4.08591C2.78447-4.08591 3.18257-3.97016 3.46025-3.73863 3.73947-3.50869 3.8795-3.18017 3.8795-2.75312 3.8795-2.32528 3.73949-1.996 3.46025-1.76448 3.18259-1.53297 2.78447-1.4172 2.26511-1.4172L1.56743-1.4172 1.56743 6.00693e-05 0.516216 6.00693e-05ZM1.56743-3.32253 1.56743-2.1806 2.15248-2.1806C2.35662-2.1806 2.51384-2.23065 2.62491-2.33077 2.73754-2.43088 2.79384-2.57167 2.79384-2.75314 2.79384-2.93617 2.73754-3.07695 2.62491-3.1755 2.51384-3.27328 2.35664-3.32255 2.15248-3.32255Z" transform="matrix(1.00896 0 0 1 133.371 522.454)"/><path d="M2.74997-2.23077C2.66237-2.26988 2.57555-2.29959 2.49029-2.31837 2.4066-2.33872 2.32214-2.34965 2.23688-2.34965 1.98425-2.34965 1.79027-2.26832 1.65497-2.10563 1.51887-1.9445 1.45161-1.71455 1.45161-1.4142L1.45161-7.00809e-05 0.472365-7.00809e-05 0.472365-3.06602 1.45161-3.06602 1.45161-2.56232C1.57676-2.76255 1.72069-2.90802 1.88335-3.00032 2.0476-3.09417 2.24393-3.1411 2.47153-3.1411 2.50439-3.1411 2.54037-3.13876 2.57791-3.13484 2.61702-3.13249 2.67332-3.12703 2.74685-3.1192Z" transform="matrix(1.00896 0 0 1 137.518 522.454)"/><path d="M1.93035-2.44042C1.71292-2.44042 1.54709-2.36221 1.43289-2.20577 1.31792-2.04932 1.26082-1.82408 1.26082-1.52999 1.26082-1.23589 1.31792-1.01063 1.43289-0.854206 1.54709-0.699339 1.7129-0.622698 1.93035-0.622698 2.14309-0.622698 2.30578-0.699349 2.41841-0.854206 2.5326-1.01064 2.59049-1.23589 2.59049-1.52999 2.59049-1.82408 2.5326-2.04934 2.41841-2.20577 2.30578-2.36219 2.14309-2.44042 1.93035-2.44042ZM1.93035-3.14122C2.45752-3.14122 2.86971-2.9981 3.16615-2.71261 3.46181-2.42868 3.61043-2.03449 3.61043-1.53001 3.61043-1.02709 3.46181-0.63287 3.16615-0.347401 2.86971-0.0634732 2.45752 0.0780901 1.93035 0.0780901 1.40006 0.0780901 0.986298-0.0634792 0.688294-0.347401 0.389509-0.63289 0.240898-1.02709 0.240898-1.53001 0.240898-2.03449 0.389507-2.4287 0.688294-2.71261 0.986298-2.9981 1.40006-3.14122 1.93035-3.14122Z" transform="matrix(1.00896 0 0 1 140.306 522.454)"/><path d="M0.472425-3.06594 1.45167-3.06594 1.45167-0.0562649C1.45167 0.354369 1.35234 0.668011 1.15445 0.885442 0.958131 1.10209 0.672656 1.21082 0.297223 1.21082L-0.187717 1.21082-0.187717 0.566313-0.015642 0.566313C0.169728 0.566313 0.297219 0.524077 0.366038 0.441169 0.436432 0.357478 0.472411 0.191661 0.472411-0.0562849ZM0.472425-4.26108 1.45167-4.26108 1.45167-3.46015 0.472425-3.46015Z" transform="matrix(1.00896 0 0 1 144.193 522.454)"/><path d="M3.53228-1.5424 3.53228-1.26083 1.23903-1.26083C1.26406-1.03089 1.34697-0.858811 1.48932-0.744619 1.63089-0.629642 1.83033-0.572545 2.08689-0.572545 2.29337-0.572545 2.50377-0.602267 2.71886-0.663273 2.93551-0.725846 3.15764-0.81814 3.38525-0.941715L3.38525-0.187725C3.15374-0.100124 2.92221-0.0344237 2.69068 0.00937882 2.45918 0.0547432 2.22765 0.0782082 1.99612 0.0782082 1.4408 0.0782082 1.00904-0.0625782 0.700869-0.344159 0.394275-0.625724 0.240958-1.02072 0.240958-1.52991 0.240958-2.03048 0.391914-2.42312 0.694601-2.70939 0.99651-2.99722 1.41183-3.14112 1.9398-3.14112 2.42159-3.14112 2.8072-2.99486 3.09737-2.70312 3.38677-2.41294 3.53226-2.02578 3.53226-1.5424ZM2.52487-1.86778C2.52487-2.05315 2.47013-2.20254 2.36219-2.31517 2.25346-2.42936 2.1119-2.48725 1.93669-2.48725 1.74663-2.48725 1.59254-2.43407 1.47366-2.32769 1.35478-2.2213 1.28047-2.06801 1.25152-1.86778Z" transform="matrix(1.00896 0 0 1 146.132 522.454)"/><path d="M2.9472-2.96903 2.9472-2.17123C2.81579-2.26273 2.68205-2.33079 2.54674-2.37458 2.41298-2.41837 2.27454-2.44028 2.13064-2.44028 1.85688-2.44028 1.64336-2.35972 1.48928-2.19938 1.33676-2.04059 1.26089-1.8177 1.26089-1.52985 1.26089-1.24358 1.33676-1.02066 1.48928-0.860317 1.64336-0.701539 1.85688-0.622542 2.13064-0.622542 2.28237-0.622542 2.42786-0.644444 2.56552-0.688242 2.70318-0.733606 2.82989-0.801655 2.9472-0.891597L2.9472-0.0906726C2.79468-0.0343576 2.63902 0.00709619 2.48104 0.0344718 2.3246 0.0634112 2.16584 0.0782723 2.00549 0.0782723 1.45252 0.0782723 1.01998-0.063297 0.707116-0.347219 0.395817-0.630365 0.240958-1.02456 0.240958-1.52982 0.240958-2.03665 0.395825-2.43165 0.707116-2.71557 1.01998-2.99872 1.45252-3.14106 2.00549-3.14106 2.16584-3.14106 2.32462-3.12621 2.48104-3.09725 2.63746-3.06988 2.79234-3.02687 2.9472-2.96899Z" transform="matrix(1.00896 0 0 1 149.969 522.454)"/><path d="M1.5424-3.93574 1.5424-3.06598 2.55295-3.06598 2.55295-2.36517 1.5424-2.36517 1.5424-1.06367C1.5424-0.921315 1.57056-0.825893 1.62687-0.775835 1.68319-0.725777 1.79425-0.700749 1.96164-0.700749L2.46534-0.700749 2.46534 6.00693e-05 1.62687 6.00693e-05C1.23893 6.00693e-05 0.963608-0.07972 0.80092-0.240838 0.639796-0.403526 0.560022-0.677281 0.560022-1.06367L0.560022-2.36517 0.0750826-2.36517 0.0750826-3.06598 0.560022-3.06598 0.560022-3.93574Z" transform="matrix(1.00896 0 0 1 153.321 522.454)"/></g></svg>