<svg width="130" height="96" xmlns="http://www.w3.org/2000/svg" xmlns:xlink="http://www.w3.org/1999/xlink" xml:space="preserve" overflow="hidden"><defs><clipPath id="clip0"><rect x="509" y="83" width="130" height="96"/></clipPath></defs><g clip-path="url(#clip0)" transform="translate(-509 -83)"><path d="M52.4678 20.4075 27.5196 20.4075C25.7197 20.4075 23.9933 21.1223 22.7214 22.3952 21.4485 23.6672 20.7337 25.3936 20.7337 27.1925L20.7337 101.783 59.2398 101.783 59.2398 27.2061C59.2434 25.4062 58.5312 23.6789 57.261 22.4043 55.9907 21.1296 54.2662 20.4112 52.467 20.4077ZM58.2971 100.762 21.6912 100.762 21.6912 27.2058C21.6912 25.6601 22.305 24.1774 23.3981 23.0842 24.492 21.9911 25.9739 21.3764 27.5206 21.3764L52.4687 21.3764C54.0144 21.3764 55.4971 21.9911 56.5903 23.0842 57.6834 24.1772 58.2972 25.6599 58.2972 27.2058Z" transform="matrix(1 0 0 1.01195 492.333 69.3722)"/><path d="M132.26 20.4075 107.312 20.4075C105.512 20.4075 103.787 21.1223 102.514 22.3952 101.242 23.6672 100.527 25.3936 100.527 27.1925L100.527 101.783 139.047 101.783 139.047 27.2061C139.049 25.4045 138.336 23.6746 137.063 22.4 135.791 21.1244 134.062 20.4078 132.261 20.4078ZM138.089 100.762 101.495 100.762 101.495 27.2058C101.495 25.6601 102.109 24.1774 103.202 23.0842 104.295 21.9911 105.778 21.3764 107.323 21.3764L132.258 21.3764C133.804 21.3764 135.286 21.9911 136.38 23.0842 137.473 24.1772 138.087 25.6599 138.087 27.2058Z" transform="matrix(1 0 0 1.01195 492.333 69.3722)"/><path d="M92.4002 56.6039 67.4135 56.6039C65.6136 56.6039 63.8881 57.3187 62.6153 58.5916 61.3425 59.8644 60.6276 61.59 60.6276 63.3898L60.6276 101.78 99.1473 101.78 99.1473 63.3898C99.1473 61.597 98.4378 59.8768 97.1738 58.6047 95.9098 57.3336 94.1931 56.6144 92.4003 56.6037ZM61.5858 70.2521 66.1006 73.1725 66.1006 83.0826 61.5858 86.9092ZM64.7108 100.862 71.3941 90.1614C79.9268 94.9313 85.7686 91.4369 87.4011 90.2376L93.6769 100.825ZM98.1919 86.9088 93.6771 83.0822 93.6771 73.1721 98.1919 70.2516ZM98.1919 69.0523 92.7204 72.7 92.7204 83.5799 98.1919 88.2224 98.1919 100.888 94.7232 100.888 87.6439 88.7714 87.2099 89.1921C87.2099 89.1921 81.1769 94.7911 71.4705 89.1283L71.0754 88.8989 63.5887 100.901 61.5859 100.9 61.5859 88.1717 67.0574 83.5293 67.0583 72.6997 61.5868 69.1663 61.5859 63.3891C61.5859 61.8434 62.2007 60.3607 63.2937 59.2675 64.3868 58.1745 65.8695 57.5598 67.4153 57.5598L92.402 57.5598C93.9477 57.5598 95.4304 58.1745 96.5236 59.2675 97.6167 60.3606 98.2314 61.8433 98.2314 63.3891Z" transform="matrix(1 0 0 1.01195 492.333 69.3722)"/><path d="M39.9914 26.3767C36.2703 26.3767 32.7022 27.8551 30.0707 30.4859 27.4398 33.1174 25.9615 36.6855 25.9615 40.4066 25.9615 44.1277 27.4399 47.6965 30.0707 50.3274 32.7022 52.9589 36.2703 54.4365 39.9914 54.4365 43.7126 54.4365 47.2813 52.959 49.9122 50.3274 52.5437 47.6965 54.0213 44.1277 54.0213 40.4066 54.0018 36.6916 52.5172 33.1353 49.8899 30.5081 47.2636 27.8817 43.7062 26.3971 39.9914 26.3767ZM39.9914 53.5948C36.5077 53.5948 33.1655 52.2112 30.7022 49.7469 28.238 47.2836 26.8543 43.9414 26.8543 40.4576 26.8543 36.973 28.2379 33.6317 30.7022 31.1675 33.1655 28.7042 36.5077 27.3196 39.9914 27.3196 43.476 27.3196 46.8174 28.7041 49.2816 31.1675 51.7449 33.6317 53.1294 36.973 53.1294 40.4576 53.1188 43.9361 51.7308 47.2693 49.2684 49.7265 46.806 52.1845 43.4711 53.5664 39.9916 53.5689Z" transform="matrix(1 0 0 1.01195 492.333 69.3722)"/><path d="M39.9914 32.2566C37.8097 32.2566 35.7174 33.1229 34.1746 34.666 32.6315 36.209 31.7652 38.3011 31.7652 40.4837 31.7652 42.6654 32.6315 44.7577 34.1746 46.3006 35.7176 47.8436 37.8098 48.7099 39.9914 48.7099 42.1731 48.7099 44.2663 47.8436 45.8083 46.3006 47.3513 44.7575 48.2185 42.6654 48.2185 40.4837 48.2185 38.3011 47.3513 36.2088 45.8083 34.666 44.2661 33.1229 42.1731 32.2566 39.9914 32.2566ZM39.9914 47.7409C38.0631 47.7409 36.2145 46.9747 34.8512 45.6115 33.4871 44.2483 32.7218 42.3988 32.7218 40.4704 32.7218 38.5421 33.4871 36.6935 34.8512 35.3293 36.2144 33.9661 38.063 33.2008 39.9914 33.2008 41.9198 33.2008 43.7692 33.9661 45.1325 35.3293 46.4957 36.6934 47.2619 38.5421 47.2619 40.4704 47.2619 42.3988 46.4957 44.2482 45.1325 45.6115 43.7693 46.9747 41.9198 47.7409 39.9914 47.7409Z" transform="matrix(1 0 0 1.01195 492.333 69.3722)"/><path d="M119.786 26.3767C116.065 26.3767 112.496 27.8551 109.864 30.4859 107.234 33.1174 105.755 36.6855 105.755 40.4066 105.755 44.1277 107.234 47.6965 109.864 50.3274 112.496 52.9589 116.065 54.4365 119.786 54.4365 123.506 54.4365 127.075 52.959 129.707 50.3274 132.338 47.6965 133.816 44.1277 133.816 40.4066 133.796 36.6916 132.311 33.1353 129.685 30.5081 127.057 27.8817 123.5 26.3971 119.786 26.3767ZM119.786 53.5948C116.301 53.5948 112.96 52.2112 110.496 49.7469 108.033 47.2836 106.648 43.9414 106.648 40.4576 106.648 36.973 108.033 33.6317 110.496 31.1675 112.96 28.7042 116.301 27.3196 119.786 27.3196 123.27 27.3196 126.611 28.7041 129.075 31.1675 131.539 33.6317 132.923 36.973 132.923 40.4576 132.913 43.9361 131.525 47.2693 129.063 49.7265 126.601 52.1845 123.265 53.5664 119.786 53.5689Z" transform="matrix(1 0 0 1.01195 492.333 69.3722)"/><path d="M119.786 32.2566C117.603 32.2566 115.511 33.1229 113.968 34.666 112.425 36.209 111.559 38.3011 111.559 40.4837 111.559 42.6654 112.425 44.7577 113.968 46.3006 115.511 47.8436 117.603 48.7099 119.786 48.7099 121.968 48.7099 124.06 47.8436 125.603 46.3006 127.146 44.7575 128.012 42.6654 128.012 40.4837 128.012 38.3011 127.146 36.2088 125.603 34.666 124.06 33.1229 121.968 32.2566 119.786 32.2566ZM119.786 47.7409C117.858 47.7409 116.008 46.9747 114.645 45.6115 113.282 44.2483 112.516 42.3988 112.516 40.4704 112.516 38.5421 113.282 36.6935 114.645 35.3293 116.008 33.9661 117.858 33.2008 119.786 33.2008 121.714 33.2008 123.563 33.9661 124.926 35.3293 126.289 36.6934 127.056 38.5421 127.056 40.4704 127.056 42.3988 126.289 44.2482 124.926 45.6115 123.563 46.9748 121.714 47.7409 119.786 47.7409Z" transform="matrix(1 0 0 1.01195 492.333 69.3722)"/><path d="M39.9914 70.2662C37.1463 70.2662 34.4181 71.3964 32.4065 73.4079 30.3949 75.4195 29.2648 78.1477 29.2648 80.9928 29.2648 83.838 30.395 86.5661 32.4065 88.5777 34.4181 90.5893 37.1463 91.7195 39.9914 91.7195 42.8366 91.7195 45.5647 90.5892 47.5763 88.5777 49.5879 86.5662 50.7181 83.838 50.7181 80.9928 50.7145 78.1486 49.5834 75.4222 47.5727 73.4113 45.562 71.4006 42.8354 70.2696 39.9912 70.2659ZM39.9914 90.7755C37.4005 90.7755 34.9149 89.7462 33.0832 87.9145 31.2505 86.0818 30.2212 83.5972 30.2212 81.0053 30.2212 78.4143 31.2505 75.9297 33.0832 74.0971 34.915 72.2644 37.4005 71.2351 39.9914 71.2351 42.5824 71.2351 45.0679 72.2644 46.9006 74.0971 48.7324 75.9297 49.7616 78.4143 49.7616 81.0053 49.7545 83.5935 48.7226 86.0738 46.8917 87.902 45.0608 89.7311 42.5797 90.7596 39.9914 90.763Z" transform="matrix(1 0 0 1.01195 492.333 69.3722)"/><path d="M39.9914 74.6789C38.3173 74.6789 36.7113 75.3441 35.527 76.5284 34.3427 77.7127 33.6783 79.3187 33.6783 80.9929 33.6783 82.667 34.3427 84.2729 35.527 85.4573 36.7113 86.6416 38.3172 87.3068 39.9914 87.3068 41.6664 87.3068 43.2724 86.6416 44.4559 85.4573 45.6402 84.273 46.3054 82.667 46.3054 80.9929 46.2885 79.3232 45.618 77.7271 44.4373 76.5472 43.2574 75.3665 41.6613 74.6959 39.9916 74.6791ZM39.9914 86.3367C38.5706 86.3367 37.2084 85.7724 36.2038 84.7679 35.1994 83.7635 34.6342 82.4003 34.6342 80.9803 34.6342 79.5596 35.1994 78.1964 36.2038 77.1919 37.2083 76.1874 38.5708 75.6231 39.9914 75.6231 41.4121 75.6231 42.7744 76.1874 43.7799 77.1919 44.7844 78.1964 45.3486 79.5595 45.3486 80.9803 45.3522 82.4029 44.7888 83.7688 43.7843 84.7759 42.779 85.7839 41.4149 86.3499 39.9913 86.3499Z" transform="matrix(1 0 0 1.01195 492.333 69.3722)"/><path d="M119.786 70.2662C116.941 70.2662 114.213 71.3964 112.201 73.4079 110.19 75.4195 109.059 78.1477 109.059 80.9928 109.059 83.838 110.19 86.5661 112.201 88.5777 114.213 90.5893 116.941 91.7195 119.786 91.7195 122.63 91.7195 125.358 90.5892 127.371 88.5777 129.383 86.5661 130.512 83.838 130.512 80.9928 130.509 78.1486 129.378 75.4222 127.367 73.4113 125.356 71.4006 122.629 70.2696 119.786 70.2659ZM119.786 90.7755C117.194 90.7755 114.71 89.7462 112.877 87.9145 111.045 86.0818 110.016 83.5972 110.016 81.0053 110.016 78.4143 111.045 75.9297 112.877 74.0971 114.71 72.2644 117.194 71.2351 119.786 71.2351 122.377 71.2351 124.862 72.2644 126.694 74.0971 128.526 75.9297 129.555 78.4143 129.555 81.0053 129.549 83.5935 128.517 86.0738 126.686 87.902 124.855 89.7311 122.373 90.7596 119.786 90.763Z" transform="matrix(1 0 0 1.01195 492.333 69.3722)"/><path d="M119.786 74.6789C118.111 74.6789 116.505 75.3441 115.322 76.5284 114.137 77.7127 113.472 79.3187 113.472 80.9929 113.472 82.667 114.137 84.2729 115.322 85.4573 116.505 86.6416 118.111 87.3068 119.786 87.3068 121.46 87.3068 123.066 86.6416 124.25 85.4573 125.434 84.273 126.099 82.667 126.099 80.9929 126.082 79.3232 125.413 77.7271 124.232 76.5472 123.051 75.3665 121.455 74.6959 119.786 74.6791ZM119.786 86.3367C118.365 86.3367 117.002 85.7724 115.998 84.7679 114.993 83.7635 114.429 82.4003 114.429 80.9803 114.429 79.5596 114.993 78.1964 115.998 77.1919 117.002 76.1874 118.365 75.6231 119.786 75.6231 121.207 75.6231 122.569 76.1874 123.574 77.1919 124.578 78.1964 125.142 79.5595 125.142 80.9803 125.146 82.4029 124.583 83.7688 123.578 84.7759 122.573 85.7839 121.209 86.3499 119.786 86.3499Z" transform="matrix(1 0 0 1.01195 492.333 69.3722)"/><path d="M79.8876 68.7083C77.0699 68.7083 74.3673 69.8279 72.3753 71.8201 70.3822 73.8132 69.2634 76.5157 69.2634 79.3334 69.2634 82.1511 70.3822 84.8536 72.3753 86.8466 74.3674 88.8388 77.0699 89.9585 79.8876 89.9585 82.7062 89.9585 85.4078 88.8388 87.4008 86.8466 89.393 84.8536 90.5127 82.1511 90.5127 79.3334 90.5091 76.5166 89.3886 73.8159 87.3974 71.8247 85.4053 69.8326 82.7046 68.7119 79.8878 68.7085ZM79.8876 89.0006 79.8876 89.0015C77.3241 89.0015 74.8644 87.9829 73.0519 86.1697 71.2387 84.3565 70.2201 81.8976 70.2201 79.3334 70.2201 76.7692 71.2388 74.3102 73.0519 72.497 74.8642 70.6838 77.3241 69.6652 79.8876 69.6652 82.452 69.6652 84.9108 70.6839 86.724 72.497 88.5372 74.3102 89.5557 76.7692 89.5557 79.3334 89.5522 81.8969 88.5327 84.3541 86.7203 86.1663 84.908 87.9786 82.4509 88.9981 79.8874 89.0017Z" transform="matrix(1 0 0 1.01195 492.333 69.3722)"/><path d="M79.8763 71.273 74.5447 73.2111 71.7129 78.1218 72.6952 83.7085 77.0957 87.3561 82.708 87.3561 87.0573 83.7085 88.0396 78.1218 85.1954 73.2111ZM86.1768 83.1983 82.3502 86.3995 77.3755 86.3995 73.549 83.1983 72.6818 78.3007 75.1947 73.9764 79.8762 72.2801 84.5443 73.9764 87.0953 78.2876Z" transform="matrix(1 0 0 1.01195 492.333 69.3722)"/><path d="M4.27307-0.255105C4.05339-0.141725 3.82397-0.05669 3.58571 0 3.34655 0.058461 3.09766 0.088577 2.83811 0.088577 2.06304 0.088577 1.4492-0.127553 0.995681-0.559821 0.54393-0.992071 0.318938-1.57847 0.318938-2.32075 0.318938-3.06214 0.543927-3.64943 0.995681-4.08168 1.4492-4.51572 2.06304-4.73361 2.83811-4.73361 3.09763-4.73361 3.34655-4.7035 3.58571-4.64504 3.82399-4.58835 4.05341-4.50154 4.27307-4.38639L4.27307-3.4262C4.05074-3.57678 3.83107-3.68838 3.61406-3.75927 3.39881-3.83013 3.17206-3.86556 2.93378-3.86556 2.50595-3.86556 2.16935-3.72826 1.92399-3.45456 1.67775-3.17997 1.55551-2.80262 1.55551-2.32076 1.55551-1.84066 1.67774-1.46422 1.92399-1.19049 2.16935-0.915909 2.50595-0.77949 2.93378-0.77949 3.17206-0.77949 3.39882-0.81315 3.61406-0.88224 3.83107-0.953102 4.05075-1.06471 4.27307-1.21884Z" transform="matrix(1 0 0 1.01195 508.206 217.236)"/><path d="M3.12498-2.53699C3.02754-2.58394 2.93099-2.61849 2.83446-2.63974 2.73702-2.661 2.64047-2.67163 2.54393-2.67163 2.25783-2.67163 2.03726-2.57951 1.88136-2.39525 1.72723-2.21278 1.65106-1.9506 1.65106-1.60867L1.65106-7.70984e-05 0.534972-7.70984e-05 0.534972-3.48651 1.65106-3.48651 1.65106-2.91608C1.79279-3.14284 1.95667-3.3076 2.14356-3.41211 2.32958-3.51841 2.5528-3.57155 2.81321-3.57155 2.84864-3.57155 2.88761-3.5689 2.93013-3.56447 2.97442-3.56181 3.03997-3.55561 3.125-3.54675Z" transform="matrix(1 0 0 1.01195 512.887 217.236)"/><path d="M4.01796-1.75385 4.01796-1.43498 1.41022-1.43498C1.43857-1.1728 1.53246-0.976157 1.69367-0.846813 1.85666-0.716603 2.08343-0.65194 2.37395-0.65194 2.60779-0.65194 2.84695-0.6856 3.09321-0.754689 3.33857-0.825552 3.59102-0.930075 3.85145-1.07002L3.85145-0.212597C3.58927-0.113389 3.3253-0.0389846 3.06133 0.0106214 2.79647 0.0619962 2.53341 0.0885702 2.27121 0.0885702 1.64054 0.0885702 1.14893-0.0708693 0.797266-0.389758 0.447375-0.710419 0.272883-1.16038 0.272883-1.73968 0.272883-2.30835 0.44384-2.75657 0.786631-3.08253 1.13119-3.4085 1.6051-3.57147 2.20742-3.57147 2.75484-3.57147 3.1933-3.40583 3.52192-3.07544 3.85231-2.74682 4.01796-2.30658 4.01796-1.75386ZM2.86999-2.12234C2.86999-2.33493 2.80798-2.50588 2.68575-2.63609 2.56262-2.76541 2.40053-2.83096 2.20034-2.83096 1.9851-2.83096 1.81059-2.76895 1.67596-2.64672 1.54132-2.52625 1.45717-2.35086 1.42439-2.12233Z" transform="matrix(1 0 0 1.01195 516.031 217.236)"/><path d="M2.09753-1.56961C1.86546-1.56961 1.69095-1.52886 1.57315-1.44914 1.45711-1.3712 1.39954-1.25516 1.39954-1.10193 1.39954-0.960204 1.44648-0.848593 1.54126-0.768864 1.63515-0.690915 1.76625-0.651942 1.93455-0.651942 2.14448-0.651942 2.32075-0.726347 2.46247-0.87516 2.60597-1.02574 2.6786-1.2153 2.6786-1.44206L2.6786-1.56961ZM3.80177-1.99125 3.80177-2.2676e-05 2.6786-2.2676e-05 2.6786-0.517308C2.52979-0.30472 2.36062-0.149707 2.17193-0.0531526 1.98503 0.0407397 1.75828 0.0885725 1.49165 0.0885725 1.13024 0.0885725 0.836178-0.0159503 0.609418-0.22676 0.384429-0.43669 0.272815-0.70951 0.272815-1.04523 0.272815-1.45358 0.412769-1.75385 0.694453-1.94519 0.977903-2.13652 1.41902-2.23218 2.01959-2.23218L2.6786-2.23218 2.6786-2.32076C2.6786-2.49526 2.60863-2.62369 2.46956-2.70695 2.3296-2.78933 2.11259-2.83096 1.81762-2.83096 1.57846-2.83096 1.35703-2.80616 1.15152-2.75656 0.946014-2.70873 0.754685-2.63786 0.57754-2.54397L0.57754-3.39432C0.818473-3.45278 1.05764-3.49707 1.2968-3.52542 1.53773-3.55553 1.77867-3.57148 2.0196-3.57148 2.65026-3.57148 3.10469-3.44747 3.3837-3.19945 3.66184-2.95142 3.8018-2.5484 3.8018-1.99125Z" transform="matrix(1 0 0 1.01195 520.357 217.236)"/><path d="M1.75385-4.47851 1.75385-3.48644 2.90183-3.48644 2.90183-2.68924 1.75385-2.68924 1.75385-1.21176C1.75385-1.04878 1.78574-0.938946 1.84952-0.882256 1.9133-0.825566 2.04085-0.797221 2.23218-0.797221L2.80615-0.797221 2.80615-2.2676e-05 1.8495-2.2676e-05C1.41015-2.2676e-05 1.09835-0.092144 0.914111-0.276398 0.729868-0.460652 0.637736-0.772436 0.637736-1.21178L0.637736-2.68926 0.0850078-2.68926 0.0850078-3.48646 0.637736-3.48646 0.637736-4.47854Z" transform="matrix(1 0 0 1.01195 524.661 217.236)"/><path d="M4.01796-1.75385 4.01796-1.43498 1.41022-1.43498C1.43857-1.1728 1.53246-0.976157 1.69367-0.846813 1.85666-0.716603 2.08343-0.65194 2.37395-0.65194 2.60779-0.65194 2.84695-0.6856 3.09321-0.754689 3.33857-0.825552 3.59102-0.930075 3.85145-1.07002L3.85145-0.212597C3.58927-0.113389 3.3253-0.0389846 3.06133 0.0106214 2.79647 0.0619962 2.53341 0.0885702 2.27121 0.0885702 1.64054 0.0885702 1.14893-0.0708693 0.797266-0.389758 0.447375-0.710419 0.272883-1.16038 0.272883-1.73968 0.272883-2.30835 0.44384-2.75657 0.786631-3.08253 1.13119-3.4085 1.6051-3.57147 2.20742-3.57147 2.75484-3.57147 3.1933-3.40583 3.52192-3.07544 3.85231-2.74682 4.01796-2.30658 4.01796-1.75386ZM2.86999-2.12234C2.86999-2.33493 2.80798-2.50588 2.68575-2.63609 2.56262-2.76541 2.40053-2.83096 2.20034-2.83096 1.9851-2.83096 1.81059-2.76895 1.67596-2.64672 1.54132-2.52625 1.45717-2.35086 1.42439-2.12233Z" transform="matrix(1 0 0 1.01195 527.709 217.236)"/><path d="M2.90888-2.97623 2.90888-4.847 4.02851-4.847 4.02851 0 2.90888 0 2.90888-0.503135C2.75475-0.297634 2.58468-0.147054 2.39867-0.0531526 2.21443 0.0407397 2.00184 0.0885725 1.76091 0.0885725 1.33042 0.0885725 0.97788-0.0814976 0.701505-0.421638 0.42513-0.763547 0.286965-1.20289 0.286965-1.73968 0.286965-2.27824 0.425148-2.71758 0.701505-3.05772 0.97788-3.39963 1.3304-3.57147 1.76091-3.57147 2.00184-3.57147 2.21443-3.52275 2.39867-3.4262 2.58468-3.32877 2.75475-3.17908 2.90888-2.97622ZM2.17191-0.71926C2.41284-0.71926 2.59531-0.806067 2.7211-0.981441 2.84599-1.15594 2.90888-1.40838 2.90888-1.73968 2.90888-2.07275 2.84599-2.32606 2.7211-2.50146 2.59532-2.67596 2.41284-2.76364 2.17191-2.76364 1.9354-2.76364 1.75472-2.67595 1.62982-2.50146 1.50403-2.32607 1.44203-2.07275 1.44203-1.73968 1.44203-1.40841 1.50404-1.15596 1.62982-0.981441 1.75471-0.806055 1.93542-0.71926 2.17191-0.71926Z" transform="matrix(1 0 0 1.01195 532.034 217.236)"/><path d="M2.39164-0.71926C2.62992-0.71926 2.81151-0.806067 2.93727-0.981441 3.06216-1.15594 3.12505-1.40838 3.12505-1.73968 3.12505-2.07275 3.06216-2.32606 2.93727-2.50146 2.81149-2.67596 2.6299-2.76364 2.39164-2.76364 2.15248-2.76364 1.97-2.67506 1.84245-2.4979 1.7149-2.32251 1.65112-2.07007 1.65112-1.73966 1.65112-1.41104 1.7149-1.15859 1.84245-0.981418 1.97-0.806032 2.15248-0.719238 2.39164-0.719238ZM1.65113-2.97623C1.80437-3.17907 1.97445-3.32877 2.16134-3.42621 2.34736-3.52276 2.56259-3.57148 2.8062-3.57148 3.2358-3.57148 3.58923-3.39964 3.8656-3.05773 4.14198-2.71759 4.28014-2.27824 4.28014-1.73969 4.28014-1.2029 4.14196-0.763551 3.8656-0.421642 3.58923-0.0815021 3.23582 0.088568 2.8062 0.088568 2.56262 0.088568 2.34738 0.0407352 2.16134-0.0531571 1.97444-0.149707 1.80438-0.299396 1.65113-0.50314L1.65113-4.5352e-06 0.53504-4.5352e-06 0.53504-4.847 1.65113-4.847Z" transform="matrix(1 0 0 1.01195 538.82 217.236)"/><path d="M0.0779488-3.48644 1.19404-3.48644 2.12943-1.11951 2.92662-3.48644 4.04271-3.48644 2.57585 0.329482C2.42704 0.719238 2.2543 0.990284 2.05856 1.14441 1.86192 1.29765 1.60327 1.37471 1.28261 1.37471L0.637752 1.37471 0.637752 0.644815 0.988527 0.644815C1.1772 0.644815 1.31449 0.613813 1.39953 0.552694 1.48634 0.493346 1.55366 0.386166 1.60149 0.230264L1.63337 0.134598Z" transform="matrix(1 0 0 1.01195 543.384 217.236)"/><path d="M2.44833-2.84856C2.637-2.84856 2.7796-2.88931 2.87704-2.97257 2.97359-3.05761 3.02231-3.17984 3.02231-3.34106 3.02231-3.50138 2.97359-3.62274 2.87704-3.706 2.77961-3.79104 2.63699-3.83356 2.44833-3.83356L1.78576-3.83356 1.78576-2.84856ZM2.4873-0.814794C2.72824-0.814794 2.90894-0.865285 3.0294-0.96715 3.15163-1.06813 3.21364-1.22226 3.21364-1.42775 3.21364-1.63059 3.15341-1.78206 3.03294-1.88127 2.91247-1.98224 2.73001-2.03362 2.48731-2.03362L1.78576-2.03362 1.78576-0.814785ZM3.6034-2.48715C3.86027-2.41363 4.05868-2.27545 4.19864-2.07261 4.34037-1.87154 4.41123-1.6244 4.41123-1.3321 4.41123-0.883004 4.25976-0.549077 3.95771-0.329392 3.65478-0.109718 3.19416 0.00011338 2.57588 0.00011338L0.584651 0.00011338 0.584651-4.64847 2.38456-4.64847C3.03119-4.64847 3.49888-4.55015 3.78764-4.35438 4.07816-4.1604 4.22345-3.8486 4.22345-3.419 4.22345-3.19224 4.1703-2.99913 4.06401-2.84146 3.95772-2.68291 3.8036-2.56509 3.60341-2.48715Z" transform="matrix(1 0 0 1.01195 549.762 217.236)"/><path d="M3.12498-2.53699C3.02754-2.58394 2.93099-2.61849 2.83446-2.63974 2.73702-2.661 2.64047-2.67163 2.54393-2.67163 2.25783-2.67163 2.03726-2.57951 1.88136-2.39525 1.72723-2.21278 1.65106-1.9506 1.65106-1.60867L1.65106-7.70984e-05 0.534972-7.70984e-05 0.534972-3.48651 1.65106-3.48651 1.65106-2.91608C1.79279-3.14284 1.95667-3.3076 2.14356-3.41211 2.32958-3.51841 2.5528-3.57155 2.81321-3.57155 2.84864-3.57155 2.88761-3.5689 2.93013-3.56447 2.97442-3.56181 3.03997-3.55561 3.125-3.54675Z" transform="matrix(1 0 0 1.01195 554.623 217.236)"/><path d="M0.535018-3.48644 1.65111-3.48644 1.65111 0 0.535018 0ZM0.535018-4.847 1.65111-4.847 1.65111-3.93642 0.535018-3.93642Z" transform="matrix(1 0 0 1.01195 557.768 217.236)"/><path d="M2.09753-1.56961C1.86546-1.56961 1.69095-1.52886 1.57315-1.44914 1.45711-1.3712 1.39954-1.25516 1.39954-1.10193 1.39954-0.960204 1.44648-0.848593 1.54126-0.768864 1.63515-0.690915 1.76625-0.651942 1.93455-0.651942 2.14448-0.651942 2.32075-0.726347 2.46247-0.87516 2.60597-1.02574 2.6786-1.2153 2.6786-1.44206L2.6786-1.56961ZM3.80177-1.99125 3.80177-2.2676e-05 2.6786-2.2676e-05 2.6786-0.517308C2.52979-0.30472 2.36062-0.149707 2.17193-0.0531526 1.98503 0.0407397 1.75828 0.0885725 1.49165 0.0885725 1.13024 0.0885725 0.836178-0.0159503 0.609418-0.22676 0.384429-0.43669 0.272815-0.70951 0.272815-1.04523 0.272815-1.45358 0.412769-1.75385 0.694453-1.94519 0.977903-2.13652 1.41902-2.23218 2.01959-2.23218L2.6786-2.23218 2.6786-2.32076C2.6786-2.49526 2.60863-2.62369 2.46956-2.70695 2.3296-2.78933 2.11259-2.83096 1.81762-2.83096 1.57846-2.83096 1.35703-2.80616 1.15152-2.75656 0.946014-2.70873 0.754685-2.63786 0.57754-2.54397L0.57754-3.39432C0.818473-3.45278 1.05764-3.49707 1.2968-3.52542 1.53773-3.55553 1.77867-3.57148 2.0196-3.57148 2.65026-3.57148 3.10469-3.44747 3.3837-3.19945 3.66184-2.95142 3.8018-2.5484 3.8018-1.99125Z" transform="matrix(1 0 0 1.01195 559.954 217.236)"/><path d="M4.04268-2.12234 4.04268 0 2.91951 0 2.91951-1.6263C2.91951-1.92569 2.91243-2.13297 2.89826-2.24635 2.88585-2.36151 2.86371-2.44654 2.83093-2.50146 2.78576-2.57409 2.72553-2.63078 2.65023-2.67153 2.57671-2.71139 2.49257-2.73176 2.39867-2.73176 2.16483-2.73176 1.98147-2.64141 1.84948-2.46248 1.71661-2.28267 1.65106-2.03377 1.65106-1.71488L1.65106-4.5352e-06 0.53497-4.5352e-06 0.53497-3.48644 1.65106-3.48644 1.65106-2.97623C1.81847-3.17908 1.99651-3.32878 2.18608-3.42621 2.37475-3.52276 2.58379-3.57148 2.81321-3.57148 3.21446-3.57148 3.51918-3.44747 3.72732-3.19946 3.93725-2.95322 4.04265-2.59446 4.04265-2.12235Z" transform="matrix(1 0 0 1.01195 564.257 217.236)"/><path d="M2.09753-1.56961C1.86546-1.56961 1.69095-1.52886 1.57315-1.44914 1.45711-1.3712 1.39954-1.25516 1.39954-1.10193 1.39954-0.960204 1.44648-0.848593 1.54126-0.768864 1.63515-0.690915 1.76625-0.651942 1.93455-0.651942 2.14448-0.651942 2.32075-0.726347 2.46247-0.87516 2.60597-1.02574 2.6786-1.2153 2.6786-1.44206L2.6786-1.56961ZM3.80177-1.99125 3.80177-2.2676e-05 2.6786-2.2676e-05 2.6786-0.517308C2.52979-0.30472 2.36062-0.149707 2.17193-0.0531526 1.98503 0.0407397 1.75828 0.0885725 1.49165 0.0885725 1.13024 0.0885725 0.836178-0.0159503 0.609418-0.22676 0.384429-0.43669 0.272815-0.70951 0.272815-1.04523 0.272815-1.45358 0.412769-1.75385 0.694453-1.94519 0.977903-2.13652 1.41902-2.23218 2.01959-2.23218L2.6786-2.23218 2.6786-2.32076C2.6786-2.49526 2.60863-2.62369 2.46956-2.70695 2.3296-2.78933 2.11259-2.83096 1.81762-2.83096 1.57846-2.83096 1.35703-2.80616 1.15152-2.75656 0.946014-2.70873 0.754685-2.63786 0.57754-2.54397L0.57754-3.39432C0.818473-3.45278 1.05764-3.49707 1.2968-3.52542 1.53773-3.55553 1.77867-3.57148 2.0196-3.57148 2.65026-3.57148 3.10469-3.44747 3.3837-3.19945 3.66184-2.95142 3.8018-2.5484 3.8018-1.99125Z" transform="matrix(1 0 0 1.01195 568.797 217.236)"/><path d="M0.031887-4.64858 4.31561-4.64858 4.31561-3.74154 2.77435-3.74154 2.77435 0 1.57678 0 1.57678-3.74154 0.0319777-3.74154Z" transform="matrix(1 0 0 1.01195 575.321 217.236)"/><path d="M3.12498-2.53699C3.02754-2.58394 2.93099-2.61849 2.83446-2.63974 2.73702-2.661 2.64047-2.67163 2.54393-2.67163 2.25783-2.67163 2.03726-2.57951 1.88136-2.39525 1.72723-2.21278 1.65106-1.9506 1.65106-1.60867L1.65106-7.70984e-05 0.534972-7.70984e-05 0.534972-3.48651 1.65106-3.48651 1.65106-2.91608C1.79279-3.14284 1.95667-3.3076 2.14356-3.41211 2.32958-3.51841 2.5528-3.57155 2.81321-3.57155 2.84864-3.57155 2.88761-3.5689 2.93013-3.56447 2.97442-3.56181 3.03997-3.55561 3.125-3.54675Z" transform="matrix(1 0 0 1.01195 579.671 217.236)"/><path d="M0.499575-1.35702 0.499575-3.48644 1.6192-3.48644 1.6192-3.13922C1.6192-2.94966 1.61743-2.71228 1.61566-2.42706 1.613-2.14096 1.61212-1.9505 1.61212-1.85662 1.61212-1.57494 1.6192-1.37299 1.63338-1.25074 1.64932-1.12762 1.67589-1.03815 1.71132-0.981463 1.75561-0.907943 1.81496-0.851253 1.88848-0.811393 1.96111-0.773304 2.04615-0.754703 2.14359-0.754703 2.37477-0.754703 2.55636-0.84328 2.68922-1.02044 2.82386-1.19937 2.89117-1.44739 2.89117-1.76449L2.89117-3.48646 4.0037-3.48646 4.0037-2.2676e-05 2.89117-2.2676e-05 2.89117-0.503158C2.7211-0.299428 2.54128-0.14973 2.35262-0.0531753 2.16572 0.0407171 1.96021 0.0885498 1.7361 0.0885498 1.3322 0.0885498 1.02482-0.0336875 0.81489-0.279935 0.604073-0.527966 0.499557-0.8867 0.499557-1.35705Z" transform="matrix(1 0 0 1.01195 582.817 217.236)"/><path d="M0.535018-3.48644 1.65111-3.48644 1.65111-0.0637196C1.65111 0.403973 1.53862 0.760055 1.31451 1.00632 1.08952 1.25167 0.765315 1.3748 0.34014 1.3748L-0.212588 1.3748-0.212588 0.644906-0.0177145 0.644906C0.192216 0.644906 0.336598 0.596189 0.414536 0.499639 0.494255 0.40486 0.535002 0.217073 0.535002-0.0637241ZM0.535018-4.847 1.65111-4.847 1.65111-3.93642 0.535018-3.93642Z" transform="matrix(1 0 0 1.01195 587.356 217.236)"/><path d="M0.535018-3.48644 1.65111-3.48644 1.65111 0 0.535018 0ZM0.535018-4.847 1.65111-4.847 1.65111-3.93642 0.535018-3.93642Z" transform="matrix(1 0 0 1.01195 589.542 217.236)"/><path d="M0.535018-4.847 1.65111-4.847 1.65111 0 0.535018 0Z" transform="matrix(1 0 0 1.01195 591.728 217.236)"/><path d="M0.535018-4.847 1.65111-4.847 1.65111 0 0.535018 0Z" transform="matrix(1 0 0 1.01195 593.915 217.236)"/><path d="M2.19674-2.77418C1.94871-2.77418 1.75916-2.68561 1.62984-2.50844 1.49963-2.33129 1.43497-2.0744 1.43497-1.73959 1.43497-1.40653 1.49963-1.15142 1.62984-0.974275 1.75916-0.797119 1.94871-0.708535 2.19674-0.708535 2.43767-0.708535 2.62191-0.797112 2.74947-0.974275 2.87879-1.15143 2.94434-1.40653 2.94434-1.73959 2.94434-2.07442 2.87879-2.3313 2.74947-2.50844 2.62191-2.6856 2.43767-2.77418 2.19674-2.77418ZM2.19674-3.57138C2.79641-3.57138 3.2641-3.40928 3.59982-3.08598 3.9373-2.76178 4.10649-2.31359 4.10649-1.73959 4.10649-1.16738 3.93731-0.720054 3.59982-0.39674 3.2641-0.0725406 2.79641 0.0886632 2.19674 0.0886632 1.59442 0.0886632 1.12317-0.0725496 0.783025-0.39674 0.442885-0.720054 0.272815-1.16736 0.272815-1.73959 0.272815-2.31357 0.442885-2.76178 0.783025-3.08598 1.12317-3.40929 1.5944-3.57138 2.19674-3.57138Z" transform="matrix(1 0 0 1.01195 596.101 217.236)"/><path d="M2.83087-4.847 2.83087-4.11356 2.21436-4.11356C2.0558-4.11356 1.94508-4.08522 1.88129-4.02853 1.81929-3.97184 1.78917-3.87263 1.78917-3.73091L1.78917-3.48644 2.74227-3.48644 2.74227-2.68924 1.78917-2.68924 1.78917-9.07041e-05 0.676641-9.07041e-05 0.676641-2.68924 0.120376-2.68924 0.120376-3.48644 0.676641-3.48644 0.676641-3.73091C0.676641-4.11091 0.781164-4.39171 0.991974-4.57418 1.20456-4.75577 1.5323-4.847 1.97697-4.847Z" transform="matrix(1 0 0 1.01195 508.206 223.69)"/><path d="M3.12498-2.53699C3.02754-2.58394 2.93099-2.61849 2.83446-2.63974 2.73702-2.661 2.64047-2.67163 2.54393-2.67163 2.25783-2.67163 2.03726-2.57951 1.88136-2.39525 1.72723-2.21278 1.65106-1.9506 1.65106-1.60867L1.65106-7.70984e-05 0.534972-7.70984e-05 0.534972-3.48651 1.65106-3.48651 1.65106-2.91608C1.79279-3.14284 1.95667-3.3076 2.14356-3.41211 2.32958-3.51841 2.5528-3.57155 2.81321-3.57155 2.84864-3.57155 2.88761-3.5689 2.93013-3.56447 2.97442-3.56181 3.03997-3.55561 3.125-3.54675Z" transform="matrix(1 0 0 1.01195 510.981 223.69)"/><path d="M2.19674-2.77418C1.94871-2.77418 1.75916-2.68561 1.62984-2.50844 1.49963-2.33129 1.43497-2.0744 1.43497-1.73959 1.43497-1.40653 1.49963-1.15142 1.62984-0.974275 1.75916-0.797119 1.94871-0.708535 2.19674-0.708535 2.43767-0.708535 2.62191-0.797112 2.74947-0.974275 2.87879-1.15143 2.94434-1.40653 2.94434-1.73959 2.94434-2.07442 2.87879-2.3313 2.74947-2.50844 2.62191-2.6856 2.43767-2.77418 2.19674-2.77418ZM2.19674-3.57138C2.79641-3.57138 3.2641-3.40928 3.59982-3.08598 3.9373-2.76178 4.10649-2.31359 4.10649-1.73959 4.10649-1.16738 3.93731-0.720054 3.59982-0.39674 3.2641-0.0725406 2.79641 0.0886632 2.19674 0.0886632 1.59442 0.0886632 1.12317-0.0725496 0.783025-0.39674 0.442885-0.720054 0.272815-1.16736 0.272815-1.73959 0.272815-2.31357 0.442885-2.76178 0.783025-3.08598 1.12317-3.40929 1.5944-3.57138 2.19674-3.57138Z" transform="matrix(1 0 0 1.01195 514.126 223.69)"/><path d="M3.76626-2.90888C3.90798-3.12324 4.0754-3.288 4.26939-3.40138 4.46515-3.51476 4.67863-3.57145 4.91069-3.57145 5.31195-3.57145 5.61667-3.44744 5.82481-3.19943 6.03474-2.95319 6.14014-2.59443 6.14014-2.12232L6.14014 2.2676e-05 5.02051 2.2676e-05 5.02051-1.8176C5.02229-1.84594 5.02406-1.87429 5.02406-1.90263 5.02583-1.93098 5.0276-1.97172 5.0276-2.02664 5.0276-2.27467 4.9904-2.45359 4.91776-2.5652 4.84424-2.67592 4.72643-2.73172 4.56345-2.73172 4.35263-2.73172 4.18966-2.64403 4.07451-2.46954 3.95847-2.29416 3.89912-2.04172 3.89735-1.7113L3.89735 3.17464e-05 2.77419 3.17464e-05 2.77419-1.81759C2.77419-2.20467 2.74053-2.45358 2.67498-2.56519 2.60855-2.67591 2.49074-2.73172 2.32067-2.73172 2.10542-2.73172 1.93978-2.64314 1.82463-2.46598 1.70859-2.29059 1.65102-2.0408 1.65102-1.71484L1.65102 3.62816e-05 0.527852 3.62816e-05 0.527852-3.4864 1.65102-3.4864 1.65102-2.97619C1.78743-3.17461 1.9451-3.32341 2.12225-3.42264 2.29939-3.52187 2.49516-3.57145 2.71042-3.57145 2.95135-3.57145 3.16394-3.51299 3.34818-3.39784 3.53242-3.2818 3.6715-3.11881 3.76628-2.90889Z" transform="matrix(1 0 0 1.01195 518.507 223.69)"/><path d="M1.75385-4.47851 1.75385-3.48644 2.90183-3.48644 2.90183-2.68924 1.75385-2.68924 1.75385-1.21176C1.75385-1.04878 1.78574-0.938946 1.84952-0.882256 1.9133-0.825566 2.04085-0.797221 2.23218-0.797221L2.80615-0.797221 2.80615-2.2676e-05 1.8495-2.2676e-05C1.41015-2.2676e-05 1.09835-0.092144 0.914111-0.276398 0.729868-0.460652 0.637736-0.772436 0.637736-1.21178L0.637736-2.68926 0.0850078-2.68926 0.0850078-3.48646 0.637736-3.48646 0.637736-4.47854Z" transform="matrix(1 0 0 1.01195 527.373 223.69)"/><path d="M4.04268-2.12234 4.04268 0 2.91951 0 2.91951-1.6192C2.91951-1.92392 2.91243-2.13295 2.89826-2.24633 2.88585-2.36148 2.86371-2.44652 2.83093-2.50144 2.78576-2.57407 2.72553-2.63076 2.65023-2.67151 2.57671-2.71137 2.49257-2.73174 2.39867-2.73174 2.16483-2.73174 1.98147-2.64139 1.84948-2.46246 1.71661-2.28265 1.65106-2.03375 1.65106-1.71486L1.65106 1.81408e-05 0.53497 1.81408e-05 0.53497-4.84698 1.65106-4.84698 1.65106-2.97621C1.81847-3.17905 1.99651-3.32875 2.18608-3.42619 2.37475-3.52274 2.58379-3.57146 2.81321-3.57146 3.21446-3.57146 3.51918-3.44745 3.72732-3.19944 3.93725-2.9532 4.04265-2.59444 4.04265-2.12233Z" transform="matrix(1 0 0 1.01195 530.421 223.69)"/><path d="M4.01796-1.75385 4.01796-1.43498 1.41022-1.43498C1.43857-1.1728 1.53246-0.976157 1.69367-0.846813 1.85666-0.716603 2.08343-0.65194 2.37395-0.65194 2.60779-0.65194 2.84695-0.6856 3.09321-0.754689 3.33857-0.825552 3.59102-0.930075 3.85145-1.07002L3.85145-0.212597C3.58927-0.113389 3.3253-0.0389846 3.06133 0.0106214 2.79647 0.0619962 2.53341 0.0885702 2.27121 0.0885702 1.64054 0.0885702 1.14893-0.0708693 0.797266-0.389758 0.447375-0.710419 0.272883-1.16038 0.272883-1.73968 0.272883-2.30835 0.44384-2.75657 0.786631-3.08253 1.13119-3.4085 1.6051-3.57147 2.20742-3.57147 2.75484-3.57147 3.1933-3.40583 3.52192-3.07544 3.85231-2.74682 4.01796-2.30658 4.01796-1.75386ZM2.86999-2.12234C2.86999-2.33493 2.80798-2.50588 2.68575-2.63609 2.56262-2.76541 2.40053-2.83096 2.20034-2.83096 1.9851-2.83096 1.81059-2.76895 1.67596-2.64672 1.54132-2.52625 1.45717-2.35086 1.42439-2.12233Z" transform="matrix(1 0 0 1.01195 534.961 223.69)"/><path d="M0.58461-4.64858 1.9239-4.64858 3.61397-1.45988 3.61397-4.64858 4.75131-4.64858 4.75131 0 3.41201 0 1.72195-3.1887 1.72195 0 0.58461 0Z" transform="matrix(1 0 0 1.01195 541.506 223.69)"/><path d="M2.19674-2.77418C1.94871-2.77418 1.75916-2.68561 1.62984-2.50844 1.49963-2.33129 1.43497-2.0744 1.43497-1.73959 1.43497-1.40653 1.49963-1.15142 1.62984-0.974275 1.75916-0.797119 1.94871-0.708535 2.19674-0.708535 2.43767-0.708535 2.62191-0.797112 2.74947-0.974275 2.87879-1.15143 2.94434-1.40653 2.94434-1.73959 2.94434-2.07442 2.87879-2.3313 2.74947-2.50844 2.62191-2.6856 2.43767-2.77418 2.19674-2.77418ZM2.19674-3.57138C2.79641-3.57138 3.2641-3.40928 3.59982-3.08598 3.9373-2.76178 4.10649-2.31359 4.10649-1.73959 4.10649-1.16738 3.93731-0.720054 3.59982-0.39674 3.2641-0.0725406 2.79641 0.0886632 2.19674 0.0886632 1.59442 0.0886632 1.12317-0.0725496 0.783025-0.39674 0.442885-0.720054 0.272815-1.16736 0.272815-1.73959 0.272815-2.31357 0.442885-2.76178 0.783025-3.08598 1.12317-3.40929 1.5944-3.57138 2.19674-3.57138Z" transform="matrix(1 0 0 1.01195 546.844 223.69)"/><path d="M0.499575-1.35702 0.499575-3.48644 1.6192-3.48644 1.6192-3.13922C1.6192-2.94966 1.61743-2.71228 1.61566-2.42706 1.613-2.14096 1.61212-1.9505 1.61212-1.85662 1.61212-1.57494 1.6192-1.37299 1.63338-1.25074 1.64932-1.12762 1.67589-1.03815 1.71132-0.981463 1.75561-0.907943 1.81496-0.851253 1.88848-0.811393 1.96111-0.773304 2.04615-0.754703 2.14359-0.754703 2.37477-0.754703 2.55636-0.84328 2.68922-1.02044 2.82386-1.19937 2.89117-1.44739 2.89117-1.76449L2.89117-3.48646 4.0037-3.48646 4.0037-2.2676e-05 2.89117-2.2676e-05 2.89117-0.503158C2.7211-0.299428 2.54128-0.14973 2.35262-0.0531753 2.16572 0.0407171 1.96021 0.0885498 1.7361 0.0885498 1.3322 0.0885498 1.02482-0.0336875 0.81489-0.279935 0.604073-0.527966 0.499557-0.8867 0.499557-1.35705Z" transform="matrix(1 0 0 1.01195 551.225 223.69)"/><path d="M4.04268-2.12234 4.04268 0 2.91951 0 2.91951-1.6263C2.91951-1.92569 2.91243-2.13297 2.89826-2.24635 2.88585-2.36151 2.86371-2.44654 2.83093-2.50146 2.78576-2.57409 2.72553-2.63078 2.65023-2.67153 2.57671-2.71139 2.49257-2.73176 2.39867-2.73176 2.16483-2.73176 1.98147-2.64141 1.84948-2.46248 1.71661-2.28267 1.65106-2.03377 1.65106-1.71488L1.65106-4.5352e-06 0.53497-4.5352e-06 0.53497-3.48644 1.65106-3.48644 1.65106-2.97623C1.81847-3.17908 1.99651-3.32878 2.18608-3.42621 2.37475-3.52276 2.58379-3.57148 2.81321-3.57148 3.21446-3.57148 3.51918-3.44747 3.72732-3.19946 3.93725-2.95322 4.04265-2.59446 4.04265-2.12235Z" transform="matrix(1 0 0 1.01195 555.766 223.69)"/><path d="M0.58461-4.64858 2.57584-4.64858C3.16578-4.64858 3.6193-4.51749 3.9364-4.25529 4.25261-3.99311 4.41119-3.61841 4.41119-3.13212 4.41119-2.64495 4.25263-2.26937 3.9364-2.0054 3.6193-1.74322 3.16578-1.61211 2.57584-1.61211L1.78571-1.61211 1.78571 2.2676e-05 0.584588 2.2676e-05ZM1.78574-3.78052 1.78574-2.48019 2.44831-2.48019C2.67949-2.48019 2.85754-2.53688 2.98332-2.65026 3.11088-2.76364 3.17465-2.92396 3.17465-3.13212 3.17465-3.3394 3.11088-3.49884 2.98332-3.61045 2.85754-3.72383 2.67951-3.78052 2.44831-3.78052Z" transform="matrix(1 0 0 1.01195 562.526 223.69)"/><path d="M3.12498-2.53699C3.02754-2.58394 2.93099-2.61849 2.83446-2.63974 2.73702-2.661 2.64047-2.67163 2.54393-2.67163 2.25783-2.67163 2.03726-2.57951 1.88136-2.39525 1.72723-2.21278 1.65106-1.9506 1.65106-1.60867L1.65106-7.70984e-05 0.534972-7.70984e-05 0.534972-3.48651 1.65106-3.48651 1.65106-2.91608C1.79279-3.14284 1.95667-3.3076 2.14356-3.41211 2.32958-3.51841 2.5528-3.57155 2.81321-3.57155 2.84864-3.57155 2.88761-3.5689 2.93013-3.56447 2.97442-3.56181 3.03997-3.55561 3.125-3.54675Z" transform="matrix(1 0 0 1.01195 567.2 223.69)"/><path d="M2.19674-2.77418C1.94871-2.77418 1.75916-2.68561 1.62984-2.50844 1.49963-2.33129 1.43497-2.0744 1.43497-1.73959 1.43497-1.40653 1.49963-1.15142 1.62984-0.974275 1.75916-0.797119 1.94871-0.708535 2.19674-0.708535 2.43767-0.708535 2.62191-0.797112 2.74947-0.974275 2.87879-1.15143 2.94434-1.40653 2.94434-1.73959 2.94434-2.07442 2.87879-2.3313 2.74947-2.50844 2.62191-2.6856 2.43767-2.77418 2.19674-2.77418ZM2.19674-3.57138C2.79641-3.57138 3.2641-3.40928 3.59982-3.08598 3.9373-2.76178 4.10649-2.31359 4.10649-1.73959 4.10649-1.16738 3.93731-0.720054 3.59982-0.39674 3.2641-0.0725406 2.79641 0.0886632 2.19674 0.0886632 1.59442 0.0886632 1.12317-0.0725496 0.783025-0.39674 0.442885-0.720054 0.272815-1.16736 0.272815-1.73959 0.272815-2.31357 0.442885-2.76178 0.783025-3.08598 1.12317-3.40929 1.5944-3.57138 2.19674-3.57138Z" transform="matrix(1 0 0 1.01195 570.345 223.69)"/><path d="M0.535018-3.48644 1.65111-3.48644 1.65111-0.0637196C1.65111 0.403973 1.53862 0.760055 1.31451 1.00632 1.08952 1.25167 0.765315 1.3748 0.34014 1.3748L-0.212588 1.3748-0.212588 0.644906-0.0177145 0.644906C0.192216 0.644906 0.336598 0.596189 0.414536 0.499639 0.494255 0.40486 0.535002 0.217073 0.535002-0.0637241ZM0.535018-4.847 1.65111-4.847 1.65111-3.93642 0.535018-3.93642Z" transform="matrix(1 0 0 1.01195 574.726 223.69)"/><path d="M4.01796-1.75385 4.01796-1.43498 1.41022-1.43498C1.43857-1.1728 1.53246-0.976157 1.69367-0.846813 1.85666-0.716603 2.08343-0.65194 2.37395-0.65194 2.60779-0.65194 2.84695-0.6856 3.09321-0.754689 3.33857-0.825552 3.59102-0.930075 3.85145-1.07002L3.85145-0.212597C3.58927-0.113389 3.3253-0.0389846 3.06133 0.0106214 2.79647 0.0619962 2.53341 0.0885702 2.27121 0.0885702 1.64054 0.0885702 1.14893-0.0708693 0.797266-0.389758 0.447375-0.710419 0.272883-1.16038 0.272883-1.73968 0.272883-2.30835 0.44384-2.75657 0.786631-3.08253 1.13119-3.4085 1.6051-3.57147 2.20742-3.57147 2.75484-3.57147 3.1933-3.40583 3.52192-3.07544 3.85231-2.74682 4.01796-2.30658 4.01796-1.75386ZM2.86999-2.12234C2.86999-2.33493 2.80798-2.50588 2.68575-2.63609 2.56262-2.76541 2.40053-2.83096 2.20034-2.83096 1.9851-2.83096 1.81059-2.76895 1.67596-2.64672 1.54132-2.52625 1.45717-2.35086 1.42439-2.12233Z" transform="matrix(1 0 0 1.01195 576.912 223.69)"/><path d="M3.35537-3.38009 3.35537-2.46951C3.20124-2.57314 3.048-2.65021 2.89477-2.69981 2.74331-2.74941 2.58652-2.77421 2.42354-2.77421 2.11175-2.77421 1.86816-2.68298 1.69365-2.5014 1.52092-2.31892 1.43501-2.06559 1.43501-1.73962 1.43501-1.41365 1.52093-1.15943 1.69365-0.97784 1.86815-0.798026 2.11175-0.708562 2.42354-0.708562 2.59804-0.708562 2.76368-0.733365 2.91958-0.782966 3.07548-0.834341 3.22074-0.91229 3.35539-1.0168L3.35539-0.102686C3.18001-0.0389098 3.00285 0.00803638 2.82391 0.039039 2.6441 0.0718127 2.46341 0.0886428 2.28182 0.0886428 1.65292 0.0886428 1.16042-0.0716834 0.804341-0.393222 0.450028-0.716537 0.27286-1.16561 0.27286-1.73961 0.27286-2.31538 0.450017-2.76445 0.804341-3.086 1.16042-3.40931 1.65292-3.5714 2.28182-3.5714 2.46606-3.5714 2.64677-3.55457 2.82391-3.5218 3.00107-3.4908 3.17822-3.44385 3.35539-3.38007Z" transform="matrix(1 0 0 1.01195 581.237 223.69)"/><path d="M1.75385-4.47851 1.75385-3.48644 2.90183-3.48644 2.90183-2.68924 1.75385-2.68924 1.75385-1.21176C1.75385-1.04878 1.78574-0.938946 1.84952-0.882256 1.9133-0.825566 2.04085-0.797221 2.23218-0.797221L2.80615-0.797221 2.80615-2.2676e-05 1.8495-2.2676e-05C1.41015-2.2676e-05 1.09835-0.092144 0.914111-0.276398 0.729868-0.460652 0.637736-0.772436 0.637736-1.21178L0.637736-2.68926 0.0850078-2.68926 0.0850078-3.48646 0.637736-3.48646 0.637736-4.47854Z" transform="matrix(1 0 0 1.01195 585.018 223.69)"/></g></svg>