<svg width="121" height="74" xmlns="http://www.w3.org/2000/svg" xmlns:xlink="http://www.w3.org/1999/xlink" xml:space="preserve" overflow="hidden"><defs><clipPath id="clip0"><rect x="421" y="409" width="121" height="74"/></clipPath></defs><g clip-path="url(#clip0)" transform="translate(-421 -409)"><path d="M98.4641 34.6448 47.4086 34.6448 47.4086 71.113 51.0555 71.113 51.0555 38.2916 94.8173 38.2916 94.8173 78.4066 51.0555 78.4066 51.0555 74.7598 47.4086 74.7598 47.4086 82.0534 98.4641 82.0534Z" transform="matrix(1 0 0 1.00352 409.526 387.704)"/><path d="M118.522 49.2321C118.522 52.2529 116.072 54.7023 113.051 54.7023 110.031 54.7023 107.581 52.2529 107.581 49.2321 107.581 46.2112 110.031 43.7618 113.051 43.7618 116.072 43.7618 118.522 46.2112 118.522 49.2321" transform="matrix(1 0 0 1.00352 409.526 387.704)"/><path d="M118.522 67.4662C118.522 70.487 116.072 72.9364 113.051 72.9364 110.031 72.9364 107.581 70.487 107.581 67.4662 107.581 64.4453 110.031 61.9959 113.051 61.9959 116.072 61.9959 118.522 64.4453 118.522 67.4662" transform="matrix(1 0 0 1.00352 409.526 387.704)"/><path d="M111.228 58.3491C111.228 61.3699 108.779 63.8193 105.758 63.8193 102.737 63.8193 100.288 61.3699 100.288 58.3491 100.288 55.3283 102.737 52.8789 105.758 52.8789 108.779 52.8789 111.228 55.3283 111.228 58.3491" transform="matrix(1 0 0 1.00352 409.526 387.704)"/><path d="M125.815 58.3491C125.815 61.3699 123.366 63.8193 120.345 63.8193 117.324 63.8193 114.875 61.3699 114.875 58.3491 114.875 55.3283 117.324 52.8789 120.345 52.8789 123.366 52.8789 125.815 55.3283 125.815 58.3491" transform="matrix(1 0 0 1.00352 409.526 387.704)"/><path d="M39.2023 46.4959 28.2618 46.4959 28.2618 52.8778 21.8799 52.8778 21.8799 63.8183 28.2618 63.8183 28.2618 70.2002 39.2023 70.2002 39.2023 63.8183 45.5842 63.8183 45.5842 52.8778 39.2023 52.8778ZM41.9374 56.5247 41.9374 60.1715 35.5554 60.1715 35.5554 66.5534 31.9086 66.5534 31.9086 60.1715 25.5267 60.1715 25.5267 56.5247 31.9086 56.5247 31.9086 50.1427 35.5554 50.1427 35.5554 56.5247Z" transform="matrix(1 0 0 1.00352 409.526 387.704)"/><path d="M129.462 58.3491C129.462 50.0494 126.068 42.1297 120.155 36.3098 119.22 31.2205 114.76 27.3516 109.405 27.3516L36.4682 27.3516C31.1128 27.3516 26.6526 31.2205 25.7174 36.3098 19.8043 42.1301 16.4107 50.0498 16.4107 58.3491 16.4107 66.6484 19.8043 74.5685 25.7174 80.3884 26.6527 85.4777 31.1128 89.3466 36.4682 89.3466L109.405 89.3466C114.76 89.3466 119.22 85.4777 120.155 80.3884 126.068 74.5681 129.462 66.6484 129.462 58.3491ZM115.685 34.6448 103.658 34.6448 103.05 30.998 109.405 30.998C112.092 30.998 114.419 32.4746 115.685 34.6448ZM36.4676 30.998 42.8243 30.998 42.217 34.6448 30.1873 34.6448C31.4531 32.4746 33.7795 30.998 36.4675 30.998ZM30.1873 82.0534 42.2145 82.0534 42.8218 85.7002 36.4676 85.7002C33.7798 85.7002 31.4533 84.2236 30.1873 82.0534ZM96.6407 85.7002 47.4086 85.7002C47.1099 85.7002 46.8144 85.6913 46.5189 85.6783L45.306 78.4065 28.857 78.4065C23.2557 73.2245 20.0573 65.9544 20.0573 58.349 20.0573 50.7436 23.2557 43.4735 28.857 38.2915L45.306 38.2915 46.5189 31.0197C46.8144 31.0067 47.1099 30.9978 47.4086 30.9978L98.4641 30.9978C98.7629 30.9978 99.0584 31.0067 99.3538 31.0197L100.567 38.2915 117.016 38.2915C122.617 43.4735 125.815 50.7436 125.815 58.349 125.815 65.9544 122.617 73.2245 117.016 78.4065L100.567 78.4065 99.3538 85.6783C99.0583 85.6913 98.7629 85.7002 98.4641 85.7002ZM109.405 85.7002 103.048 85.7002 103.655 82.0534 115.682 82.0534C114.419 84.2236 112.092 85.7002 109.405 85.7002Z" transform="matrix(1 0 0 1.00352 409.526 387.704)"/><path d="M87.5237 41.9384 91.1705 41.9384 91.1705 67.4662 87.5237 67.4662Z" transform="matrix(1 0 0 1.00352 409.526 387.704)"/><path d="M87.5237 71.113 91.1705 71.113 91.1705 74.7598 87.5237 74.7598Z" transform="matrix(1 0 0 1.00352 409.526 387.704)"/><path d="M6.10832-0.364682C5.7933-0.201877 5.46444-0.0789588 5.12172 0.00325088 4.78065 0.0879092 4.42574 0.130239 4.05697 0.130239 2.9499 0.130239 2.07158-0.179094 1.42272-0.797741 0.775564-1.41641 0.452414-2.25647 0.452414-3.31801 0.452414-4.37954 0.775585-5.21956 1.42272-5.83827 2.0715-6.45694 2.94982-6.76625 4.05697-6.76625 4.42572-6.76625 4.78065-6.72473 5.12172-6.64252 5.46441-6.55949 5.7933-6.43576 6.10832-6.27134L6.10832-4.89725C5.78923-5.11379 5.475-5.27252 5.16731-5.37263 4.85879-5.47439 4.534-5.52567 4.19374-5.52567 3.58159-5.52567 3.1005-5.32868 2.75129-4.93632 2.40125-4.54559 2.22706-4.00591 2.22706-3.31805 2.22706-2.63183 2.40126-2.09214 2.75129-1.69978 3.1005-1.30905 3.58159-1.11369 4.19374-1.11369 4.534-1.11369 4.85879-1.16334 5.16731-1.26347 5.47502-1.36522 5.78923-1.52477 6.10832-1.74212Z" transform="matrix(1 0 0 1.00352 424.113 532.261)"/><path d="M4.47058-3.62723C4.32894-3.69235 4.18892-3.73957 4.05055-3.7705 3.9138-3.80306 3.77542-3.81934 3.63702-3.81934 3.22675-3.81934 2.91091-3.68747 2.6895-3.42536 2.46971-3.16243 2.36064-2.78554 2.36064-2.29549L2.36064 0.000129202 0.765165 0.000129202 0.765165-4.98497 2.36064-4.98497 2.36064-4.16769C2.56414-4.49329 2.79859-4.73098 3.06395-4.88077 3.33094-5.03055 3.65005-5.10544 4.02125-5.10544 4.07335-5.10544 4.13033-5.103 4.19383-5.09893 4.2565-5.09404 4.34686-5.08427 4.46409-5.06962Z" transform="matrix(1 0 0 1.00352 430.804 532.261)"/><path d="M5.74364-2.50714 5.74364-2.05128 2.01534-2.05128C2.05441-1.67764 2.18872-1.39763 2.41909-1.21122 2.65109-1.024 2.97589-0.931189 3.39267-0.931189 3.72642-0.931189 4.06993-0.980032 4.42159-1.07771 4.77325-1.17702 5.13468-1.32843 5.50586-1.53031L5.50586-0.302774C5.12978-0.159506 4.7537-0.0520599 4.376 0.0195845 3.99829 0.0928459 3.6214 0.130291 3.24613 0.130291 2.34257 0.130291 1.64088-0.0984579 1.13952-0.556748 0.639715-1.01666 0.390606-1.66057 0.390606-2.4876 0.390606-3.30162 0.63563-3.94064 1.12647-4.40543 1.61896-4.87187 2.29541-5.1055 3.15502-5.1055 3.93811-5.1055 4.56571-4.86862 5.03703-4.39568 5.50753-3.92437 5.74359-3.29513 5.74359-2.50715ZM4.10582-3.03461C4.10582-3.33824 4.01628-3.58245 3.83883-3.76723 3.663-3.95364 3.43264-4.04726 3.14854-4.04726 2.83758-4.04726 2.58605-3.96016 2.39313-3.78677 2.20183-3.61257 2.08217-3.36185 2.03495-3.03461Z" transform="matrix(1 0 0 1.00352 435.3 532.261)"/><path d="M2.99894-2.24352C2.6668-2.24352 2.4169-2.18654 2.25003-2.07421 2.08234-1.96106 1.99931-1.79501 1.99931-1.57603 1.99931-1.37415 2.06606-1.21541 2.20119-1.10065 2.3355-0.987502 2.52355-0.931335 2.76449-0.931335 3.06405-0.931335 3.31557-1.03878 3.5199-1.25369 3.72585-1.46858 3.82923-1.73722 3.82923-2.0612L3.82923-2.24354ZM5.43459-2.84589 5.43459-0.000125034 3.82935-0.000125034 3.82935-0.739262C3.61446-0.437264 3.3735-0.216663 3.10649-0.0782712 2.83948 0.0601204 2.5147 0.130119 2.13291 0.130119 1.616 0.130119 1.19597-0.0204764 0.872799-0.322483 0.551253-0.623669 0.390897-1.0144 0.390897-1.49467 0.390897-2.08077 0.591147-2.50895 0.993268-2.78084 1.39702-3.05435 2.02872-3.19111 2.88832-3.19111L3.82933-3.19111 3.82933-3.3181C3.82933-3.56963 3.7292-3.75443 3.52977-3.87163 3.33196-3.98884 3.02182-4.04745 2.59851-4.04745 2.25744-4.04745 1.9408-4.01245 1.64774-3.94326 1.3547-3.8757 1.08117-3.77394 0.827203-3.63718L0.827203-4.85169C1.1699-4.93635 1.51262-4.99903 1.85613-5.04055 2.20126-5.08369 2.54479-5.10567 2.8883-5.10567 3.78861-5.10567 4.4382-4.9274 4.83545-4.57167 5.23433-4.21757 5.43457-3.64206 5.43457-2.84595Z" transform="matrix(1 0 0 1.00352 441.483 532.261)"/><path d="M2.50714-6.40152 2.50714-4.98512 4.1482-4.98512 4.1482-3.84548 2.50714-3.84548 2.50714-1.7322C2.50714-1.49938 2.55272-1.34228 2.64389-1.26007 2.73506-1.17948 2.9174-1.1396 3.19091-1.1396L4.01145-1.1396 4.01145 4.58457e-05 2.64389 4.58457e-05C2.01385 4.58457e-05 1.56775-0.131012 1.30563-0.393936 1.04271-0.656048 0.911653-1.10213 0.911653-1.73219L0.911653-3.84547 0.120418-3.84547 0.120418-4.98511 0.911653-4.98511 0.911653-6.40152Z" transform="matrix(1 0 0 1.00352 447.636 532.261)"/><path d="M5.74364-2.50714 5.74364-2.05128 2.01534-2.05128C2.05441-1.67764 2.18872-1.39763 2.41909-1.21122 2.65109-1.024 2.97589-0.931189 3.39267-0.931189 3.72642-0.931189 4.06993-0.980032 4.42159-1.07771 4.77325-1.17702 5.13468-1.32843 5.50586-1.53031L5.50586-0.302774C5.12978-0.159506 4.7537-0.0520599 4.376 0.0195845 3.99829 0.0928459 3.6214 0.130291 3.24613 0.130291 2.34257 0.130291 1.64088-0.0984579 1.13952-0.556748 0.639715-1.01666 0.390606-1.66057 0.390606-2.4876 0.390606-3.30162 0.63563-3.94064 1.12647-4.40543 1.61896-4.87187 2.29541-5.1055 3.15502-5.1055 3.93811-5.1055 4.56571-4.86862 5.03703-4.39568 5.50753-3.92437 5.74359-3.29513 5.74359-2.50715ZM4.10582-3.03461C4.10582-3.33824 4.01628-3.58245 3.83883-3.76723 3.663-3.95364 3.43264-4.04726 3.14854-4.04726 2.83758-4.04726 2.58605-3.96016 2.39313-3.78677 2.20183-3.61257 2.08217-3.36185 2.03495-3.03461Z" transform="matrix(1 0 0 1.00352 451.994 532.261)"/><path d="M4.158-4.25573 4.158-6.92562 5.75999-6.92562 5.75999 0 4.158 0 4.158-0.71959C3.93821-0.426553 3.69646-0.211641 3.43189-0.0748744 3.16652 0.0618813 2.86044 0.13026 2.51368 0.13026 1.8991 0.13026 1.3944-0.113952 0.999604-0.602355 0.606435-1.09078 0.410257-1.7192 0.410257-2.48763 0.410257-3.25607 0.606437-3.88449 0.999604-4.37292 1.3944-4.86134 1.8991-5.10553 2.51368-5.10553 2.85881-5.10553 3.16327-5.03552 3.42864-4.89714 3.69562-4.76039 3.93821-4.5463 4.158-4.2557ZM3.10628-1.02903C3.44897-1.02903 3.70946-1.15357 3.88774-1.40348 4.06764-1.65257 4.158-2.014 4.158-2.48776 4.158-2.96313 4.06764-3.32538 3.88774-3.5753 3.70947-3.82439 3.44897-3.94976 3.10628-3.94976 2.76764-3.94976 2.50797-3.8244 2.32807-3.5753 2.1498-3.3254 2.06108-2.96316 2.06108-2.48776 2.06108-2.014 2.14981-1.65257 2.32807-1.40348 2.50797-1.15358 2.76764-1.02903 3.10628-1.02903Z" transform="matrix(1 0 0 1.00352 458.177 532.261)"/><path d="M3.41884-1.02892C3.7591-1.02892 4.01959-1.15347 4.2003-1.40338 4.3802-1.65247 4.47056-2.0139 4.47056-2.48765 4.47056-2.96303 4.38021-3.32527 4.2003-3.5752 4.01959-3.82428 3.7591-3.94965 3.41884-3.94965 3.07777-3.94965 2.81647-3.82348 2.63413-3.57194 2.45179-3.32204 2.36062-2.96061 2.36062-2.48767 2.36062-2.01636 2.45179-1.65493 2.63413-1.4034 2.81647-1.1535 3.07777-1.02894 3.41884-1.02894ZM2.36062-4.25563C2.57959-4.54623 2.82299-4.76033 3.08998-4.89707 3.35697-5.03546 3.66387-5.10546 4.01146-5.10546 4.62523-5.10546 5.12993-4.86125 5.52554-4.37285 5.92033-3.88443 6.11815-3.25601 6.11815-2.48757 6.11815-1.71913 5.92035-1.09071 5.52554-0.602288 5.12993-0.113864 4.62523 0.130327 4.01146 0.130327 3.66387 0.130327 3.35699 0.0603205 3.08998-0.0780628 2.82297-0.216446 2.57959-0.430533 2.36062-0.719507L2.36062 8.33559e-05 0.765144 8.33559e-05 0.765144-6.92554 2.36062-6.92554Z" transform="matrix(1 0 0 1.00352 467.877 532.261)"/><path d="M0.110707-4.9851 1.70618-4.9851 3.04444-1.6021 4.18408-4.9851 5.77955-4.9851 3.68274 0.472211C3.47191 1.02738 3.22526 1.41484 2.9436 1.63463 2.66356 1.85604 2.29319 1.96676 1.83328 1.96676L0.911799 1.96676 0.911799 0.921562 1.40997 0.921562C1.68105 0.921562 1.87723 0.877604 1.99932 0.791318 2.12305 0.70666 2.21911 0.552003 2.28911 0.328943L2.33144 0.192187Z" transform="matrix(1 0 0 1.00352 474.403 532.261)"/><path d="M0.83681-6.64576 5.46369-6.64576 5.46369-5.34982 2.54956-5.34982 2.54956-4.11251 5.28801-4.11251 5.28801-2.81657 2.54956-2.81657 2.54956-1.29598 5.56142-1.29598 5.56142-4.16779e-05 0.83681-4.16779e-05Z" transform="matrix(1 0 0 1.00352 483.52 532.261)"/><path d="M0.713089-1.94063 0.713089-4.98499 2.31508-4.98499 2.31508-4.48682C2.31508-4.21737 2.31264-3.87874 2.30857-3.47092 2.30613-3.06229 2.30532-2.7904 2.30532-2.65363 2.30532-2.2515 2.31508-1.96334 2.33462-1.78752 2.35578-1.6117 2.39323-1.48309 2.44533-1.4033 2.51045-1.2991 2.59511-1.21851 2.69931-1.16236 2.80513-1.10537 2.92725-1.0777 3.06399-1.0777 3.39613-1.0777 3.65661-1.20469 3.84546-1.45865 4.03594-1.71427 4.13199-2.06917 4.13199-2.5234L4.13199-4.9849 5.72421-4.9849 5.72421 0.00019797 4.13199 0.00019797 4.13199-0.719392C3.89105-0.430418 3.63544-0.216319 3.36681-0.0779482 3.09982 0.0604351 2.80432 0.130442 2.48115 0.130442 1.9032 0.130442 1.46362-0.0462021 1.16244-0.400306 0.862878-0.753589 0.713108-1.26725 0.713108-1.94043Z" transform="matrix(1 0 0 1.00352 489.748 532.261)"/><path d="M4.79296-4.82881 4.79296-3.52962C4.57807-3.6794 4.36072-3.78848 4.14174-3.85848 3.92439-3.93011 3.69892-3.96593 3.46448-3.96593 3.01921-3.96593 2.67162-3.83569 2.42253-3.5752 2.17507-3.31634 2.05135-2.95409 2.05135-2.48766 2.05135-2.02284 2.17508-1.6606 2.42253-1.40011 2.67162-1.13962 3.01921-1.00938 3.46448-1.00938 3.71357-1.00938 3.95044-1.04601 4.1743-1.12009 4.39733-1.19579 4.6041-1.3065 4.79296-1.45222L4.79296-0.146533C4.5455-0.0553629 4.29235 0.0130139 4.0343 0.0586013 3.77788 0.105814 3.52066 0.130235 3.26261 0.130235 2.36393 0.130235 1.66062-0.100952 1.15267-0.563306 0.644716-1.02566 0.390751-1.66713 0.390751-2.48766 0.390751-3.30982 0.644737-3.95126 1.15267-4.41201 1.66062-4.87439 2.36393-5.10556 3.26261-5.10556 3.5231-5.10556 3.78033-5.08276 4.0343-5.03718 4.28826-4.9916 4.54062-4.92159 4.79296-4.82879Z" transform="matrix(1 0 0 1.00352 496.239 532.261)"/><path d="M2.99894-2.24352C2.6668-2.24352 2.4169-2.18654 2.25003-2.07421 2.08234-1.96106 1.99931-1.79501 1.99931-1.57603 1.99931-1.37415 2.06606-1.21541 2.20119-1.10065 2.3355-0.987502 2.52355-0.931335 2.76449-0.931335 3.06405-0.931335 3.31557-1.03878 3.5199-1.25369 3.72585-1.46858 3.82923-1.73722 3.82923-2.0612L3.82923-2.24354ZM5.43459-2.84589 5.43459-0.000125034 3.82935-0.000125034 3.82935-0.739262C3.61446-0.437264 3.3735-0.216663 3.10649-0.0782712 2.83948 0.0601204 2.5147 0.130119 2.13291 0.130119 1.616 0.130119 1.19597-0.0204764 0.872799-0.322483 0.551253-0.623669 0.390897-1.0144 0.390897-1.49467 0.390897-2.08077 0.591147-2.50895 0.993268-2.78084 1.39702-3.05435 2.02872-3.19111 2.88832-3.19111L3.82933-3.19111 3.82933-3.3181C3.82933-3.56963 3.7292-3.75443 3.52977-3.87163 3.33196-3.98884 3.02182-4.04745 2.59851-4.04745 2.25744-4.04745 1.9408-4.01245 1.64774-3.94326 1.3547-3.8757 1.08117-3.77394 0.827203-3.63718L0.827203-4.85169C1.1699-4.93635 1.51262-4.99903 1.85613-5.04055 2.20126-5.08369 2.54479-5.10567 2.8883-5.10567 3.78861-5.10567 4.4382-4.9274 4.83545-4.57167 5.23433-4.21757 5.43457-3.64206 5.43457-2.84595Z" transform="matrix(1 0 0 1.00352 501.644 532.261)"/><path d="M0.765186-6.92562 2.36066-6.92562 2.36066 0 0.765186 0Z" transform="matrix(1 0 0 1.00352 507.796 532.261)"/><path d="M0.110707-4.9851 1.70618-4.9851 3.04444-1.6021 4.18408-4.9851 5.77955-4.9851 3.68274 0.472211C3.47191 1.02738 3.22526 1.41484 2.9436 1.63463 2.66356 1.85604 2.29319 1.96676 1.83328 1.96676L0.911799 1.96676 0.911799 0.921562 1.40997 0.921562C1.68105 0.921562 1.87723 0.877604 1.99932 0.791318 2.12305 0.70666 2.21911 0.552003 2.28911 0.328943L2.33144 0.192187Z" transform="matrix(1 0 0 1.00352 510.921 532.261)"/><path d="M2.36064-0.71959 2.36064 1.89507 0.765165 1.89507 0.765165-4.98512 2.36064-4.98512 2.36064-4.25575C2.57961-4.54635 2.82301-4.76045 3.09-4.8972 3.35699-5.03558 3.66389-5.10559 4.01148-5.10559 4.62525-5.10559 5.12995-4.86138 5.52556-4.37297 5.92035-3.88455 6.11818-3.25613 6.11818-2.48769 6.11818-1.71926 5.92037-1.09084 5.52556-0.602413 5.12995-0.113989 4.62525 0.130202 4.01148 0.130202 3.66389 0.130202 3.35701 0.0601954 3.09-0.0781878 2.82299-0.216571 2.57961-0.430658 2.36064-0.719632ZM3.41886-3.94963C3.07779-3.94963 2.81649-3.82346 2.63415-3.57192 2.45181-3.32202 2.36064-2.96059 2.36064-2.48765 2.36064-2.01634 2.45181-1.65491 2.63415-1.40338 2.81649-1.15348 3.07779-1.02892 3.41886-1.02892 3.75912-1.02892 4.01961-1.15347 4.20032-1.40338 4.38022-1.65247 4.47058-2.0139 4.47058-2.48765 4.47058-2.96303 4.38023-3.32527 4.20032-3.5752 4.01961-3.82428 3.75912-3.94965 3.41886-3.94965Z" transform="matrix(1 0 0 1.00352 516.863 532.261)"/></g></svg>