<svg width="117" height="96" xmlns="http://www.w3.org/2000/svg" xmlns:xlink="http://www.w3.org/1999/xlink" xml:space="preserve" overflow="hidden"><defs><clipPath id="clip0"><rect x="33" y="83" width="117" height="96"/></clipPath></defs><g clip-path="url(#clip0)" transform="translate(-33 -83)"><path d="M143.235 33.5424 44.4211 33.5424C43.0615 33.5424 41.8526 34.7513 41.8526 36.1109L41.8526 96.5477C41.8526 97.9073 43.0615 99.1161 44.4211 99.1161L79.6255 99.1161C80.2294 100.476 81.2876 103.8 79.4748 107.426L63.3074 107.426C62.7035 107.426 62.2492 107.88 62.2492 108.485 62.2492 109.088 62.7024 109.543 63.3074 109.543L124.651 109.542C125.255 109.542 125.709 109.088 125.709 108.484 125.709 107.88 125.256 107.425 124.651 107.425L107.426 107.426C105.764 103.649 106.822 100.476 107.276 99.1161L143.235 99.1161C144.595 99.1161 145.804 97.9072 145.804 96.5477L145.804 36.1109C145.803 34.7513 144.746 33.5424 143.234 33.5424ZM105.16 107.578 81.8913 107.578C83.2509 104.103 82.647 101.081 81.8913 99.2672L105.159 99.2672C104.555 101.081 103.951 104.103 105.16 107.578ZM143.537 95.1885C143.537 96.0949 142.782 96.8506 141.875 96.8506L45.9319 96.8506C45.0255 96.8506 44.2699 96.0949 44.2699 95.1885L44.2699 37.6225C44.2699 36.7161 45.0255 35.9604 45.9319 35.9604L141.875 35.9604C142.782 35.9604 143.537 36.7161 143.537 37.6225Z" transform="matrix(1 0 0 1.00771 -2.69549 54.2634)"/><path d="M138.4 38.3774 49.256 38.3774C47.8964 38.3774 46.8383 39.4355 46.8383 40.7951L46.8383 91.8642C46.8383 93.2238 47.8964 94.2819 49.256 94.2819L138.4 94.2819C139.76 94.2819 140.818 93.2238 140.818 91.8642L140.818 40.9462C140.818 39.5855 139.76 38.3767 138.4 38.3767ZM138.702 92.015C138.702 92.1658 138.551 92.3175 138.399 92.3175L49.255 92.3175C49.1042 92.3175 48.9525 92.1668 48.9525 92.015L48.9535 40.9459C48.9535 40.7952 49.1042 40.6435 49.256 40.6435L138.4 40.6435C138.551 40.6435 138.703 40.7942 138.703 40.9459Z" transform="matrix(1 0 0 1.00771 -2.69549 54.2634)"/><path d="M129.939 112.261 57.2639 112.261C56.66 112.261 56.2057 112.715 56.2057 113.32 56.2057 113.923 56.6589 114.378 57.2639 114.378L130.09 114.378C130.694 114.378 131.148 113.924 131.148 113.32 131.147 112.716 130.543 112.261 129.94 112.261Z" transform="matrix(1 0 0 1.00771 -2.69549 54.2634)"/><path d="M5.0632-0.303533C4.80183-0.168629 4.52885-0.0674518 4.24536 0 3.96395 0.069559 3.66886 0.105392 3.36007 0.105392 2.44316 0.105392 1.717-0.149659 1.18054-0.661886 0.643031-1.17619 0.375329-1.87181 0.375329-2.74868 0.375329-3.62766 0.643029-4.32325 1.18054-4.83548 1.717-5.34979 2.44316-5.60697 3.36007-5.60697 3.66886-5.60697 3.96398-5.57113 4.24536-5.50157 4.52888-5.43412 4.80184-5.33294 5.0632-5.19804L5.0632-4.05978C4.79866-4.23684 4.53835-4.36752 4.2833-4.45183 4.02719-4.53615 3.75739-4.57831 3.47388-4.57831 2.96799-4.57831 2.56959-4.41495 2.28082-4.08928 1.99099-3.76573 1.84659-3.31885 1.84659-2.74866 1.84659-2.18058 1.99098-1.73373 2.28082-1.40805 2.56959-1.08449 2.96799-0.923229 3.47388-0.923229 3.75739-0.923229 4.0272-0.963279 4.2833-1.04548 4.53835-1.1298 4.79868-1.26154 5.0632-1.44178Z" transform="matrix(1 0 0 1.00771 16.191 229.359)"/><path d="M3.70553-3.00592C3.58749-3.05862 3.47051-3.09867 3.35562-3.12396 3.24285-3.15136 3.12902-3.16612 3.01415-3.16612 2.67374-3.16612 2.41235-3.05651 2.23004-2.83728 2.04665-2.62017 1.95602-2.31032 1.95602-1.90561L1.95602-9.44325e-05 0.636502-9.44325e-05 0.636502-4.13138 1.95602-4.13138 1.95602-3.45266C2.12465-3.72246 2.31859-3.9185 2.53778-4.04286 2.7591-4.16933 3.02365-4.23257 3.33034-4.23257 3.3746-4.23257 3.42308-4.2294 3.47367-4.22413 3.52637-4.22097 3.60225-4.21359 3.70132-4.20305Z" transform="matrix(1 0 0 1.00771 21.7358 229.359)"/><path d="M4.75967-2.07835 4.75967-1.69895 1.66957-1.69895C1.70329-1.3891 1.81501-1.15723 2.00683-1.00336 2.19759-0.84843 2.46633-0.771492 2.81204-0.771492 3.09026-0.771492 3.37378-0.811542 3.6636-0.893747 3.95554-0.978062 4.25486-1.10243 4.56155-1.26894L4.56155-0.252955C4.2496-0.134914 3.93762-0.0463853 3.62564 0.0126378 3.31369 0.0737653 3.00171 0.105384 2.68973 0.105384 1.94145 0.105384 1.35967-0.0843228 0.944406-0.463747 0.531277-0.84315 0.324686-1.3754 0.324686-2.06152 0.324686-2.73604 0.528096-3.2651 0.935961-3.65084 1.34278-4.03869 1.90241-4.2326 2.61384-4.2326 3.26305-4.2326 3.78264-4.03552 4.17365-3.6424 4.5636-3.2514 4.75964-2.7297 4.75964-2.07835ZM3.40221-2.51679C3.40221-2.76657 3.32844-2.96788 3.183-3.11965 3.0365-3.27352 2.84574-3.35151 2.60966-3.35151 2.35355-3.35151 2.14591-3.27985 1.98573-3.13651 1.82554-2.99317 1.72541-2.7866 1.6864-2.51679Z" transform="matrix(1 0 0 1.00771 25.4614 229.359)"/><path d="M2.4873-1.85913C2.21118-1.85913 2.00353-1.81276 1.86337-1.72002 1.7253-1.62727 1.6568-1.4892 1.6568-1.30689 1.6568-1.13826 1.71266-1.00546 1.82543-0.910594 1.93715-0.817848 2.09207-0.771476 2.28917-0.771476 2.53896-0.771476 2.74868-0.860005 2.91731-1.03707 3.08805-1.21624 3.17447-1.43967 3.17447-1.70738L3.17447-1.85914ZM4.50243-2.3566 4.50243 0 3.17447 0 3.17447-0.611275C2.99741-0.360438 2.79717-0.1781 2.57582-0.0632428 2.35344 0.0484736 2.08364 0.105387 1.7664 0.105387 1.33851 0.105387 0.991757-0.0179233 0.725107-0.265598 0.457407-0.51538 0.324605-0.839991 0.324605-1.23944 0.324605-1.72215 0.490072-2.07627 0.822076-2.30181 1.15618-2.52946 1.67998-2.64327 2.39454-2.64327L3.17444-2.64327 3.17444-2.74867C3.17444-2.95629 3.09118-3.10805 2.92571-3.20397 2.75919-3.30198 2.50204-3.35152 2.15423-3.35152 1.86966-3.35152 1.60619-3.32306 1.36167-3.2672 1.11926-3.21029 0.894767-3.12598 0.68715-3.01426L0.68715-4.02183C0.967507-4.08928 1.24994-4.14092 1.53451-4.17781 1.82118-4.21364 2.10785-4.23261 2.39452-4.23261 3.13859-4.23261 3.6761-4.08506 4.00494-3.78997 4.33589-3.49698 4.50241-3.01953 4.50241-2.35661Z" transform="matrix(1 0 0 1.00771 30.5846 229.359)"/><path d="M2.07835-5.30333 2.07835-4.13134 3.44004-4.13134 3.44004-3.18702 2.07835-3.18702 2.07835-1.43327C2.07835-1.24145 2.11629-1.11287 2.19218-1.04542 2.26806-0.97797 2.41772-0.944244 2.64327-0.944244L3.322-0.944244 3.322 8.09422e-05 2.19218 8.09422e-05C1.66943 8.09422e-05 1.29844-0.107421 1.07922-0.324524 0.862112-0.543742 0.754618-0.912623 0.754618-1.43327L0.754618-3.18702 0.101172-3.18702 0.101172-4.13134 0.754618-4.13134 0.754618-5.30333Z" transform="matrix(1 0 0 1.00771 35.6825 229.359)"/><path d="M4.75967-2.07835 4.75967-1.69895 1.66957-1.69895C1.70329-1.3891 1.81501-1.15723 2.00683-1.00336 2.19759-0.84843 2.46633-0.771492 2.81204-0.771492 3.09026-0.771492 3.37378-0.811542 3.6636-0.893747 3.95554-0.978062 4.25486-1.10243 4.56155-1.26894L4.56155-0.252955C4.2496-0.134914 3.93762-0.0463853 3.62564 0.0126378 3.31369 0.0737653 3.00171 0.105384 2.68973 0.105384 1.94145 0.105384 1.35967-0.0843228 0.944406-0.463747 0.531277-0.84315 0.324686-1.3754 0.324686-2.06152 0.324686-2.73604 0.528096-3.2651 0.935961-3.65084 1.34278-4.03869 1.90241-4.2326 2.61384-4.2326 3.26305-4.2326 3.78264-4.03552 4.17365-3.6424 4.5636-3.2514 4.75964-2.7297 4.75964-2.07835ZM3.40221-2.51679C3.40221-2.76657 3.32844-2.96788 3.183-3.11965 3.0365-3.27352 2.84574-3.35151 2.60966-3.35151 2.35355-3.35151 2.14591-3.27985 1.98573-3.13651 1.82554-2.99317 1.72541-2.7866 1.6864-2.51679Z" transform="matrix(1 0 0 1.00771 39.2943 229.359)"/><path d="M3.44436-3.52854 3.44436-5.74179 4.77232-5.74179 4.77232-2.69807e-05 3.44436-2.69807e-05 3.44436-0.598675C3.26414-0.354162 3.06496-0.174997 2.84571-0.0632698 2.62647 0.0484574 2.37144 0.10536 2.08267 0.10536 1.57362 0.10536 1.15626-0.0969957 0.830601-0.501706 0.503892-0.906417 0.341576-1.42601 0.341576-2.06152 0.341576-2.69915 0.503881-3.22085 0.830601-3.62556 1.15626-4.03027 1.57362-4.23263 2.08267-4.23263 2.36934-4.23263 2.62228-4.17466 2.8415-4.05978 3.06283-3.94385 3.26413-3.7668 3.44436-3.52859ZM2.5759-0.851538C2.85626-0.851538 3.07124-0.953771 3.2209-1.15928 3.36951-1.36691 3.44434-1.66727 3.44434-2.06146 3.44434-2.45457 3.36951-2.75389 3.2209-2.95941 3.07124-3.16703 2.85623-3.27136 2.5759-3.27136 2.29449-3.27136 2.07951-3.16702 1.9309-2.95941 1.78124-2.75389 1.70747-2.45457 1.70747-2.06146 1.70747-1.6673 1.78125-1.36692 1.9309-1.15928 2.07951-0.953763 2.29452-0.851538 2.5759-0.851538Z" transform="matrix(1 0 0 1.00771 44.4175 229.359)"/><path d="M2.83298-0.851565C3.11649-0.851565 3.33255-0.953798 3.48219-1.15931 3.63079-1.36693 3.70562-1.6673 3.70562-2.06149 3.70562-2.4546 3.63079-2.75392 3.48219-2.95943 3.33253-3.16706 3.11646-3.27139 2.83298-3.27139 2.54841-3.27139 2.3313-3.16705 2.17953-2.95943 2.02987-2.75075 1.9561-2.45144 1.9561-2.06149 1.9561-1.67048 2.02987-1.37116 2.17953-1.16354 2.3313-0.954864 2.54841-0.851592 2.83298-0.851592ZM1.9561-3.52857C2.13843-3.76675 2.33974-3.94383 2.55896-4.05976 2.78028-4.17464 3.03533-4.23261 3.322-4.23261 3.83315-4.23261 4.25157-4.03025 4.57828-3.62554 4.90393-3.22083 5.0673-2.69913 5.0673-2.06149 5.0673-1.42596 4.90394-0.906396 4.57828-0.501685 4.25157-0.0969741 3.83315 0.105381 3.322 0.105381 3.03533 0.105381 2.78028 0.0484682 2.55896-0.0632482 2.33974-0.178127 2.13844-0.356232 1.9561-0.598654L1.9561-5.39614e-06 0.636583-5.39614e-06 0.636583-5.74177 1.9561-5.74177Z" transform="matrix(1 0 0 1.00771 52.4558 229.359)"/><path d="M0.0927462-4.13129 1.41227-4.13129 2.52522-1.32772 3.46955-4.13129 4.78906-4.13129 3.05218 0.3923C2.87723 0.849704 2.67383 1.1701 2.44091 1.35349 2.20693 1.53898 1.90129 1.63171 1.52189 1.63171L0.75461 1.63171 0.75461 0.763258 1.16774 0.763258C1.39223 0.763258 1.55559 0.72637 1.65676 0.653648 1.76005 0.583034 1.84015 0.456562 1.89706 0.274246L1.935 0.160419Z" transform="matrix(1 0 0 1.00771 57.8636 229.359)"/><path d="M5.0632-0.303533C4.80183-0.168629 4.52885-0.0674518 4.24536 0 3.96395 0.069559 3.66886 0.105392 3.36007 0.105392 2.44316 0.105392 1.717-0.149659 1.18054-0.661886 0.643031-1.17619 0.375329-1.87181 0.375329-2.74868 0.375329-3.62766 0.643029-4.32325 1.18054-4.83548 1.717-5.34979 2.44316-5.60697 3.36007-5.60697 3.66886-5.60697 3.96398-5.57113 4.24536-5.50157 4.52888-5.43412 4.80184-5.33294 5.0632-5.19804L5.0632-4.05978C4.79866-4.23684 4.53835-4.36752 4.2833-4.45183 4.02719-4.53615 3.75739-4.57831 3.47388-4.57831 2.96799-4.57831 2.56959-4.41495 2.28082-4.08928 1.99099-3.76573 1.84659-3.31885 1.84659-2.74866 1.84659-2.18058 1.99098-1.73373 2.28082-1.40805 2.56959-1.08449 2.96799-0.923229 3.47388-0.923229 3.75739-0.923229 4.0272-0.963279 4.2833-1.04548 4.53835-1.1298 4.79868-1.26154 5.0632-1.44178Z" transform="matrix(1 0 0 1.00771 65.4182 229.359)"/><path d="M2.4873-1.85913C2.21118-1.85913 2.00353-1.81276 1.86337-1.72002 1.7253-1.62727 1.6568-1.4892 1.6568-1.30689 1.6568-1.13826 1.71266-1.00546 1.82543-0.910594 1.93715-0.817848 2.09207-0.771476 2.28917-0.771476 2.53896-0.771476 2.74868-0.860005 2.91731-1.03707 3.08805-1.21624 3.17447-1.43967 3.17447-1.70738L3.17447-1.85914ZM4.50243-2.3566 4.50243 0 3.17447 0 3.17447-0.611275C2.99741-0.360438 2.79717-0.1781 2.57582-0.0632428 2.35344 0.0484736 2.08364 0.105387 1.7664 0.105387 1.33851 0.105387 0.991757-0.0179233 0.725107-0.265598 0.457407-0.51538 0.324605-0.839991 0.324605-1.23944 0.324605-1.72215 0.490072-2.07627 0.822076-2.30181 1.15618-2.52946 1.67998-2.64327 2.39454-2.64327L3.17444-2.64327 3.17444-2.74867C3.17444-2.95629 3.09118-3.10805 2.92571-3.20397 2.75919-3.30198 2.50204-3.35152 2.15423-3.35152 1.86966-3.35152 1.60619-3.32306 1.36167-3.2672 1.11926-3.21029 0.894767-3.12598 0.68715-3.01426L0.68715-4.02183C0.967507-4.08928 1.24994-4.14092 1.53451-4.17781 1.82118-4.21364 2.10785-4.23261 2.39452-4.23261 3.13859-4.23261 3.6761-4.08506 4.00494-3.78997 4.33589-3.49698 4.50241-3.01953 4.50241-2.35661Z" transform="matrix(1 0 0 1.00771 70.9619 229.359)"/><path d="M0.636583-4.13129 1.9561-4.13129 1.9561 0 0.636583 0ZM0.636583-5.74171 1.9561-5.74171 1.9561-4.66248 0.636583-4.66248Z" transform="matrix(1 0 0 1.00771 76.0598 229.359)"/><path d="M2.07835-5.30333 2.07835-4.13134 3.44004-4.13134 3.44004-3.18702 2.07835-3.18702 2.07835-1.43327C2.07835-1.24145 2.11629-1.11287 2.19218-1.04542 2.26806-0.97797 2.41772-0.944244 2.64327-0.944244L3.322-0.944244 3.322 8.09422e-05 2.19218 8.09422e-05C1.66943 8.09422e-05 1.29844-0.107421 1.07922-0.324524 0.862112-0.543742 0.754618-0.912623 0.754618-1.43327L0.754618-3.18702 0.101172-3.18702 0.101172-4.13134 0.754618-4.13134 0.754618-5.30333Z" transform="matrix(1 0 0 1.00771 78.6493 229.359)"/><path d="M0.636583-5.74177 1.9561-5.74177 1.9561 0 0.636583 0Z" transform="matrix(1 0 0 1.00771 82.26 229.359)"/><path d="M0.636583-4.13129 1.9561-4.13129 1.9561 0 0.636583 0ZM0.636583-5.74171 1.9561-5.74171 1.9561-4.66248 0.636583-4.66248Z" transform="matrix(1 0 0 1.00771 84.8506 229.359)"/><path d="M4.78908-2.51679 4.78908 0 3.46111 0 3.46111-1.92659C3.46111-2.28281 3.45268-2.52944 3.43582-2.66435 3.41896-2.79925 3.3905-2.89832 3.3515-2.96367 3.30092-3.04798 3.2303-3.11333 3.14072-3.16181 3.05324-3.20924 2.95312-3.23348 2.84139-3.23348 2.56527-3.23348 2.34921-3.12598 2.19218-2.91308 2.03409-2.70229 1.9561-2.40825 1.9561-2.032L1.9561-2.69807e-05 0.636583-2.69807e-05 0.636583-4.13131 1.9561-4.13131 1.9561-3.52846C2.1553-3.76665 2.36607-3.94372 2.58848-4.05965 2.81296-4.17453 3.06064-4.2325 3.33045-4.2325 3.80787-4.2325 4.17044-4.08495 4.41809-3.78985 4.66471-3.49687 4.78908-3.07319 4.78908-2.51669Z" transform="matrix(1 0 0 1.00771 87.4391 229.359)"/><path d="M5.64491-0.40892C5.29078-0.237128 4.9219-0.107491 4.54037-0.0210719 4.16097 0.0632428 3.76678 0.1054 3.35996 0.1054 2.44305 0.1054 1.71689-0.149651 1.18043-0.661878 0.642924-1.17618 0.375221-1.8718 0.375221-2.74867 0.375221-3.6361 0.647133-4.33484 1.19306-4.84389 1.74109-5.35188 2.4894-5.60693 3.44004-5.60693 3.80471-5.60693 4.1546-5.5711 4.48975-5.50154 4.82701-5.43409 5.14425-5.33291 5.4425-5.19801L5.4425-4.05974C5.13265-4.23364 4.82701-4.36328 4.52348-4.44759 4.21995-4.53401 3.91641-4.57828 3.61288-4.57828 3.0448-4.57828 2.60742-4.41914 2.30178-4.10191 1.99825-3.78677 1.84648-3.33571 1.84648-2.74866 1.84648-2.16691 1.99403-1.71687 2.28912-1.39963 2.58424-1.08134 3.00263-0.923256 3.5454-0.923256 3.69084-0.923256 3.82786-0.931687 3.95432-0.94855 4.0829-0.967521 4.19673-0.997032 4.29579-1.03708L4.29579-2.10789 3.43157-2.10789 3.43157-3.05642 5.64482-3.05642Z" transform="matrix(1 0 0 1.00771 95.4479 229.359)"/><path d="M4.75967-2.07835 4.75967-1.69895 1.66957-1.69895C1.70329-1.3891 1.81501-1.15723 2.00683-1.00336 2.19759-0.84843 2.46633-0.771492 2.81204-0.771492 3.09026-0.771492 3.37378-0.811542 3.6636-0.893747 3.95554-0.978062 4.25486-1.10243 4.56155-1.26894L4.56155-0.252955C4.2496-0.134914 3.93762-0.0463853 3.62564 0.0126378 3.31369 0.0737653 3.00171 0.105384 2.68973 0.105384 1.94145 0.105384 1.35967-0.0843228 0.944406-0.463747 0.531277-0.84315 0.324686-1.3754 0.324686-2.06152 0.324686-2.73604 0.528096-3.2651 0.935961-3.65084 1.34278-4.03869 1.90241-4.2326 2.61384-4.2326 3.26305-4.2326 3.78264-4.03552 4.17365-3.6424 4.5636-3.2514 4.75964-2.7297 4.75964-2.07835ZM3.40221-2.51679C3.40221-2.76657 3.32844-2.96788 3.183-3.11965 3.0365-3.27352 2.84574-3.35151 2.60966-3.35151 2.35355-3.35151 2.14591-3.27985 1.98573-3.13651 1.82554-2.99317 1.72541-2.7866 1.6864-2.51679Z" transform="matrix(1 0 0 1.00771 101.648 229.359)"/><path d="M2.6011-3.28841C2.30812-3.28841 2.08467-3.18302 1.93079-2.97222 1.77587-2.76144 1.69893-2.45792 1.69893-2.06162 1.69893-1.66533 1.77587-1.3618 1.93079-1.15102 2.08467-0.942345 2.30809-0.839073 2.6011-0.839073 2.88777-0.839073 3.10699-0.942358 3.25876-1.15102 3.41263-1.36181 3.49063-1.66533 3.49063-2.06162 3.49063-2.45792 3.41263-2.76145 3.25876-2.97222 3.10699-3.18301 2.88777-3.28841 2.6011-3.28841ZM2.6011-4.23274C3.31145-4.23274 3.86688-4.03987 4.26633-3.65519 4.66472-3.2726 4.86497-2.74143 4.86497-2.06165 4.86497-1.38398 4.66473-0.85278 4.26633-0.468115 3.86688-0.0855289 3.31145 0.105225 2.6011 0.105225 1.88655 0.105225 1.32902-0.085537 0.927462-0.468115 0.524856-0.852807 0.324605-1.38398 0.324605-2.06165 0.324605-2.74143 0.524853-3.27263 0.927462-3.65519 1.32902-4.03988 1.88655-4.23274 2.6011-4.23274Z" transform="matrix(1 0 0 1.00771 106.772 229.359)"/><path d="M3.70553-3.00592C3.58749-3.05862 3.47051-3.09867 3.35562-3.12396 3.24285-3.15136 3.12902-3.16612 3.01415-3.16612 2.67374-3.16612 2.41235-3.05651 2.23004-2.83728 2.04665-2.62017 1.95602-2.31032 1.95602-1.90561L1.95602-9.44325e-05 0.636502-9.44325e-05 0.636502-4.13138 1.95602-4.13138 1.95602-3.45266C2.12465-3.72246 2.31859-3.9185 2.53778-4.04286 2.7591-4.16933 3.02365-4.23257 3.33034-4.23257 3.3746-4.23257 3.42308-4.2294 3.47367-4.22413 3.52637-4.22097 3.60225-4.21359 3.70132-4.20305Z" transform="matrix(1 0 0 1.00771 111.962 229.359)"/><path d="M3.44436-0.699826C3.26414-0.460582 3.06496-0.283513 2.84571-0.168629 2.62649-0.0558582 2.37144 5.99092e-17 2.08267 5.99092e-17 1.57888 5.99092e-17 1.16365-0.198141 0.83481-0.594412 0.505969-0.992809 0.341576-1.4987 0.341576-2.11208 0.341576-2.72969 0.505991-3.23558 0.83481-3.62974 1.16365-4.02604 1.57888-4.22416 2.08267-4.22416 2.37144-4.22416 2.62649-4.16619 2.84571-4.05131 3.06493-3.93854 3.26413-3.76148 3.44436-3.52011L3.44436-4.13139 4.77232-4.13139 4.77232-0.417224C4.77232 0.245692 4.56259 0.752633 4.14418 1.10465 3.72472 1.45562 3.1166 1.63161 2.31878 1.63161 2.06267 1.63161 1.81394 1.61159 1.5726 1.57259 1.33019 1.53254 1.08778 1.47247 0.843282 1.39131L0.843282 0.362672C1.0762 0.494414 1.30279 0.592429 1.52201 0.657787 1.74333 0.722077 1.96676 0.754751 2.19232 0.754751 2.62444 0.754751 2.9406 0.659897 3.14085 0.472289 3.34321 0.283635 3.44439-0.0125271 3.44439-0.417238ZM2.5759-3.27141C2.30294-3.27141 2.08898-3.17023 1.93511-2.96788 1.78334-2.76763 1.70746-2.48306 1.70746-2.11208 1.70746-1.73478 1.78018-1.44811 1.92668-1.25207 2.07528-1.05814 2.29135-0.961188 2.57589-0.961188 2.85096-0.961188 3.06492-1.06026 3.21668-1.26051 3.36845-1.46287 3.44433-1.74638 3.44433-2.11208 3.44433-2.48306 3.36845-2.76763 3.21668-2.96788 3.06492-3.17023 2.85096-3.27141 2.57589-3.27141Z" transform="matrix(1 0 0 1.00771 115.689 229.359)"/><path d="M4.75967-2.07835 4.75967-1.69895 1.66957-1.69895C1.70329-1.3891 1.81501-1.15723 2.00683-1.00336 2.19759-0.84843 2.46633-0.771492 2.81204-0.771492 3.09026-0.771492 3.37378-0.811542 3.6636-0.893747 3.95554-0.978062 4.25486-1.10243 4.56155-1.26894L4.56155-0.252955C4.2496-0.134914 3.93762-0.0463853 3.62564 0.0126378 3.31369 0.0737653 3.00171 0.105384 2.68973 0.105384 1.94145 0.105384 1.35967-0.0843228 0.944406-0.463747 0.531277-0.84315 0.324686-1.3754 0.324686-2.06152 0.324686-2.73604 0.528096-3.2651 0.935961-3.65084 1.34278-4.03869 1.90241-4.2326 2.61384-4.2326 3.26305-4.2326 3.78264-4.03552 4.17365-3.6424 4.5636-3.2514 4.75964-2.7297 4.75964-2.07835ZM3.40221-2.51679C3.40221-2.76657 3.32844-2.96788 3.183-3.11965 3.0365-3.27352 2.84574-3.35151 2.60966-3.35151 2.35355-3.35151 2.14591-3.27985 1.98573-3.13651 1.82554-2.99317 1.72541-2.7866 1.6864-2.51679Z" transform="matrix(1 0 0 1.00771 121.095 229.359)"/><path d="M3.35154-5.74177 3.35154-4.87331 2.62223-4.87331C2.43674-4.87331 2.30604-4.83959 2.23017-4.77213 2.1564-4.70468 2.12056-4.58664 2.12056-4.41801L2.12056-4.13134 3.25038-4.13134 3.25038-3.18702 2.12056-3.18702 2.12056-5.39614e-05 0.801044-5.39614e-05 0.801044-3.18702 0.143389-3.18702 0.143389-4.13134 0.801044-4.13134 0.801044-4.41801C0.801044-4.867 0.925409-5.20002 1.17624-5.41713 1.42602-5.63319 1.81493-5.74174 2.34399-5.74174Z" transform="matrix(1 0 0 1.00771 16.191 236.972)"/><path d="M3.70553-3.00592C3.58749-3.05862 3.47051-3.09867 3.35562-3.12396 3.24285-3.15136 3.12902-3.16612 3.01415-3.16612 2.67374-3.16612 2.41235-3.05651 2.23004-2.83728 2.04665-2.62017 1.95602-2.31032 1.95602-1.90561L1.95602-9.44325e-05 0.636502-9.44325e-05 0.636502-4.13138 1.95602-4.13138 1.95602-3.45266C2.12465-3.72246 2.31859-3.9185 2.53778-4.04286 2.7591-4.16933 3.02365-4.23257 3.33034-4.23257 3.3746-4.23257 3.42308-4.2294 3.47367-4.22413 3.52637-4.22097 3.60225-4.21359 3.70132-4.20305Z" transform="matrix(1 0 0 1.00771 19.4782 236.972)"/><path d="M2.6011-3.28841C2.30812-3.28841 2.08467-3.18302 1.93079-2.97222 1.77587-2.76144 1.69893-2.45792 1.69893-2.06162 1.69893-1.66533 1.77587-1.3618 1.93079-1.15102 2.08467-0.942345 2.30809-0.839073 2.6011-0.839073 2.88777-0.839073 3.10699-0.942358 3.25876-1.15102 3.41263-1.36181 3.49063-1.66533 3.49063-2.06162 3.49063-2.45792 3.41263-2.76145 3.25876-2.97222 3.10699-3.18301 2.88777-3.28841 2.6011-3.28841ZM2.6011-4.23274C3.31145-4.23274 3.86688-4.03987 4.26633-3.65519 4.66472-3.2726 4.86497-2.74143 4.86497-2.06165 4.86497-1.38398 4.66473-0.85278 4.26633-0.468115 3.86688-0.0855289 3.31145 0.105225 2.6011 0.105225 1.88655 0.105225 1.32902-0.085537 0.927462-0.468115 0.524856-0.852807 0.324605-1.38398 0.324605-2.06165 0.324605-2.74143 0.524853-3.27263 0.927462-3.65519 1.32902-4.03988 1.88655-4.23274 2.6011-4.23274Z" transform="matrix(1 0 0 1.00771 23.2039 236.972)"/><path d="M4.4645-3.44436C4.62997-3.69941 4.82812-3.89545 5.05891-4.03035 5.28867-4.16526 5.54162-4.23271 5.81774-4.23271 6.29201-4.23271 6.65353-4.08516 6.90118-3.79006 7.15096-3.49708 7.27638-3.0734 7.27638-2.5169L7.27638-0.000107923 5.94841-0.000107923 5.94841-2.15436 5.94841-2.25132C5.95052-2.28715 5.95263-2.33774 5.95263-2.40309 5.95263-2.69502 5.90836-2.90582 5.82194-3.03546 5.73762-3.1672 5.59956-3.2336 5.40881-3.2336 5.15797-3.2336 4.96406-3.12926 4.82705-2.92165 4.68899-2.71613 4.61837-2.41787 4.61626-2.02791L4.61626-0.000151092 3.2883-0.000151092 3.2883-2.1544C3.2883-2.6118 3.24825-2.90587 3.17026-3.03548 3.09121-3.16722 2.95104-3.23362 2.74869-3.23362 2.49574-3.23362 2.2997-3.12928 2.16269-2.92167 2.02463-2.71615 1.95612-2.41999 1.95612-2.03214L1.95612-0.000172677 0.628158-0.000172677 0.628158-4.13146 1.95612-4.13146 1.95612-3.5286C2.11843-3.76152 2.30393-3.93752 2.5126-4.05556 2.72339-4.1736 2.95525-4.23262 3.20819-4.23262 3.49486-4.23262 3.7478-4.16307 3.96702-4.02605 4.18624-3.88799 4.35171-3.69406 4.46449-3.4443Z" transform="matrix(1 0 0 1.00771 28.3935 236.972)"/><path d="M2.07835-5.30333 2.07835-4.13134 3.44004-4.13134 3.44004-3.18702 2.07835-3.18702 2.07835-1.43327C2.07835-1.24145 2.11629-1.11287 2.19218-1.04542 2.26806-0.97797 2.41772-0.944244 2.64327-0.944244L3.322-0.944244 3.322 8.09422e-05 2.19218 8.09422e-05C1.66943 8.09422e-05 1.29844-0.107421 1.07922-0.324524 0.862112-0.543742 0.754618-0.912623 0.754618-1.43327L0.754618-3.18702 0.101172-3.18702 0.101172-4.13134 0.754618-4.13134 0.754618-5.30333Z" transform="matrix(1 0 0 1.00771 38.8959 236.972)"/><path d="M4.78908-2.51679 4.78908 0 3.46111 0 3.46111-1.91817C3.46111-2.28073 3.45268-2.52944 3.43582-2.66435 3.41896-2.79925 3.3905-2.89832 3.3515-2.96367 3.30092-3.04798 3.2303-3.11333 3.14072-3.16181 3.05324-3.20924 2.95312-3.23348 2.84139-3.23348 2.56527-3.23348 2.34921-3.12598 2.19218-2.91308 2.03409-2.70229 1.9561-2.40825 1.9561-2.032L1.9561-2.69807e-05 0.636583-2.69807e-05 0.636583-5.74179 1.9561-5.74179 1.9561-3.52854C2.1553-3.76673 2.36607-3.9438 2.58848-4.05973 2.81296-4.17461 3.06064-4.23258 3.33045-4.23258 3.80787-4.23258 4.17044-4.08503 4.41809-3.78993 4.66471-3.49695 4.78908-3.07327 4.78908-2.51677Z" transform="matrix(1 0 0 1.00771 42.5067 236.972)"/><path d="M4.75967-2.07835 4.75967-1.69895 1.66957-1.69895C1.70329-1.3891 1.81501-1.15723 2.00683-1.00336 2.19759-0.84843 2.46633-0.771492 2.81204-0.771492 3.09026-0.771492 3.37378-0.811542 3.6636-0.893747 3.95554-0.978062 4.25486-1.10243 4.56155-1.26894L4.56155-0.252955C4.2496-0.134914 3.93762-0.0463853 3.62564 0.0126378 3.31369 0.0737653 3.00171 0.105384 2.68973 0.105384 1.94145 0.105384 1.35967-0.0843228 0.944406-0.463747 0.531277-0.84315 0.324686-1.3754 0.324686-2.06152 0.324686-2.73604 0.528096-3.2651 0.935961-3.65084 1.34278-4.03869 1.90241-4.2326 2.61384-4.2326 3.26305-4.2326 3.78264-4.03552 4.17365-3.6424 4.5636-3.2514 4.75964-2.7297 4.75964-2.07835ZM3.40221-2.51679C3.40221-2.76657 3.32844-2.96788 3.183-3.11965 3.0365-3.27352 2.84574-3.35151 2.60966-3.35151 2.35355-3.35151 2.14591-3.27985 1.98573-3.13651 1.82554-2.99317 1.72541-2.7866 1.6864-2.51679Z" transform="matrix(1 0 0 1.00771 47.8849 236.972)"/><path d="M0.69559-5.50569 2.28071-5.50569 4.28319-1.72838 4.28319-5.50569 5.62802-5.50569 5.62802 0 4.0429 0 2.04042-3.7773 2.04042 0 0.69559 0Z" transform="matrix(1 0 0 1.00771 55.6387 236.972)"/><path d="M2.6011-3.28841C2.30812-3.28841 2.08467-3.18302 1.93079-2.97222 1.77587-2.76144 1.69893-2.45792 1.69893-2.06162 1.69893-1.66533 1.77587-1.3618 1.93079-1.15102 2.08467-0.942345 2.30809-0.839073 2.6011-0.839073 2.88777-0.839073 3.10699-0.942358 3.25876-1.15102 3.41263-1.36181 3.49063-1.66533 3.49063-2.06162 3.49063-2.45792 3.41263-2.76145 3.25876-2.97222 3.10699-3.18301 2.88777-3.28841 2.6011-3.28841ZM2.6011-4.23274C3.31145-4.23274 3.86688-4.03987 4.26633-3.65519 4.66472-3.2726 4.86497-2.74143 4.86497-2.06165 4.86497-1.38398 4.66473-0.85278 4.26633-0.468115 3.86688-0.0855289 3.31145 0.105225 2.6011 0.105225 1.88655 0.105225 1.32902-0.085537 0.927462-0.468115 0.524856-0.852807 0.324605-1.38398 0.324605-2.06165 0.324605-2.74143 0.524853-3.27263 0.927462-3.65519 1.32902-4.03988 1.88655-4.23274 2.6011-4.23274Z" transform="matrix(1 0 0 1.00771 61.9613 236.972)"/><path d="M0.590203-1.61043 0.590203-4.13145 1.91817-4.13145 1.91817-3.71832C1.91817-3.49278 1.91606-3.21243 1.91395-2.87517 1.91079-2.53791 1.90974-2.31238 1.90974-2.20066 1.90974-1.8655 1.91817-1.62521 1.93503-1.47976 1.954-1.33326 1.98351-1.22787 2.02356-1.16357 2.07942-1.07609 2.15109-1.00864 2.23856-0.961215 2.32499-0.915896 2.42511-0.893763 2.53789-0.893763 2.81296-0.893763 3.02902-0.999155 3.1871-1.20995 3.34413-1.42074 3.42318-1.71373 3.42318-2.09103L3.42318-4.13145 4.7427-4.13145 4.7427-0.000161884 3.42318-0.000161884 3.42318-0.59881C3.22293-0.356405 3.01215-0.178289 2.7908-0.0634047 2.56842 0.0483117 2.32285 0.105225 2.05304 0.105225 1.57772 0.105225 1.21516-0.0402175 0.965397-0.333212 0.71456-0.625143 0.590203-1.05095 0.590203-1.61059Z" transform="matrix(1 0 0 1.00771 67.1519 236.972)"/><path d="M4.78908-2.51679 4.78908 0 3.46111 0 3.46111-1.92659C3.46111-2.28281 3.45268-2.52944 3.43582-2.66435 3.41896-2.79925 3.3905-2.89832 3.3515-2.96367 3.30092-3.04798 3.2303-3.11333 3.14072-3.16181 3.05324-3.20924 2.95312-3.23348 2.84139-3.23348 2.56527-3.23348 2.34921-3.12598 2.19218-2.91308 2.03409-2.70229 1.9561-2.40825 1.9561-2.032L1.9561-2.69807e-05 0.636583-2.69807e-05 0.636583-4.13131 1.9561-4.13131 1.9561-3.52846C2.1553-3.76665 2.36607-3.94372 2.58848-4.05965 2.81296-4.17453 3.06064-4.2325 3.33045-4.2325 3.80787-4.2325 4.17044-4.08495 4.41809-3.78985 4.66471-3.49687 4.78908-3.07319 4.78908-2.51669Z" transform="matrix(1 0 0 1.00771 72.5301 236.972)"/><path d="M0.69559-5.50569 3.05219-5.50569C3.75202-5.50569 4.28845-5.3497 4.66262-5.03773 5.03887-4.72789 5.22754-4.28521 5.22754-3.70977 5.22754-3.13327 5.03889-2.68957 4.66262-2.37759 4.28848-2.06564 3.75202-1.90964 3.05219-1.90964L2.11208-1.90964 2.11208 8.09422e-05 0.69559 8.09422e-05ZM2.11208-4.47705 2.11208-2.93831 2.90043-2.93831C3.1755-2.93831 3.38735-3.00576 3.53701-3.14066 3.68878-3.27557 3.76466-3.46527 3.76466-3.70979 3.76466-3.95641 3.68878-4.14613 3.53701-4.27893 3.38735-4.41067 3.17552-4.47707 2.90043-4.47707Z" transform="matrix(1 0 0 1.00771 80.5379 236.972)"/><path d="M3.70553-3.00592C3.58749-3.05862 3.47051-3.09867 3.35562-3.12396 3.24285-3.15136 3.12902-3.16612 3.01415-3.16612 2.67374-3.16612 2.41235-3.05651 2.23004-2.83728 2.04665-2.62017 1.95602-2.31032 1.95602-1.90561L1.95602-9.44325e-05 0.636502-9.44325e-05 0.636502-4.13138 1.95602-4.13138 1.95602-3.45266C2.12465-3.72246 2.31859-3.9185 2.53778-4.04286 2.7591-4.16933 3.02365-4.23257 3.33034-4.23257 3.3746-4.23257 3.42308-4.2294 3.47367-4.22413 3.52637-4.22097 3.60225-4.21359 3.70132-4.20305Z" transform="matrix(1 0 0 1.00771 86.0753 236.972)"/><path d="M2.6011-3.28841C2.30812-3.28841 2.08467-3.18302 1.93079-2.97222 1.77587-2.76144 1.69893-2.45792 1.69893-2.06162 1.69893-1.66533 1.77587-1.3618 1.93079-1.15102 2.08467-0.942345 2.30809-0.839073 2.6011-0.839073 2.88777-0.839073 3.10699-0.942358 3.25876-1.15102 3.41263-1.36181 3.49063-1.66533 3.49063-2.06162 3.49063-2.45792 3.41263-2.76145 3.25876-2.97222 3.10699-3.18301 2.88777-3.28841 2.6011-3.28841ZM2.6011-4.23274C3.31145-4.23274 3.86688-4.03987 4.26633-3.65519 4.66472-3.2726 4.86497-2.74143 4.86497-2.06165 4.86497-1.38398 4.66473-0.85278 4.26633-0.468115 3.86688-0.0855289 3.31145 0.105225 2.6011 0.105225 1.88655 0.105225 1.32902-0.085537 0.927462-0.468115 0.524856-0.852807 0.324605-1.38398 0.324605-2.06165 0.324605-2.74143 0.524853-3.27263 0.927462-3.65519 1.32902-4.03988 1.88655-4.23274 2.6011-4.23274Z" transform="matrix(1 0 0 1.00771 89.7999 236.972)"/><path d="M0.636583-4.13129 1.9561-4.13129 1.9561-0.0758158C1.9561 0.477505 1.82225 0.900131 1.5556 1.19311 1.29106 1.48505 0.90639 1.63155 0.400502 1.63155L-0.252944 1.63155-0.252944 0.763096-0.0210773 0.763096C0.228705 0.763096 0.400496 0.706183 0.493229 0.594466 0.588083 0.481695 0.636564 0.258259 0.636564-0.0758428ZM0.636583-5.74171 1.9561-5.74171 1.9561-4.66248 0.636583-4.66248Z" transform="matrix(1 0 0 1.00771 94.9905 236.972)"/><path d="M4.75967-2.07835 4.75967-1.69895 1.66957-1.69895C1.70329-1.3891 1.81501-1.15723 2.00683-1.00336 2.19759-0.84843 2.46633-0.771492 2.81204-0.771492 3.09026-0.771492 3.37378-0.811542 3.6636-0.893747 3.95554-0.978062 4.25486-1.10243 4.56155-1.26894L4.56155-0.252955C4.2496-0.134914 3.93762-0.0463853 3.62564 0.0126378 3.31369 0.0737653 3.00171 0.105384 2.68973 0.105384 1.94145 0.105384 1.35967-0.0843228 0.944406-0.463747 0.531277-0.84315 0.324686-1.3754 0.324686-2.06152 0.324686-2.73604 0.528096-3.2651 0.935961-3.65084 1.34278-4.03869 1.90241-4.2326 2.61384-4.2326 3.26305-4.2326 3.78264-4.03552 4.17365-3.6424 4.5636-3.2514 4.75964-2.7297 4.75964-2.07835ZM3.40221-2.51679C3.40221-2.76657 3.32844-2.96788 3.183-3.11965 3.0365-3.27352 2.84574-3.35151 2.60966-3.35151 2.35355-3.35151 2.14591-3.27985 1.98573-3.13651 1.82554-2.99317 1.72541-2.7866 1.6864-2.51679Z" transform="matrix(1 0 0 1.00771 97.58 236.972)"/><path d="M3.97129-4.0007 3.97129-2.92568C3.79423-3.04899 3.61401-3.14069 3.43168-3.1997 3.25145-3.25872 3.0649-3.28823 2.87099-3.28823 2.50211-3.28823 2.21439-3.17967 2.00677-2.96362 1.80125-2.74967 1.69903-2.44932 1.69903-2.06144 1.69903-1.6757 1.80126-1.37532 2.00677-1.15926 2.2144-0.94531 2.50211-0.838863 2.87099-0.838863 3.07545-0.838863 3.27149-0.868374 3.45699-0.927392 3.64248-0.98852 3.81321-1.08021 3.97129-1.20141L3.97129-0.122179C3.76577-0.0462962 3.55603 0.00956197 3.34315 0.04645 3.13237 0.0854452 2.91842 0.10547 2.70236 0.10547 1.95724 0.10547 1.3744-0.0852914 0.952824-0.46787 0.533355-0.849404 0.324686-1.38057 0.324686-2.06141 0.324686-2.74434 0.533366-3.27659 0.952824-3.65918 1.3744-4.04071 1.95724-4.23252 2.70236-4.23252 2.91842-4.23252 3.13238-4.21249 3.34315-4.1735 3.55394-4.13661 3.76262-4.07864 3.97129-4.00065Z" transform="matrix(1 0 0 1.00771 102.704 236.972)"/><path d="M2.07835-5.30333 2.07835-4.13134 3.44004-4.13134 3.44004-3.18702 2.07835-3.18702 2.07835-1.43327C2.07835-1.24145 2.11629-1.11287 2.19218-1.04542 2.26806-0.97797 2.41772-0.944244 2.64327-0.944244L3.322-0.944244 3.322 8.09422e-05 2.19218 8.09422e-05C1.66943 8.09422e-05 1.29844-0.107421 1.07922-0.324524 0.862112-0.543742 0.754618-0.912623 0.754618-1.43327L0.754618-3.18702 0.101172-3.18702 0.101172-4.13134 0.754618-4.13134 0.754618-5.30333Z" transform="matrix(1 0 0 1.00771 107.181 236.972)"/></g></svg>