<svg width="49" height="68" xmlns="http://www.w3.org/2000/svg" xmlns:xlink="http://www.w3.org/1999/xlink" xml:space="preserve" overflow="hidden"><defs><clipPath id="clip0"><rect x="304" y="80" width="49" height="68"/></clipPath></defs><g clip-path="url(#clip0)" transform="translate(-304 -80)"><path d="M57.8238 4.28936 26.2836 4.28936C25.0045 4.29217 23.7786 4.80142 22.8742 5.70585 21.9698 6.61028 21.4605 7.83617 21.4577 9.1152L21.4577 58.1702C21.4605 59.4493 21.9698 60.6752 22.8742 61.5796 23.7786 62.484 25.0045 62.9933 26.2836 62.9961L57.8238 62.9961C59.1029 62.9933 60.3288 62.484 61.2332 61.5796 62.1376 60.6752 62.6469 59.4493 62.6497 58.1702L62.6497 9.1152C62.6469 7.83617 62.1376 6.61024 61.2332 5.70585 60.3288 4.80142 59.1029 4.29212 57.8238 4.28936ZM60.547 58.171C60.5442 58.8924 60.2565 59.5833 59.7463 60.0934 59.2361 60.6036 58.5452 60.8914 57.8238 60.8941L26.2836 60.8941C25.5622 60.8914 24.8713 60.6036 24.3611 60.0934 23.8509 59.5833 23.5632 58.8924 23.5604 58.171L23.5604 9.11592C23.5632 8.39453 23.8509 7.70364 24.3611 7.19347 24.8713 6.68328 25.5622 6.39558 26.2836 6.39275L57.8238 6.39275C58.5452 6.39556 59.2361 6.68328 59.7463 7.19347 60.2565 7.70365 60.5442 8.39453 60.547 9.11592Z" transform="matrix(1.02751 0 0 1 284.944 80)"/><path d="M55.7212 8.58953 28.3863 8.58953C27.593 8.58953 26.8322 8.90165 26.2676 9.4583 25.7025 10.0149 25.38 10.7721 25.3688 11.5647L25.3688 42.6219C25.3716 43.4203 25.6907 44.1849 26.2563 44.7485 26.8219 45.3123 27.5878 45.6286 28.3863 45.6286L55.7212 45.6286C56.5177 45.6257 57.2808 45.3081 57.844 44.7448 58.4078 44.1816 58.725 43.4184 58.7279 42.6219L58.7279 11.5647C58.7171 10.7734 58.3955 10.0187 57.8332 9.46199 57.271 8.90532 56.5125 8.59228 55.7212 8.58947ZM56.6251 42.6218C56.6195 43.1184 56.2182 43.5202 55.7212 43.5257L28.3863 43.5257C27.8892 43.5202 27.4879 43.1184 27.4823 42.6218L27.4823 11.5645C27.4823 11.0651 27.8869 10.6606 28.3863 10.6606L55.7212 10.6606C55.961 10.6606 56.191 10.7558 56.3604 10.9253 56.5298 11.0947 56.6251 11.3247 56.6251 11.5645Z" transform="matrix(1.02751 0 0 1 284.944 80)"/><path d="M42.0537 46.4273C40.1711 46.4245 38.3642 47.1703 37.0312 48.4999 35.6982 49.8296 34.9487 51.6343 34.9468 53.5168 34.9448 55.3999 35.6911 57.2059 37.0213 58.5384 38.3519 59.8704 40.1571 60.6195 42.0396 60.6204 43.9222 60.6214 45.7282 59.8741 47.0598 58.5431 48.3918 57.2125 49.1399 55.4068 49.1399 53.5239 49.1399 51.6438 48.3936 49.8405 47.0648 48.5099 45.736 47.1793 43.9337 46.4302 42.0536 46.4274ZM42.0537 58.5075C40.7283 58.5103 39.4559 57.9861 38.5171 57.0497 37.5785 56.1138 37.0504 54.8428 37.0494 53.5169 37.0485 52.1915 37.5746 50.9201 38.5119 49.9823 39.4493 49.045 40.7212 48.5188 42.0466 48.5198 43.3725 48.5207 44.643 49.0487 45.5794 49.9874 46.5152 50.9261 47.04 52.1985 47.0372 53.524 47.0372 54.8457 46.512 56.1135 45.5776 57.0479 44.6431 57.9823 43.3754 58.5075 42.0537 58.5075Z" transform="matrix(1.02751 0 0 1 284.944 80)"/><path d="M42.0537 50.2229C41.1774 50.2202 40.3364 50.5656 39.7149 51.1837 39.094 51.8014 38.7438 52.641 38.7419 53.5168 38.7401 54.3931 39.0865 55.2342 39.7051 55.8546 40.3236 56.4751 41.1634 56.8243 42.0396 56.8252 42.9159 56.8262 43.7565 56.4788 44.376 55.8598 44.996 55.2403 45.3443 54.4002 45.3443 53.5239 45.3443 52.6505 44.9979 51.8122 44.3812 51.1935 43.7645 50.5745 42.9276 50.2257 42.0537 50.2229ZM42.0537 54.6701C41.567 54.6743 41.1262 54.3837 40.9381 53.9351 40.7498 53.4863 40.8517 52.9682 41.1957 52.6242 41.5398 52.2802 42.0579 52.1783 42.5066 52.3665 42.9553 52.5548 43.2459 52.9955 43.2417 53.4822 43.236 54.136 42.7075 54.6644 42.0537 54.6701Z" transform="matrix(1.02751 0 0 1 284.944 80)"/><path d="M3.52194-0.210269C3.3403-0.116399 3.15069-0.0455261 2.95308 0.00187439 2.75643 0.0506867 2.55179 0.0750935 2.33917 0.0750935 1.70086 0.0750935 1.19443-0.103262 0.820312-0.459962 0.447175-0.816673 0.260853-1.30103 0.260853-1.9131 0.260853-2.52516 0.447187-3.0095 0.820312-3.36623 1.19439-3.72294 1.70081-3.90129 2.33917-3.90129 2.55178-3.90129 2.75643-3.87735 2.95308-3.82995 3.15068-3.78207 3.3403-3.71073 3.52194-3.61593L3.52194-2.82367C3.33796-2.94852 3.15678-3.04004 2.97937-3.09776 2.80149-3.15643 2.61421-3.186 2.41803-3.186 2.06508-3.186 1.78769-3.07241 1.58634-2.84619 1.38452-2.62091 1.28408-2.30973 1.28408-1.91312 1.28408-1.51745 1.38452-1.20628 1.58634-0.980062 1.78769-0.754774 2.06508-0.64213 2.41803-0.64213 2.61421-0.64213 2.80149-0.67076 2.97937-0.72849 3.15679-0.787159 3.33796-0.879151 3.52194-1.00447Z" transform="matrix(1.02751 0 0 1 293.586 163.056)"/><path d="M2.57765-2.09139C2.49598-2.12894 2.41525-2.15617 2.33547-2.174 2.25663-2.19278 2.17683-2.20216 2.09704-2.20216 1.86048-2.20216 1.67838-2.12613 1.55071-1.975 1.42399-1.8234 1.3611-1.60609 1.3611-1.32354L1.3611 7.44951e-05 0.441179 7.44951e-05 0.441179-2.87424 1.3611-2.87424 1.3611-2.40301C1.47844-2.59075 1.61361-2.7278 1.76662-2.81416 1.92056-2.90052 2.10455-2.9437 2.31858-2.9437 2.34862-2.9437 2.38147-2.94229 2.41808-2.93994 2.45422-2.93713 2.50632-2.93149 2.5739-2.92304Z" transform="matrix(1.02751 0 0 1 297.55 163.056)"/><path d="M3.31167-1.44557 3.31167-1.18273 1.162-1.18273C1.18453-0.967295 1.26197-0.805845 1.3948-0.698368 1.52857-0.590417 1.71584-0.536906 1.95615-0.536906 2.14858-0.536906 2.34664-0.565067 2.5494-0.621388 2.75216-0.678648 2.96056-0.765945 3.17457-0.882349L3.17457-0.174573C2.95773-0.0919679 2.74089-0.0300167 2.52311 0.011292 2.30534 0.0535332 2.08803 0.0751235 1.87165 0.0751235 1.35068 0.0751235 0.9461-0.0567689 0.657023-0.32101 0.368847-0.586189 0.225216-0.957451 0.225216-1.43431 0.225216-1.90365 0.366492-2.2721 0.649501-2.54009 0.93346-2.80903 1.32349-2.94374 1.81912-2.94374 2.27064-2.94374 2.6325-2.80716 2.90425-2.53447 3.17554-2.26272 3.31165-1.89991 3.31165-1.44558ZM2.36734-1.7497C2.36734-1.92476 2.31571-2.06557 2.21339-2.17211 2.11202-2.27959 1.97919-2.33357 1.81539-2.33357 1.63609-2.33357 1.49107-2.28335 1.37983-2.18338 1.26953-2.08294 1.20054-1.93838 1.17331-1.7497Z" transform="matrix(1.02751 0 0 1 300.214 163.056)"/><path d="M1.72913-1.29357C1.53763-1.29357 1.39354-1.26072 1.29732-1.19595 1.20063-1.13071 1.15276-1.03497 1.15276-0.908708 1.15276-0.79231 1.19125-0.700783 1.26916-0.634614 1.34661-0.569375 1.45502-0.53699 1.59396-0.53699 1.76668-0.53699 1.91169-0.598943 2.0295-0.722855 2.14825-0.846757 2.20787-1.00165 2.20787-1.18845L2.20787-1.29358ZM3.13348-1.64089 3.13348-7.20921e-05 2.20793-7.20921e-05 2.20793-0.426244C2.08403-0.252118 1.94509-0.124924 1.79114-0.0451296 1.63719 0.0346643 1.44993 0.0750238 1.22979 0.0750238 0.931754 0.0750238 0.689573-0.0118063 0.503239-0.185937 0.317842-0.359595 0.225384-0.584883 0.225384-0.861801 0.225384-1.19973 0.340844-1.44661 0.572699-1.60338 0.805497-1.76108 1.16972-1.83993 1.66535-1.83993L2.20792-1.83993 2.20792-1.91316C2.20792-2.05818 2.15018-2.16473 2.03519-2.23231 1.92115-2.29989 1.74232-2.33368 1.49825-2.33368 1.3016-2.33368 1.11903-2.31351 0.950053-2.2736 0.781094-2.23465 0.62338-2.17598 0.476949-2.09712L0.476949-2.79739C0.674541-2.84621 0.872146-2.88235 1.07021-2.90628 1.2692-2.93116 1.46728-2.94383 1.66534-2.94383 2.18444-2.94383 2.55898-2.84104 2.78803-2.63594 3.01801-2.43177 3.13347-2.09995 3.13347-1.64092Z" transform="matrix(1.02751 0 0 1 303.877 163.056)"/><path d="M1.44557-3.69099 1.44557-2.87432 2.39177-2.87432 2.39177-2.21723 1.44557-2.21723 1.44557-0.998751C1.44557-0.864516 1.47186-0.773932 1.52442-0.726532 1.57699-0.680066 1.68212-0.657069 1.83983-0.657069L2.31293-0.657069 2.31293 2.64338e-05 1.52442 2.64338e-05C1.16114 2.64338e-05 0.903932-0.0755393 0.752803-0.227136 0.601206-0.378265 0.525641-0.635465 0.525641-0.998749L0.525641-2.21723 0.0694307-2.21723 0.0694307-2.87432 0.525641-2.87432 0.525641-3.69099Z" transform="matrix(1.02751 0 0 1 307.522 163.056)"/><path d="M3.31167-1.44557 3.31167-1.18273 1.162-1.18273C1.18453-0.967295 1.26197-0.805845 1.3948-0.698368 1.52857-0.590417 1.71584-0.536906 1.95615-0.536906 2.14858-0.536906 2.34664-0.565067 2.5494-0.621388 2.75216-0.678648 2.96056-0.765945 3.17457-0.882349L3.17457-0.174573C2.95773-0.0919679 2.74089-0.0300167 2.52311 0.011292 2.30534 0.0535332 2.08803 0.0751235 1.87165 0.0751235 1.35068 0.0751235 0.9461-0.0567689 0.657023-0.32101 0.368847-0.586189 0.225216-0.957451 0.225216-1.43431 0.225216-1.90365 0.366492-2.2721 0.649501-2.54009 0.93346-2.80903 1.32349-2.94374 1.81912-2.94374 2.27064-2.94374 2.6325-2.80716 2.90425-2.53447 3.17554-2.26272 3.31165-1.89991 3.31165-1.44558ZM2.36734-1.7497C2.36734-1.92476 2.31571-2.06557 2.21339-2.17211 2.11202-2.27959 1.97919-2.33357 1.81539-2.33357 1.63609-2.33357 1.49107-2.28335 1.37983-2.18338 1.26953-2.08294 1.20054-1.93838 1.17331-1.7497Z" transform="matrix(1.02751 0 0 1 310.104 163.056)"/><path d="M2.39742-2.45377 2.39742-3.99318 3.3211-3.99318 3.3211 0 2.39742 0 2.39742-0.414902C2.2707-0.245942 2.13131-0.122028 1.97876-0.0431711 1.82576 0.0356796 1.64927 0.0751055 1.44934 0.0751055 1.09498 0.0751055 0.803983-0.0657023 0.576352-0.347306 0.349659-0.628922 0.236546-0.991256 0.236546-1.43432 0.236546-1.87739 0.34966-2.23972 0.576352-2.52134 0.803983-2.80295 1.09498-2.94375 1.44934-2.94375 1.64834-2.94375 1.82388-2.90339 1.97688-2.82359 2.13083-2.74475 2.2707-2.6213 2.39742-2.45375ZM1.79102-0.593318C1.98861-0.593318 2.1388-0.665129 2.24159-0.809221 2.34532-0.952841 2.39742-1.16123 2.39742-1.43439 2.39742-1.70849 2.34532-1.91735 2.24159-2.06145 2.1388-2.20507 1.98861-2.27735 1.79102-2.27735 1.59577-2.27735 1.44605-2.20507 1.34232-2.06145 1.23953-1.91736 1.18838-1.7085 1.18838-1.43439 1.18838-1.16123 1.23954-0.952841 1.34232-0.809221 1.44605-0.665133 1.59577-0.593318 1.79102-0.593318Z" transform="matrix(1.02751 0 0 1 313.767 163.056)"/><path d="M1.97124-0.593258C2.16742-0.593258 2.31762-0.665069 2.42181-0.809161 2.52554-0.952781 2.57764-1.16117 2.57764-1.43433 2.57764-1.70843 2.52554-1.91729 2.42181-2.06139 2.31762-2.20501 2.16742-2.27729 1.97124-2.27729 1.77458-2.27729 1.62392-2.20454 1.51879-2.05951 1.41365-1.91543 1.36109-1.70703 1.36109-1.43434 1.36109-1.16259 1.41365-0.954199 1.51879-0.809173 1.62392-0.665085 1.77458-0.59327 1.97124-0.59327ZM1.36109-2.45371C1.48734-2.62127 1.62768-2.74471 1.78162-2.82356 1.93556-2.90335 2.11251-2.94371 2.31293-2.94371 2.66682-2.94371 2.95782-2.8029 3.18592-2.5213 3.41355-2.23968 3.52761-1.87735 3.52761-1.43428 3.52761-0.991218 3.41356-0.628883 3.18592-0.347267 2.95782-0.0656518 2.66682 0.075144 2.31293 0.075144 2.11251 0.075144 1.93558 0.0347796 1.78162-0.0450095 1.62767-0.124799 1.48734-0.248237 1.36109-0.414854L1.36109 4.80614e-05 0.441167 4.80614e-05 0.441167-3.99313 1.36109-3.99313Z" transform="matrix(1.02751 0 0 1 319.514 163.056)"/><path d="M0.0638315-2.87431 0.98375-2.87431 1.75537-0.92374 2.41245-2.87431 3.33238-2.87431 2.12339 0.272268C2.00184 0.592368 1.85961 0.81577 1.69723 0.942496 1.53575 1.07016 1.3222 1.134 1.05703 1.134L0.525725 1.134 0.525725 0.531355 0.812964 0.531355C0.96926 0.531355 1.08237 0.506009 1.15277 0.456259 1.22411 0.407446 1.2795 0.318274 1.31985 0.189662L1.34426 0.110812Z" transform="matrix(1.02751 0 0 1 323.38 163.056)"/><path d="M0.155827-3.83181 1.10391-3.83181 1.76663-1.04762 2.42372-3.83181 3.37557-3.83181 4.03266-1.04762 4.69538-3.83181 5.63408-3.83181 4.73105 0 3.59147 0 2.89495-2.91372 2.20782 0 1.06824 0Z" transform="matrix(1.02751 0 0 1 328.782 163.056)"/><path d="M1.72913-1.29357C1.53763-1.29357 1.39354-1.26072 1.29732-1.19595 1.20063-1.13071 1.15276-1.03497 1.15276-0.908708 1.15276-0.79231 1.19125-0.700783 1.26916-0.634614 1.34661-0.569375 1.45502-0.53699 1.59396-0.53699 1.76668-0.53699 1.91169-0.598943 2.0295-0.722855 2.14825-0.846757 2.20787-1.00165 2.20787-1.18845L2.20787-1.29358ZM3.13348-1.64089 3.13348-7.20921e-05 2.20793-7.20921e-05 2.20793-0.426244C2.08403-0.252118 1.94509-0.124924 1.79114-0.0451296 1.63719 0.0346643 1.44993 0.0750238 1.22979 0.0750238 0.931754 0.0750238 0.689573-0.0118063 0.503239-0.185937 0.317842-0.359595 0.225384-0.584883 0.225384-0.861801 0.225384-1.19973 0.340844-1.44661 0.572699-1.60338 0.805497-1.76108 1.16972-1.83993 1.66535-1.83993L2.20792-1.83993 2.20792-1.91316C2.20792-2.05818 2.15018-2.16473 2.03519-2.23231 1.92115-2.29989 1.74232-2.33368 1.49825-2.33368 1.3016-2.33368 1.11903-2.31351 0.950053-2.2736 0.781094-2.23465 0.62338-2.17598 0.476949-2.09712L0.476949-2.79739C0.674541-2.84621 0.872146-2.88235 1.07021-2.90628 1.2692-2.93116 1.46728-2.94383 1.66534-2.94383 2.18444-2.94383 2.55898-2.84104 2.78803-2.63594 3.01801-2.43177 3.13347-2.09995 3.13347-1.64092Z" transform="matrix(1.02751 0 0 1 334.74 163.056)"/><path d="M3.33234-1.74967 3.33234 0 2.40678 0 2.40678-1.33478C2.40678-1.58636 2.40115-1.75907 2.38989-1.85295 2.37955-1.94681 2.36079-2.01628 2.33356-2.06134 2.29695-2.12142 2.24814-2.16741 2.18712-2.20026 2.12563-2.23405 2.05569-2.25095 1.97685-2.25095 1.78535-2.25095 1.63422-2.1768 1.5244-2.02942 1.41552-1.88157 1.36106-1.67646 1.36106-1.41363L1.36106 9.85258e-05 0.441147 9.85258e-05 0.441147-3.99308 1.36106-3.99308 1.36106-2.45368C1.49858-2.62123 1.64502-2.74468 1.80037-2.82352 1.95666-2.9033 2.12938-2.94368 2.31853-2.94368 2.64989-2.94368 2.90147-2.84135 3.07324-2.63766 3.24596-2.4349 3.33231-2.13874 3.33231-1.74965Z" transform="matrix(1.02751 0 0 1 338.384 163.056)"/><path d="M0.0638315-2.87431 0.98375-2.87431 1.75537-0.92374 2.41245-2.87431 3.33238-2.87431 2.12339 0.272268C2.00184 0.592368 1.85961 0.81577 1.69723 0.942496 1.53575 1.07016 1.3222 1.134 1.05703 1.134L0.525725 1.134 0.525725 0.531355 0.812964 0.531355C0.96926 0.531355 1.08237 0.506009 1.15277 0.456259 1.22411 0.407446 1.2795 0.318274 1.31985 0.189662L1.34426 0.110812Z" transform="matrix(1.02751 0 0 1 342.23 163.056)"/><path d="M0.411153-1.11893 0.411153-2.87425 1.33483-2.87425 1.33483-2.58701C1.33483-2.43165 1.33343-2.2364 1.33107-2.00126 1.32967-1.76565 1.3292-1.60889 1.3292-1.53003 1.3292-1.29817 1.33483-1.13203 1.34609-1.03065 1.3583-0.929273 1.37989-0.85512 1.40993-0.809113 1.44748-0.749037 1.49628-0.702571 1.55637-0.670192 1.61739-0.637337 1.6878-0.621379 1.76664-0.621379 1.95814-0.621379 2.10833-0.694599 2.21722-0.841032 2.32705-0.988412 2.38243-1.19305 2.38243-1.45494L2.38243-2.87419 3.30047-2.87419 3.30047 0.000114146 2.38243 0.000114146 2.38243-0.414788C2.24351-0.248171 2.09612-0.124725 1.94124-0.0449434 1.78729 0.0348457 1.61692 0.07521 1.43058 0.07521 1.09735 0.07521 0.843898-0.0266392 0.67024-0.230809 0.497519-0.434505 0.411164-0.730671 0.411164-1.11881Z" transform="matrix(1.02751 0 0 1 345.75 163.056)"/><path d="M0.482488-3.83181 1.47001-3.83181 1.47001-1.5358C1.47001-1.21899 1.52164-0.992299 1.62583-0.856189 1.72956-0.719611 1.89852-0.651556 2.13274-0.651556 2.36929-0.651556 2.53872-0.719612 2.64151-0.856189 2.74524-0.992299 2.79734-1.21899 2.79734-1.5358L2.79734-3.83181 3.78673-3.83181 3.78673-1.5358C3.78673-0.992299 3.65015-0.588187 3.37747-0.322972 3.10571-0.0573252 2.69081 0.0750358 2.1328 0.0750358 1.57709 0.0750358 1.16265-0.0573252 0.889928-0.322972 0.618177-0.588151 0.482536-0.992263 0.482536-1.5358Z" transform="matrix(1.02751 0 0 1 351.476 163.056)"/><path d="M3.33234-1.74967 3.33234 0 2.40678 0 2.40678-1.34043C2.40678-1.58825 2.40115-1.75909 2.38989-1.85296 2.37955-1.94683 2.36079-2.01629 2.33356-2.06135 2.29695-2.12143 2.24814-2.16742 2.18712-2.20027 2.12563-2.23407 2.05569-2.25097 1.97685-2.25097 1.78535-2.25097 1.63422-2.17681 1.5244-2.02943 1.41552-1.88158 1.36106-1.67648 1.36106-1.41364L1.36106 8.65105e-05 0.441147 8.65105e-05 0.441147-2.87423 1.36106-2.87423 1.36106-2.45369C1.49858-2.62124 1.64502-2.74469 1.80037-2.82353 1.95666-2.90332 2.12938-2.94369 2.31853-2.94369 2.64989-2.94369 2.90147-2.84136 3.07324-2.63767 3.24596-2.43491 3.33231-2.13876 3.33231-1.74966Z" transform="matrix(1.02751 0 0 1 355.863 163.056)"/><path d="M2.39742-0.488123C2.2707-0.320101 2.13131-0.197124 1.97876-0.118279 1.82576-0.0394284 1.64927-2.40307e-06 1.44934-2.40307e-06 1.09873-2.40307e-06 0.809149-0.137987 0.580101-0.414904 0.351064-0.691353 0.236534-1.0429 0.236534-1.46999 0.236534-1.90038 0.351055-2.25287 0.580101-2.52697 0.809147-2.80108 1.09873-2.93812 1.44934-2.93812 1.64929-2.93812 1.82576-2.8987 1.97876-2.81985 2.13129-2.74194 2.2707-2.61802 2.39742-2.44811L2.39742-2.87429 3.3211-2.87429 3.3211-0.28907C3.3211 0.172776 3.17514 0.524777 2.88367 0.767908 2.59173 1.01196 2.16885 1.134 1.61461 1.134 1.43438 1.134 1.26025 1.11992 1.09269 1.0927 0.924665 1.06642 0.75663 1.02418 0.58767 0.966912L0.58767 0.251627C0.749133 0.344088 0.906822 0.413089 1.06077 0.458146 1.21473 0.503204 1.36914 0.525733 1.52449 0.525733 1.82582 0.525733 2.04689 0.460023 2.18721 0.328609 2.32708 0.197185 2.39748-0.00838551 2.39748-0.289052ZM1.79102-2.27733C1.60187-2.27733 1.45402-2.20646 1.34795-2.06519 1.24141-1.92485 1.18838-1.72632 1.18838-1.47005 1.18838-1.20722 1.23954-1.00727 1.34232-0.871161 1.44464-0.734582 1.59436-0.666527 1.79102-0.666527 1.98252-0.666527 2.13129-0.73646 2.23785-0.876796 2.34392-1.01807 2.39742-1.21566 2.39742-1.47005 2.39742-1.72632 2.34392-1.92486 2.23785-2.06519 2.13131-2.20646 1.98252-2.27733 1.79102-2.27733Z" transform="matrix(1.02751 0 0 1 359.708 163.056)"/><path d="M2.39742-0.488123C2.2707-0.320101 2.13131-0.197124 1.97876-0.118279 1.82576-0.0394284 1.64927-2.40307e-06 1.44934-2.40307e-06 1.09873-2.40307e-06 0.809149-0.137987 0.580101-0.414904 0.351064-0.691353 0.236534-1.0429 0.236534-1.46999 0.236534-1.90038 0.351055-2.25287 0.580101-2.52697 0.809147-2.80108 1.09873-2.93812 1.44934-2.93812 1.64929-2.93812 1.82576-2.8987 1.97876-2.81985 2.13129-2.74194 2.2707-2.61802 2.39742-2.44811L2.39742-2.87429 3.3211-2.87429 3.3211-0.28907C3.3211 0.172776 3.17514 0.524777 2.88367 0.767908 2.59173 1.01196 2.16885 1.134 1.61461 1.134 1.43438 1.134 1.26025 1.11992 1.09269 1.0927 0.924665 1.06642 0.75663 1.02418 0.58767 0.966912L0.58767 0.251627C0.749133 0.344088 0.906822 0.413089 1.06077 0.458146 1.21473 0.503204 1.36914 0.525733 1.52449 0.525733 1.82582 0.525733 2.04689 0.460023 2.18721 0.328609 2.32708 0.197185 2.39748-0.00838551 2.39748-0.289052ZM1.79102-2.27733C1.60187-2.27733 1.45402-2.20646 1.34795-2.06519 1.24141-1.92485 1.18838-1.72632 1.18838-1.47005 1.18838-1.20722 1.23954-1.00727 1.34232-0.871161 1.44464-0.734582 1.59436-0.666527 1.79102-0.666527 1.98252-0.666527 2.13129-0.73646 2.23785-0.876796 2.34392-1.01807 2.39742-1.21566 2.39742-1.47005 2.39742-1.72632 2.34392-1.92486 2.23785-2.06519 2.13131-2.20646 1.98252-2.27733 1.79102-2.27733Z" transform="matrix(1.02751 0 0 1 363.574 163.056)"/><path d="M0.411153-1.11893 0.411153-2.87425 1.33483-2.87425 1.33483-2.58701C1.33483-2.43165 1.33343-2.2364 1.33107-2.00126 1.32967-1.76565 1.3292-1.60889 1.3292-1.53003 1.3292-1.29817 1.33483-1.13203 1.34609-1.03065 1.3583-0.929273 1.37989-0.85512 1.40993-0.809113 1.44748-0.749037 1.49628-0.702571 1.55637-0.670192 1.61739-0.637337 1.6878-0.621379 1.76664-0.621379 1.95814-0.621379 2.10833-0.694599 2.21722-0.841032 2.32705-0.988412 2.38243-1.19305 2.38243-1.45494L2.38243-2.87419 3.30047-2.87419 3.30047 0.000114146 2.38243 0.000114146 2.38243-0.414788C2.24351-0.248171 2.09612-0.124725 1.94124-0.0449434 1.78729 0.0348457 1.61692 0.07521 1.43058 0.07521 1.09735 0.07521 0.843898-0.0266392 0.67024-0.230809 0.497519-0.434505 0.411164-0.730671 0.411164-1.11881Z" transform="matrix(1.02751 0 0 1 367.44 163.056)"/></g></svg>