<?xml version="1.0" encoding="UTF-8"?>
<svg width="700pt" height="700pt" version="1.1" viewBox="0 0 700 700" xmlns="http://www.w3.org/2000/svg" xmlns:xlink="http://www.w3.org/1999/xlink">
 <defs>
  <symbol id="v" overflow="visible">
   <path d="m18.844-1.125c-0.96875 0.5-1.9805 0.875-3.0312 1.125-1.0547 0.25781-2.1523 0.39062-3.2969 0.39062-3.418 0-6.125-0.95312-8.125-2.8594-1.9922-1.9062-2.9844-4.4922-2.9844-7.7656 0-3.2695 0.99219-5.8594 2.9844-7.7656 2-1.9141 4.707-2.875 8.125-2.875 1.1445 0 2.2422 0.13281 3.2969 0.39062 1.0508 0.25 2.0625 0.63281 3.0312 1.1406v4.2344c-0.98047-0.66406-1.9492-1.1562-2.9062-1.4688-0.94922-0.3125-1.9492-0.46875-3-0.46875-1.8867 0-3.3711 0.60547-4.4531 1.8125-1.0859 1.2109-1.625 2.875-1.625 5 0 2.1172 0.53906 3.7773 1.625 4.9844 1.082 1.2109 2.5664 1.8125 4.4531 1.8125 1.0508 0 2.0508-0.14844 3-0.45312 0.95703-0.3125 1.9258-0.80469 2.9062-1.4844z"/>
  </symbol>
  <symbol id="a" overflow="visible">
   <path d="m13.781-11.188c-0.42969-0.20703-0.85547-0.35938-1.2812-0.45312-0.42969-0.09375-0.85547-0.14062-1.2812-0.14062-1.2617 0-2.2344 0.40625-2.9219 1.2188-0.67969 0.80469-1.0156 1.9609-1.0156 3.4688v7.0938h-4.9219v-15.375h4.9219v2.5156c0.625-1 1.3477-1.7266 2.1719-2.1875 0.82031-0.46875 1.8047-0.70312 2.9531-0.70312 0.15625 0 0.32812 0.011719 0.51562 0.03125 0.19531 0.011719 0.48438 0.039062 0.85938 0.078125z"/>
  </symbol>
  <symbol id="b" overflow="visible">
   <path d="m17.719-7.7344v1.4062h-11.5c0.125 1.1562 0.53906 2.0234 1.25 2.5938 0.71875 0.57422 1.7188 0.85938 3 0.85938 1.0312 0 2.0859-0.14844 3.1719-0.45312 1.082-0.3125 2.1953-0.77344 3.3438-1.3906v3.7812c-1.1562 0.4375-2.3203 0.76562-3.4844 0.98438-1.168 0.22656-2.3281 0.34375-3.4844 0.34375-2.7812 0-4.9492-0.70312-6.5-2.1094-1.543-1.4141-2.3125-3.3984-2.3125-5.9531 0-2.5078 0.75391-4.4844 2.2656-5.9219 1.5195-1.4375 3.6094-2.1562 6.2656-2.1562 2.4141 0 4.3477 0.73047 5.7969 2.1875 1.457 1.4492 2.1875 3.3906 2.1875 5.8281zm-5.0625-1.625c0-0.9375-0.27344-1.6914-0.8125-2.2656-0.54297-0.57031-1.2578-0.85938-2.1406-0.85938-0.94922 0-1.7188 0.27344-2.3125 0.8125-0.59375 0.53125-0.96484 1.3047-1.1094 2.3125z"/>
  </symbol>
  <symbol id="e" overflow="visible">
   <path d="m9.25-6.9219c-1.0234 0-1.793 0.17969-2.3125 0.53125-0.51172 0.34375-0.76562 0.85547-0.76562 1.5312 0 0.625 0.20703 1.1172 0.625 1.4688 0.41406 0.34375 0.99219 0.51562 1.7344 0.51562 0.92578 0 1.7031-0.32812 2.3281-0.98438 0.63281-0.66406 0.95312-1.5 0.95312-2.5v-0.5625zm7.5156-1.8594v8.7812h-4.9531v-2.2812c-0.65625 0.9375-1.4023 1.6211-2.2344 2.0469-0.82422 0.41406-1.8242 0.625-3 0.625-1.5938 0-2.8906-0.46094-3.8906-1.3906-0.99219-0.92578-1.4844-2.1289-1.4844-3.6094 0-1.8008 0.61719-3.125 1.8594-3.9688 1.25-0.84375 3.1953-1.2656 5.8438-1.2656h2.9062v-0.39062c0-0.76953-0.30859-1.3359-0.92188-1.7031-0.61719-0.36328-1.5742-0.54688-2.875-0.54688-1.0547 0-2.0312 0.10938-2.9375 0.32812-0.90625 0.21094-1.75 0.52344-2.5312 0.9375v-3.75c1.0625-0.25781 2.1172-0.45312 3.1719-0.57812 1.0625-0.13281 2.125-0.20312 3.1875-0.20312 2.7812 0 4.7852 0.54688 6.0156 1.6406 1.2266 1.0938 1.8438 2.8711 1.8438 5.3281z"/>
  </symbol>
  <symbol id="d" overflow="visible">
   <path d="m7.7344-19.75v4.375h5.0625v3.5156h-5.0625v6.5156c0 0.71875 0.14062 1.2031 0.42188 1.4531s0.84375 0.375 1.6875 0.375h2.5312v3.5156h-4.2188c-1.9375 0-3.3125-0.40625-4.125-1.2188s-1.2188-2.1875-1.2188-4.125v-6.5156h-2.4375v-3.5156h2.4375v-4.375z"/>
  </symbol>
  <symbol id="n" overflow="visible">
   <path d="m12.828-13.125v-8.25h4.9375v21.375h-4.9375v-2.2188c-0.67969 0.90625-1.4297 1.5703-2.25 1.9844-0.8125 0.41406-1.75 0.625-2.8125 0.625-1.8984 0-3.4531-0.75-4.6719-2.25-1.2188-1.5078-1.8281-3.4453-1.8281-5.8125 0-2.375 0.60938-4.3125 1.8281-5.8125 1.2188-1.5078 2.7734-2.2656 4.6719-2.2656 1.0625 0 2 0.21484 2.8125 0.64062 0.82031 0.42969 1.5703 1.0898 2.25 1.9844zm-3.25 9.9531c1.0625 0 1.8672-0.38281 2.4219-1.1562 0.55078-0.76953 0.82812-1.8828 0.82812-3.3438 0-1.4688-0.27734-2.5859-0.82812-3.3594-0.55469-0.76953-1.3594-1.1562-2.4219-1.1562-1.043 0-1.8398 0.38672-2.3906 1.1562-0.55469 0.77344-0.82812 1.8906-0.82812 3.3594 0 1.4609 0.27344 2.5742 0.82812 3.3438 0.55078 0.77344 1.3477 1.1562 2.3906 1.1562z"/>
  </symbol>
  <symbol id="m" overflow="visible">
   <path d="m10.547-3.1719c1.0508 0 1.8516-0.38281 2.4062-1.1562 0.55078-0.76953 0.82812-1.8828 0.82812-3.3438 0-1.4688-0.27734-2.5859-0.82812-3.3594-0.55469-0.76953-1.3555-1.1562-2.4062-1.1562-1.0547 0-1.8594 0.39062-2.4219 1.1719-0.5625 0.77344-0.84375 1.8867-0.84375 3.3438 0 1.4492 0.28125 2.5625 0.84375 3.3438 0.5625 0.77344 1.3672 1.1562 2.4219 1.1562zm-3.2656-9.9531c0.67578-0.89453 1.4258-1.5547 2.25-1.9844 0.82031-0.42578 1.7695-0.64062 2.8438-0.64062 1.8945 0 3.4531 0.75781 4.6719 2.2656 1.2188 1.5 1.8281 3.4375 1.8281 5.8125 0 2.3672-0.60938 4.3047-1.8281 5.8125-1.2188 1.5-2.7773 2.25-4.6719 2.25-1.0742 0-2.0234-0.21094-2.8438-0.625-0.82422-0.42578-1.5742-1.0859-2.25-1.9844v2.2188h-4.9219v-21.375h4.9219z"/>
  </symbol>
  <symbol id="l" overflow="visible">
   <path d="m0.34375-15.375h4.9219l4.125 10.438 3.5156-10.438h4.9219l-6.4688 16.828c-0.65625 1.7188-1.418 2.9141-2.2812 3.5938-0.86719 0.67578-2.0078 1.0156-3.4219 1.0156h-2.8438v-3.2188h1.5469c0.83203 0 1.4375-0.13672 1.8125-0.40625 0.38281-0.26172 0.67969-0.73438 0.89062-1.4219l0.14062-0.42188z"/>
  </symbol>
  <symbol id="k" overflow="visible">
   <path d="m10.797-12.562c0.83203 0 1.4609-0.17969 1.8906-0.54688 0.42578-0.375 0.64062-0.91406 0.64062-1.625 0-0.70703-0.21484-1.2422-0.64062-1.6094-0.42969-0.375-1.0586-0.5625-1.8906-0.5625h-2.9219v4.3438zm0.17188 8.9688c1.0625 0 1.8594-0.22266 2.3906-0.67188 0.53906-0.44531 0.8125-1.125 0.8125-2.0312 0-0.89453-0.26562-1.5625-0.79688-2-0.53125-0.44531-1.3359-0.67188-2.4062-0.67188h-3.0938v5.375zm4.9219-7.375c1.1328 0.32422 2.0078 0.93359 2.625 1.8281 0.625 0.88672 0.9375 1.9766 0.9375 3.2656 0 1.9805-0.66797 3.4531-2 4.4219-1.3359 0.96875-3.3672 1.4531-6.0938 1.4531h-8.7812v-20.5h7.9375c2.8516 0 4.9141 0.43359 6.1875 1.2969 1.2812 0.85547 1.9219 2.2305 1.9219 4.125 0 1-0.23438 1.8516-0.70312 2.5469-0.46875 0.69922-1.1484 1.2188-2.0312 1.5625z"/>
  </symbol>
  <symbol id="j" overflow="visible">
   <path d="m2.3594-15.375h4.9219v15.375h-4.9219zm0-6h4.9219v4.0156h-4.9219z"/>
  </symbol>
  <symbol id="i" overflow="visible">
   <path d="m17.828-9.3594v9.3594h-4.9531v-7.1719c0-1.3203-0.03125-2.2344-0.09375-2.7344-0.054688-0.50781-0.15234-0.88281-0.29688-1.125-0.19922-0.32031-0.46484-0.57031-0.79688-0.75-0.32422-0.17578-0.69531-0.26562-1.1094-0.26562-1.0312 0-1.8398 0.39844-2.4219 1.1875-0.58594 0.79297-0.875 1.8906-0.875 3.2969v7.5625h-4.9219v-15.375h4.9219v2.25c0.73828-0.89453 1.5234-1.5547 2.3594-1.9844 0.83203-0.42578 1.7539-0.64062 2.7656-0.64062 1.7695 0 3.1133 0.54688 4.0312 1.6406 0.92578 1.0859 1.3906 2.668 1.3906 4.75z"/>
  </symbol>
  <symbol id="u" overflow="visible">
   <path d="m0.14062-20.5h18.891v4h-6.7969v16.5h-5.2812v-16.5h-6.8125z"/>
  </symbol>
  <symbol id="h" overflow="visible">
   <path d="m2.2031-5.9844v-9.3906h4.9375v1.5312c0 0.83594-0.007813 1.8828-0.015625 3.1406-0.011719 1.2617-0.015625 2.1016-0.015625 2.5156 0 1.2422 0.03125 2.1328 0.09375 2.6719 0.070313 0.54297 0.1875 0.9375 0.34375 1.1875 0.19531 0.32422 0.45703 0.57422 0.78125 0.75 0.32031 0.16797 0.69531 0.25 1.125 0.25 1.0195 0 1.8203-0.39062 2.4062-1.1719 0.59375-0.78906 0.89062-1.8828 0.89062-3.2812v-7.5938h4.9062v15.375h-4.9062v-2.2188c-0.75 0.89844-1.543 1.5586-2.375 1.9844-0.82422 0.41406-1.7305 0.625-2.7188 0.625-1.7812 0-3.1367-0.53906-4.0625-1.625-0.92969-1.0938-1.3906-2.6758-1.3906-4.75z"/>
  </symbol>
  <symbol id="g" overflow="visible">
   <path d="m2.3594-15.375h4.9219v15.094c0 2.0625-0.49609 3.6328-1.4844 4.7188-0.99219 1.082-2.4219 1.625-4.2969 1.625h-2.4375v-3.2188h0.85938c0.92578 0 1.5625-0.21484 1.9062-0.64062 0.35156-0.41797 0.53125-1.2461 0.53125-2.4844zm0-6h4.9219v4.0156h-4.9219z"/>
  </symbol>
  <symbol id="f" overflow="visible">
   <path d="m2.3594-21.375h4.9219v21.375h-4.9219z"/>
  </symbol>
  <symbol id="c" overflow="visible">
   <path d="m9.6875-12.234c-1.0938 0-1.9297 0.39062-2.5 1.1719-0.57422 0.78125-0.85938 1.9141-0.85938 3.3906 0 1.4688 0.28516 2.5938 0.85938 3.375 0.57031 0.78125 1.4062 1.1719 2.5 1.1719 1.0625 0 1.875-0.39062 2.4375-1.1719 0.57031-0.78125 0.85938-1.9062 0.85938-3.375 0-1.4766-0.28906-2.6094-0.85938-3.3906-0.5625-0.78125-1.375-1.1719-2.4375-1.1719zm0-3.5156c2.6445 0 4.707 0.71484 6.1875 2.1406 1.4883 1.4297 2.2344 3.4062 2.2344 5.9375 0 2.5234-0.74609 4.4961-2.2344 5.9219-1.4805 1.4297-3.543 2.1406-6.1875 2.1406-2.6562 0-4.7344-0.71094-6.2344-2.1406-1.5-1.4258-2.25-3.3984-2.25-5.9219 0-2.5312 0.75-4.5078 2.25-5.9375 1.5-1.4258 3.5781-2.1406 6.2344-2.1406z"/>
  </symbol>
  <symbol id="t" overflow="visible">
   <path d="m12.484-21.375v3.2344h-2.7188c-0.69922 0-1.1875 0.125-1.4688 0.375-0.27344 0.25-0.40625 0.6875-0.40625 1.3125v1.0781h4.2031v3.5156h-4.2031v11.859h-4.9062v-11.859h-2.4531v-3.5156h2.4531v-1.0781c0-1.6758 0.46094-2.9141 1.3906-3.7188 0.9375-0.80078 2.3828-1.2031 4.3438-1.2031z"/>
  </symbol>
  <symbol id="s" overflow="visible">
   <path d="m16.609-12.828c0.625-0.94531 1.3633-1.6719 2.2188-2.1719 0.86328-0.5 1.8047-0.75 2.8281-0.75 1.7695 0 3.1133 0.54688 4.0312 1.6406 0.92578 1.0859 1.3906 2.668 1.3906 4.75v9.3594h-4.9375v-8.0156c0.007813-0.125 0.015625-0.25 0.015625-0.375 0.007812-0.125 0.015625-0.30469 0.015625-0.54688 0-1.0938-0.16406-1.8828-0.48438-2.375-0.32422-0.48828-0.84375-0.73438-1.5625-0.73438-0.92969 0-1.6484 0.38672-2.1562 1.1562-0.51172 0.77344-0.77344 1.8867-0.78125 3.3438v7.5469h-4.9531v-8.0156c0-1.707-0.14844-2.8047-0.4375-3.2969-0.29297-0.48828-0.8125-0.73438-1.5625-0.73438-0.94922 0-1.6797 0.39062-2.1875 1.1719-0.51172 0.77344-0.76562 1.875-0.76562 3.3125v7.5625h-4.9531v-15.375h4.9531v2.25c0.60156-0.875 1.2969-1.5312 2.0781-1.9688s1.6445-0.65625 2.5938-0.65625c1.0625 0 2 0.25781 2.8125 0.76562 0.8125 0.51172 1.4258 1.2305 1.8438 2.1562z"/>
  </symbol>
  <symbol id="r" overflow="visible">
   <path d="m17.828-9.3594v9.3594h-4.9531v-7.1406c0-1.3438-0.03125-2.2656-0.09375-2.7656-0.054688-0.50781-0.15234-0.88281-0.29688-1.125-0.19922-0.32031-0.46484-0.57031-0.79688-0.75-0.32422-0.17578-0.69531-0.26562-1.1094-0.26562-1.0312 0-1.8398 0.39844-2.4219 1.1875-0.58594 0.79297-0.875 1.8906-0.875 3.2969v7.5625h-4.9219v-21.375h4.9219v8.25c0.73828-0.89453 1.5234-1.5547 2.3594-1.9844 0.83203-0.42578 1.7539-0.64062 2.7656-0.64062 1.7695 0 3.1133 0.54688 4.0312 1.6406 0.92578 1.0859 1.3906 2.668 1.3906 4.75z"/>
  </symbol>
  <symbol id="q" overflow="visible">
   <path d="m2.5781-20.5h5.9062l7.4531 14.062v-14.062h5.0156v20.5h-5.9062l-7.4531-14.062v14.062h-5.0156z"/>
  </symbol>
  <symbol id="p" overflow="visible">
   <path d="m2.5781-20.5h8.7812c2.6016 0 4.6016 0.57812 6 1.7344 1.3945 1.1562 2.0938 2.8086 2.0938 4.9531 0 2.1484-0.69922 3.8047-2.0938 4.9688-1.3984 1.1562-3.3984 1.7344-6 1.7344h-3.4844v7.1094h-5.2969zm5.2969 3.8281v5.7344h2.9219c1.0195 0 1.8047-0.25 2.3594-0.75 0.5625-0.5 0.84375-1.207 0.84375-2.125 0-0.91406-0.28125-1.6172-0.84375-2.1094-0.55469-0.5-1.3398-0.75-2.3594-0.75z"/>
  </symbol>
  <symbol id="o" overflow="visible">
   <path d="m14.797-14.906v4.0156c-0.67969-0.45703-1.3555-0.79688-2.0312-1.0156-0.66797-0.21875-1.3594-0.32812-2.0781-0.32812-1.375 0-2.4492 0.40234-3.2188 1.2031-0.76172 0.80469-1.1406 1.9219-1.1406 3.3594s0.37891 2.5586 1.1406 3.3594c0.76953 0.79297 1.8438 1.1875 3.2188 1.1875 0.76953 0 1.5-0.10938 2.1875-0.32812 0.6875-0.22656 1.3281-0.57031 1.9219-1.0312v4.0312c-0.77344 0.28125-1.5547 0.48828-2.3438 0.625-0.79297 0.14453-1.5898 0.21875-2.3906 0.21875-2.7734 0-4.9453-0.70703-6.5156-2.125-1.5625-1.4258-2.3438-3.4062-2.3438-5.9375 0-2.5391 0.78125-4.5195 2.3438-5.9375 1.5703-1.4258 3.7422-2.1406 6.5156-2.1406 0.8125 0 1.6094 0.074219 2.3906 0.21875 0.78125 0.13672 1.5625 0.34375 2.3438 0.625z"/>
  </symbol>
 </defs>
 <g>
  <path d="m231.38 89.996h-110.02c-7.9375 0-15.551 3.1523-21.16 8.7656-5.6133 5.6094-8.7656 13.223-8.7656 21.156v328.94h169.81v-328.88c0.015624-7.9375-3.125-15.555-8.7266-21.176-5.6016-5.6211-13.207-8.7891-21.141-8.8047zm25.707 354.36h-161.43v-324.38c0-6.8164 2.707-13.355 7.5273-18.176 4.8242-4.8203 11.359-7.5312 18.18-7.5312h110.02c6.8164 0 13.355 2.7109 18.176 7.5312 4.8203 4.8203 7.5273 11.359 7.5273 18.176z"/>
  <path d="m583.26 89.996h-110.02c-7.9375 0-15.547 3.1523-21.16 8.7656-5.6094 5.6094-8.7617 13.223-8.7617 21.156v328.94h169.87v-328.88c0.011718-7.9453-3.1328-15.574-8.7461-21.195-5.6133-5.625-13.234-8.7852-21.18-8.7852zm25.707 354.36h-161.38v-324.38c0-6.8164 2.707-13.355 7.5273-18.176 4.8203-4.8203 11.359-7.5312 18.176-7.5312h109.96c6.8164 0 13.355 2.7109 18.176 7.5312 4.8203 4.8203 7.5312 11.359 7.5312 18.176z"/>
  <path d="m407.48 249.62h-110.19c-7.9375 0-15.547 3.1523-21.16 8.7656s-8.7656 13.223-8.7656 21.16v169.3h169.87v-169.3c0-7.9062-3.1289-15.492-8.7031-21.102-5.5742-5.6055-13.145-8.7773-21.051-8.8242zm-135.89 60.188 19.91 12.879v43.703l-19.91 16.875zm13.781 134.99 29.473-47.191c37.629 21.035 63.391 5.625 70.59 0.33594l27.676 46.688zm147.65-61.535-19.91-16.875v-43.703l19.91-12.879zm0-78.746-24.129 16.086v47.98l24.129 20.473v55.855h-15.297l-31.219-53.434-1.9141 1.8555s-26.605 24.691-69.41-0.28125l-1.7422-1.0117-33.016 52.93-8.832-0.003906v-56.133l24.129-20.473 0.003906-47.758-24.129-15.582-0.003906-25.477c0-6.8164 2.7109-13.355 7.5312-18.176 4.8203-4.8203 11.359-7.5312 18.176-7.5312h110.19c6.8164 0 13.355 2.7109 18.176 7.5312 4.8203 4.8203 7.5312 11.359 7.5312 18.176z"/>
  <path d="m176.36 116.32c-16.41 0-32.145 6.5195-43.75 18.121-11.602 11.605-18.121 27.34-18.121 43.75s6.5195 32.148 18.121 43.75c11.605 11.605 27.34 18.121 43.75 18.121 16.41 0 32.148-6.5156 43.75-18.121 11.605-11.602 18.121-27.34 18.121-43.75-0.085937-16.383-6.6328-32.066-18.219-43.652-11.582-11.582-27.27-18.129-43.652-18.219zm0 120.03c-15.363 0-30.102-6.1016-40.965-16.969-10.867-10.863-16.969-25.602-16.969-40.965 0-15.367 6.1016-30.102 16.969-40.969 10.863-10.863 25.602-16.969 40.965-16.969 15.367 0 30.102 6.1055 40.969 16.969 10.863 10.867 16.969 25.602 16.969 40.969-0.046875 15.34-6.168 30.039-17.027 40.875-10.859 10.84-25.566 16.934-40.91 16.945z"/>
  <path d="m176.36 142.25c-9.6211 0-18.848 3.8203-25.652 10.625-6.8047 6.8047-10.625 16.031-10.625 25.656 0 9.6211 3.8203 18.848 10.625 25.652 6.8047 6.8047 16.031 10.625 25.652 10.625 9.6211 0 18.852-3.8203 25.652-10.625 6.8047-6.8047 10.629-16.031 10.629-25.652 0-9.625-3.8242-18.852-10.629-25.656-6.8008-6.8047-16.031-10.625-25.652-10.625zm0 68.285c-8.5039 0-16.656-3.3789-22.668-9.3906-6.0156-6.0117-9.3906-14.168-9.3906-22.672s3.375-16.656 9.3906-22.672c6.0117-6.0117 14.164-9.3867 22.668-9.3867 8.5039 0 16.66 3.375 22.672 9.3867 6.0117 6.0156 9.3906 14.168 9.3906 22.672s-3.3789 16.66-9.3906 22.672c-6.0117 6.0117-14.168 9.3906-22.672 9.3906z"/>
  <path d="m528.25 116.32c-16.41 0-32.148 6.5195-43.754 18.121-11.602 11.605-18.121 27.34-18.121 43.75s6.5195 32.148 18.121 43.75c11.605 11.605 27.344 18.121 43.754 18.121 16.406 0 32.145-6.5156 43.75-18.121 11.602-11.602 18.121-27.34 18.121-43.75-0.089844-16.383-6.6367-32.066-18.219-43.652-11.586-11.582-27.273-18.129-43.652-18.219zm0 120.03c-15.367 0-30.102-6.1016-40.969-16.969-10.863-10.863-16.969-25.602-16.969-40.965 0-15.367 6.1055-30.102 16.969-40.969 10.867-10.863 25.602-16.969 40.969-16.969 15.363 0 30.098 6.1055 40.965 16.969 10.863 10.867 16.969 25.602 16.969 40.969-0.046875 15.34-6.168 30.039-17.023 40.875-10.859 10.84-25.57 16.934-40.91 16.945z"/>
  <path d="m528.25 142.25c-9.625 0-18.852 3.8203-25.656 10.625s-10.625 16.031-10.625 25.656c0 9.6211 3.8203 18.848 10.625 25.652 6.8047 6.8047 16.031 10.625 25.656 10.625 9.6211 0 18.848-3.8203 25.652-10.625 6.8047-6.8047 10.625-16.031 10.625-25.652 0-9.625-3.8203-18.852-10.625-25.656-6.8047-6.8047-16.031-10.625-25.652-10.625zm0 68.285c-8.5039 0-16.66-3.3789-22.672-9.3906s-9.3906-14.168-9.3906-22.672 3.3789-16.656 9.3906-22.672c6.0117-6.0117 14.168-9.3867 22.672-9.3867 8.5 0 16.656 3.375 22.668 9.3867 6.0117 6.0156 9.3906 14.168 9.3906 22.672s-3.3789 16.66-9.3906 22.672-14.168 9.3906-22.668 9.3906z"/>
  <path d="m176.36 309.87c-12.547 0-24.578 4.9844-33.449 13.855-8.8711 8.8711-13.855 20.902-13.855 33.449s4.9844 24.578 13.855 33.449c8.8711 8.8711 20.902 13.855 33.449 13.855s24.578-4.9844 33.449-13.855 13.855-20.902 13.855-33.449c-0.015625-12.543-5.0039-24.566-13.871-33.434-8.8672-8.8672-20.891-13.855-33.434-13.871zm0 90.445c-11.426 0-22.387-4.5391-30.465-12.617-8.082-8.082-12.621-19.039-12.621-30.469 0-11.426 4.5391-22.383 12.621-30.465 8.0781-8.082 19.039-12.621 30.465-12.621s22.387 4.5391 30.469 12.621c8.0781 8.082 12.617 19.039 12.617 30.465-0.03125 11.414-4.582 22.352-12.656 30.414-8.0742 8.0664-19.016 12.602-30.43 12.617z"/>
  <path d="m176.36 329.33c-7.3828 0-14.465 2.9336-19.688 8.1562-5.2227 5.2227-8.1523 12.305-8.1523 19.688s2.9297 14.465 8.1523 19.688c5.2227 5.2227 12.305 8.1562 19.688 8.1562 7.3867 0 14.469-2.9336 19.688-8.1562 5.2227-5.2227 8.1562-12.305 8.1562-19.688-0.074219-7.3633-3.0312-14.402-8.2383-19.605-5.2031-5.207-12.242-8.1641-19.605-8.2383zm0 51.41c-6.2656 0-12.273-2.4883-16.703-6.918-4.4297-4.4297-6.9219-10.441-6.9219-16.703 0-6.2656 2.4922-12.277 6.9219-16.707 4.4297-4.4297 10.438-6.918 16.703-6.918s12.273 2.4883 16.707 6.918c4.4297 4.4297 6.918 10.441 6.918 16.707 0.015625 6.2734-2.4688 12.297-6.8984 16.738-4.4336 4.4453-10.449 6.9414-16.727 6.9414z"/>
  <path d="m528.25 309.87c-12.547 0-24.578 4.9844-33.449 13.855-8.8711 8.8711-13.855 20.902-13.855 33.449s4.9844 24.578 13.855 33.449c8.8711 8.8711 20.902 13.855 33.449 13.855 12.543 0 24.574-4.9844 33.449-13.855 8.8711-8.8711 13.852-20.902 13.852-33.449-0.011719-12.543-5-24.566-13.871-33.434-8.8672-8.8672-20.891-13.855-33.43-13.871zm0 90.445c-11.43 0-22.387-4.5391-30.469-12.617-8.0781-8.082-12.617-19.039-12.617-30.469 0-11.426 4.5391-22.383 12.617-30.465 8.082-8.082 19.039-12.621 30.469-12.621 11.426 0 22.383 4.5391 30.465 12.621 8.0781 8.082 12.617 19.039 12.617 30.465-0.027343 11.414-4.5781 22.352-12.652 30.414-8.0781 8.0664-19.02 12.602-30.43 12.617z"/>
  <path d="m528.25 329.33c-7.3867 0-14.469 2.9336-19.688 8.1562-5.2227 5.2227-8.1562 12.305-8.1562 19.688s2.9336 14.465 8.1562 19.688c5.2188 5.2227 12.301 8.1562 19.688 8.1562 7.3828 0 14.465-2.9336 19.688-8.1562 5.2188-5.2227 8.1523-12.305 8.1523-19.688-0.074219-7.3633-3.0273-14.402-8.2344-19.605-5.207-5.207-12.246-8.1641-19.605-8.2383zm0 51.41c-6.2656 0-12.277-2.4883-16.707-6.918-4.4297-4.4297-6.918-10.441-6.918-16.703 0-6.2656 2.4883-12.277 6.918-16.707 4.4297-4.4297 10.441-6.918 16.707-6.918s12.273 2.4883 16.703 6.918c4.4297 4.4297 6.918 10.441 6.918 16.707 0.015625 6.2734-2.4648 12.297-6.8984 16.738-4.4336 4.4453-10.449 6.9414-16.723 6.9414z"/>
  <path d="m352.3 303c-12.426 0-24.344 4.9375-33.129 13.723-8.7891 8.7891-13.723 20.707-13.723 33.133s4.9336 24.344 13.723 33.133c8.7852 8.7852 20.703 13.723 33.129 13.723 12.43 0 24.344-4.9375 33.133-13.723 8.7852-8.7891 13.723-20.707 13.723-33.133-0.015625-12.422-4.957-24.332-13.738-33.113-8.7852-8.7852-20.695-13.727-33.117-13.742zm0 89.488v0.003906c-11.305 0-22.152-4.4922-30.145-12.488-7.9961-7.9961-12.488-18.84-12.488-30.148s4.4922-22.152 12.488-30.148c7.9922-7.9961 18.84-12.488 30.145-12.488 11.309 0 22.152 4.4922 30.148 12.488 7.9961 7.9961 12.488 18.84 12.488 30.148-0.015625 11.305-4.5117 22.141-12.504 30.133-7.9922 7.9922-18.828 12.488-30.133 12.504z"/>
  <path d="m352.25 314.31-23.512 8.5469-12.488 21.656 4.332 24.637 19.406 16.086h24.75l19.18-16.086 4.332-24.637-12.543-21.656zm27.785 52.59-16.875 14.117h-21.938l-16.875-14.117-3.8242-21.598 11.082-19.07 20.645-7.4805 20.586 7.4805 11.25 19.012z"/>
  <use x="70" y="644.371094" xlink:href="#v"/>
  <use x="90.640625" y="644.371094" xlink:href="#a"/>
  <use x="104.507812" y="644.371094" xlink:href="#b"/>
  <use x="123.582031" y="644.371094" xlink:href="#e"/>
  <use x="142.5625" y="644.371094" xlink:href="#d"/>
  <use x="156.003906" y="644.371094" xlink:href="#b"/>
  <use x="175.078125" y="644.371094" xlink:href="#n"/>
  <use x="205.003906" y="644.371094" xlink:href="#m"/>
  <use x="225.132812" y="644.371094" xlink:href="#l"/>
  <use x="253.257813" y="644.371094" xlink:href="#k"/>
  <use x="274.695312" y="644.371094" xlink:href="#a"/>
  <use x="288.5625" y="644.371094" xlink:href="#j"/>
  <use x="298.203125" y="644.371094" xlink:href="#e"/>
  <use x="317.179688" y="644.371094" xlink:href="#i"/>
  <use x="337.203125" y="644.371094" xlink:href="#e"/>
  <use x="365.972656" y="644.371094" xlink:href="#u"/>
  <use x="385.15625" y="644.371094" xlink:href="#a"/>
  <use x="399.027344" y="644.371094" xlink:href="#h"/>
  <use x="419.046875" y="644.371094" xlink:href="#g"/>
  <use x="428.6875" y="644.371094" xlink:href="#j"/>
  <use x="438.328125" y="644.371094" xlink:href="#f"/>
  <use x="447.96875" y="644.371094" xlink:href="#f"/>
  <use x="457.609375" y="644.371094" xlink:href="#c"/>
  <use x="70" y="672.496094" xlink:href="#t"/>
  <use x="82.234375" y="672.496094" xlink:href="#a"/>
  <use x="96.105469" y="672.496094" xlink:href="#c"/>
  <use x="115.425781" y="672.496094" xlink:href="#s"/>
  <use x="154.523438" y="672.496094" xlink:href="#d"/>
  <use x="167.964844" y="672.496094" xlink:href="#r"/>
  <use x="187.988281" y="672.496094" xlink:href="#b"/>
  <use x="216.851562" y="672.496094" xlink:href="#q"/>
  <use x="240.390625" y="672.496094" xlink:href="#c"/>
  <use x="259.710938" y="672.496094" xlink:href="#h"/>
  <use x="279.734375" y="672.496094" xlink:href="#i"/>
  <use x="309.546875" y="672.496094" xlink:href="#p"/>
  <use x="330.160156" y="672.496094" xlink:href="#a"/>
  <use x="344.027344" y="672.496094" xlink:href="#c"/>
  <use x="363.347656" y="672.496094" xlink:href="#g"/>
  <use x="372.988281" y="672.496094" xlink:href="#b"/>
  <use x="392.0625" y="672.496094" xlink:href="#o"/>
  <use x="408.734375" y="672.496094" xlink:href="#d"/>
 </g>
</svg>
