<svg width="85" height="84" xmlns="http://www.w3.org/2000/svg" xmlns:xlink="http://www.w3.org/1999/xlink" xml:space="preserve" overflow="hidden"><defs><clipPath id="clip0"><rect x="815" y="101" width="85" height="84"/></clipPath></defs><g clip-path="url(#clip0)" transform="translate(-815 -101)"><path d="M93.8667 123.733 55.3026 85.1692C54.6467 84.5133 54.6467 83.5277 55.3026 82.8718L73.3539 64.8205C74.0098 64.1646 74.9954 64.1646 75.6513 64.8205L114.379 103.385C115.035 104.041 115.035 105.026 114.379 105.682L96.3282 123.733C95.6723 124.389 94.5231 124.389 93.8672 123.732Z" stroke="#000000" stroke-width="1.64103" stroke-linecap="round" stroke-miterlimit="10" fill="none" transform="matrix(1.01193 0 0 1 774.73 51.7303)"/><path d="M58.0923 79.5897 49.2313 70.7287C48.5754 70.0728 48.4105 68.9236 48.9027 68.4313L59.0768 58.2572C59.569 57.765 60.7183 57.765 61.3742 58.5858L70.4 67.6116" stroke="#000000" stroke-width="1.64103" stroke-linecap="round" stroke-miterlimit="10" fill="none" transform="matrix(1.01193 0 0 1 774.73 51.7303)"/><path d="M70.2359 77.4564 61.2101 86.4822" stroke="#000000" stroke-width="1.64103" stroke-linecap="round" stroke-miterlimit="10" fill="none" transform="matrix(1.01193 0 0 1 774.73 51.7303)"/><path d="M76.4718 71.2205 72.6966 75.1595" stroke="#000000" stroke-width="1.64103" stroke-linecap="round" stroke-miterlimit="10" fill="none" transform="matrix(1.01193 0 0 1 774.73 51.7303)"/><path d="M58.9128 63.3436 57.2725 61.7021" stroke="#000000" stroke-width="1.64103" stroke-linecap="round" stroke-miterlimit="10" fill="none" transform="matrix(1.01193 0 0 1 774.73 51.7303)"/><path d="M53.9897 68.4308 52.3494 66.7904" stroke="#000000" stroke-width="1.64103" stroke-linecap="round" stroke-miterlimit="10" fill="none" transform="matrix(1.01193 0 0 1 774.73 51.7303)"/><path d="M5.49919-0.32967C5.21531-0.18315 4.91883-0.0732601 4.61093 0 4.30529 0.0755487 3.98479 0.114467 3.64941 0.114467 2.65354 0.114467 1.86485-0.162547 1.2822-0.718881 0.698403-1.27747 0.407648-2.03299 0.407648-2.98537 0.407648-3.94004 0.6984-4.69553 1.2822-5.25186 1.86485-5.81046 2.65354-6.08978 3.64941-6.08978 3.98479-6.08978 4.30532-6.05086 4.61093-5.97531 4.91886-5.90205 5.21533-5.79216 5.49919-5.64564L5.49919-4.40937C5.21188-4.60167 4.92914-4.74361 4.65213-4.83518 4.37397-4.92676 4.08094-4.97255 3.77301-4.97255 3.22356-4.97255 2.79086-4.79512 2.47722-4.44141 2.16243-4.09 2.0056-3.60463 2.0056-2.98535 2.0056-2.36835 2.16242-1.88302 2.47722-1.52929 2.79086-1.17788 3.22356-1.00273 3.77301-1.00273 4.08094-1.00273 4.37398-1.04623 4.65213-1.13551 4.92915-1.22709 5.2119-1.37017 5.49919-1.56593Z" transform="matrix(1.01193 0 0 1 774.73 240.448)"/><path d="M4.02462-3.26476C3.89641-3.322 3.76935-3.36549 3.64457-3.39297 3.52209-3.42273 3.39846-3.43875 3.2737-3.43875 2.90397-3.43875 2.62007-3.31971 2.42207-3.0816 2.22289-2.84579 2.12445-2.50926 2.12445-2.0697L2.12445-0.000102564 0.691311-0.000102564 0.691311-4.48714 2.12445-4.48714 2.12445-3.74996C2.3076-4.043 2.51824-4.25593 2.75631-4.39099 2.99669-4.52835 3.28401-4.59703 3.61711-4.59703 3.66519-4.59703 3.71785-4.5936 3.77279-4.58787 3.83002-4.58444 3.91244-4.57643 4.02004-4.56498Z" transform="matrix(1.01193 0 0 1 780.824 240.448)"/><path d="M5.16952-2.25732 5.16952-1.84525 1.81333-1.84525C1.84996-1.50872 1.9713-1.25688 2.17963-1.08976 2.38682-0.921489 2.67871-0.837925 3.05418-0.837925 3.35637-0.837925 3.66429-0.881424 3.97908-0.970708 4.29615-1.06228 4.62125-1.19736 4.95434-1.37821L4.95434-0.274737C4.61553-0.146532 4.27669-0.0503795 3.93785 0.013726 3.59903 0.0801172 3.26019 0.114459 2.92135 0.114459 2.10863 0.114459 1.47675-0.0915839 1.02573-0.503681 0.577026-0.915754 0.352645-1.49383 0.352645-2.23904 0.352645-2.97164 0.573571-3.54626 1.01656-3.96522 1.4584-4.38646 2.06623-4.59707 2.83892-4.59707 3.54403-4.59707 4.10837-4.38302 4.53304-3.95605 4.95657-3.53137 5.16949-2.96475 5.16949-2.25732ZM3.69518-2.73351C3.69518-3.0048 3.61505-3.22344 3.45708-3.38828 3.29797-3.5554 3.09078-3.64011 2.83437-3.64011 2.55621-3.64011 2.3307-3.56227 2.15672-3.40659 1.98274-3.25091 1.87398-3.02655 1.83162-2.73351Z" transform="matrix(1.01193 0 0 1 784.919 240.448)"/><path d="M2.70148-2.01922C2.40158-2.01922 2.17606-1.96886 2.02382-1.86813 1.87387-1.76739 1.79947-1.61744 1.79947-1.41942 1.79947-1.23627 1.86013-1.09204 1.98262-0.989005 2.10395-0.888273 2.27222-0.837908 2.48629-0.837908 2.75759-0.837908 2.98537-0.93406 3.16852-1.12637 3.35396-1.32097 3.44782-1.56365 3.44782-1.8544L3.44782-2.01924ZM4.89014-2.55953 4.89014 0 3.44782 0 3.44782-0.663912C3.25552-0.391475 3.03804-0.193436 2.79763-0.0686886 2.5561 0.0526476 2.26306 0.114462 1.91851 0.114462 1.45377 0.114462 1.07716-0.0194667 0.787546-0.288469 0.496794-0.55976 0.352557-0.912322 0.352557-1.34617 0.352557-1.87045 0.532273-2.25506 0.892865-2.50001 1.25574-2.74727 1.82464-2.87089 2.60073-2.87089L3.4478-2.87089 3.4478-2.98535C3.4478-3.21086 3.35737-3.37568 3.17765-3.47986 2.99679-3.58632 2.71749-3.64012 2.33973-3.64012 2.03066-3.64012 1.7445-3.60921 1.47892-3.54854 1.21564-3.48673 0.971815-3.39515 0.746321-3.27382L0.746321-4.36815C1.05082-4.44141 1.35757-4.4975 1.66664-4.53756 1.978-4.57648 2.28935-4.59708 2.60071-4.59708 3.40886-4.59708 3.99265-4.43682 4.34981-4.11632 4.70925-3.79811 4.89012-3.27954 4.89012-2.55954Z" transform="matrix(1.01193 0 0 1 790.55 240.448)"/><path d="M2.25732-5.76 2.25732-4.48709 3.73626-4.48709 3.73626-3.46145 2.25732-3.46145 2.25732-1.55669C2.25732-1.34835 2.29853-1.2087 2.38095-1.13544 2.46337-1.06218 2.62591-1.02555 2.87088-1.02555L3.60805-1.02555 3.60805 8.79121e-05 2.38095 8.79121e-05C1.81318 8.79121e-05 1.41025-0.116671 1.17216-0.352469 0.936349-0.590564 0.819599-0.991209 0.819599-1.55669L0.819599-3.46145 0.109884-3.46145 0.109884-4.48709 0.819599-4.48709 0.819599-5.76Z" transform="matrix(1.01193 0 0 1 796.153 240.448)"/><path d="M5.16952-2.25732 5.16952-1.84525 1.81333-1.84525C1.84996-1.50872 1.9713-1.25688 2.17963-1.08976 2.38682-0.921489 2.67871-0.837925 3.05418-0.837925 3.35637-0.837925 3.66429-0.881424 3.97908-0.970708 4.29615-1.06228 4.62125-1.19736 4.95434-1.37821L4.95434-0.274737C4.61553-0.146532 4.27669-0.0503795 3.93785 0.013726 3.59903 0.0801172 3.26019 0.114459 2.92135 0.114459 2.10863 0.114459 1.47675-0.0915839 1.02573-0.503681 0.577026-0.915754 0.352645-1.49383 0.352645-2.23904 0.352645-2.97164 0.573571-3.54626 1.01656-3.96522 1.4584-4.38646 2.06623-4.59707 2.83892-4.59707 3.54403-4.59707 4.10837-4.38302 4.53304-3.95605 4.95657-3.53137 5.16949-2.96475 5.16949-2.25732ZM3.69518-2.73351C3.69518-3.0048 3.61505-3.22344 3.45708-3.38828 3.29797-3.5554 3.09078-3.64011 2.83437-3.64011 2.55621-3.64011 2.3307-3.56227 2.15672-3.40659 1.98274-3.25091 1.87398-3.02655 1.83162-2.73351Z" transform="matrix(1.01193 0 0 1 800.122 240.448)"/><path d="M3.74095-3.83238 3.74095-6.23622 5.18327-6.23622 5.18327-2.9304e-05 3.74095-2.9304e-05 3.74095-0.650227C3.54521-0.384659 3.32888-0.190066 3.09075-0.068718 2.85263 0.05263 2.57565 0.114432 2.26201 0.114432 1.70913 0.114432 1.25582-0.105348 0.902125-0.544908 0.547282-0.984469 0.370989-1.54881 0.370989-2.23903 0.370989-2.93158 0.54727-3.4982 0.902125-3.93776 1.25582-4.37732 1.70913-4.5971 2.26201-4.5971 2.57336-4.5971 2.84809-4.53414 3.08618-4.40937 3.32657-4.28345 3.5452-4.09116 3.74095-3.83243ZM2.79771-0.924865C3.10221-0.924865 3.33571-1.0359 3.49826-1.25911 3.65966-1.48461 3.74093-1.81084 3.74093-2.23897 3.74093-2.66593 3.65966-2.99103 3.49826-3.21424 3.33571-3.43975 3.10218-3.55306 2.79771-3.55306 2.49207-3.55306 2.25858-3.43973 2.09717-3.21424 1.93463-2.99103 1.8545-2.66593 1.8545-2.23897 1.8545-1.81087 1.93463-1.48463 2.09717-1.25911 2.25857-1.03589 2.4921-0.924865 2.79771-0.924865Z" transform="matrix(1.01193 0 0 1 805.753 240.448)"/><path d="M3.07692-0.924894C3.38485-0.924894 3.61952-1.03593 3.78204-1.25914 3.94344-1.48464 4.02471-1.81087 4.02471-2.239 4.02471-2.66596 3.94344-2.99106 3.78204-3.21427 3.61949-3.43977 3.38482-3.55308 3.07692-3.55308 2.76785-3.55308 2.53204-3.43976 2.36721-3.21427 2.20466-2.98762 2.12454-2.66253 2.12454-2.239 2.12454-1.81433 2.20467-1.48923 2.36721-1.26374 2.53204-1.03709 2.76785-0.924923 3.07692-0.924923ZM2.12454-3.83241C2.32257-4.09111 2.54122-4.28343 2.77931-4.40935 3.0197-4.53412 3.2967-4.59708 3.60806-4.59708 4.16322-4.59708 4.61767-4.3773 4.97251-3.93774 5.32621-3.49817 5.50365-2.93155 5.50365-2.23901 5.50365-1.54875 5.32622-0.984445 4.97251-0.544885 4.61767-0.105325 4.16322 0.114456 3.60806 0.114456 3.2967 0.114456 3.01969 0.0526418 2.77931-0.0686945 2.54122-0.193465 2.32258-0.386907 2.12454-0.650204L2.12454-5.86081e-06 0.691399-5.86081e-06 0.691399-6.2362 2.12454-6.2362Z" transform="matrix(1.01193 0 0 1 814.588 240.448)"/><path d="M0.100733-4.48703 1.53388-4.48703 2.74267-1.44205 3.76831-4.48703 5.20145-4.48703 3.315 0.426081C3.12498 0.922872 2.90407 1.27086 2.65109 1.47004 2.39697 1.6715 2.06501 1.77222 1.65294 1.77222L0.81959 1.77222 0.81959 0.828982 1.26829 0.828982C1.51211 0.828982 1.68954 0.788917 1.79943 0.709934 1.91161 0.63324 1.99861 0.495877 2.06042 0.297861L2.10162 0.174233Z" transform="matrix(1.01193 0 0 1 820.531 240.448)"/><path d="M2.29395-4.817 2.29395-1.16777 2.84797-1.16777C3.47982-1.16777 3.96176-1.32344 4.29486-1.63481 4.62681-1.94617 4.79393-2.40062 4.79393-2.99927 4.79393-3.59106 4.62681-4.04094 4.29486-4.35001 3.96519-4.66136 3.48214-4.81706 2.84797-4.81706ZM0.755487-5.98001 2.38095-5.98001C3.28756-5.98001 3.9629-5.91591 4.40935-5.78771 4.85462-5.6595 5.23581-5.43972 5.55402-5.12837 5.83447-4.85936 6.04167-4.548 6.17673-4.1943 6.3141-3.84289 6.38278-3.44453 6.38278-2.99925 6.38278-2.54709 6.31409-2.14416 6.17673-1.79046 6.04166-1.43562 5.83446-1.12312 5.55402-0.851824 5.23349-0.542755 4.84891-0.322974 4.40018-0.192484 3.95147-0.0642784 3.27839-0.000175824 2.38095-0.000175824L0.755487-0.000175824Z" transform="matrix(1.01193 0 0 1 828.834 240.448)"/><path d="M0.691399-4.48703 2.12454-4.48703 2.12454 0 0.691399 0ZM0.691399-6.23613 2.12454-6.23613 2.12454-5.06397 0.691399-5.06397Z" transform="matrix(1.01193 0 0 1 835.727 240.448)"/><path d="M5.20147-2.73351 5.20147 0 3.75915 0 3.75915-2.09248C3.75915-2.47938 3.74999-2.74725 3.73168-2.89377 3.71336-3.04029 3.68246-3.14789 3.6401-3.21887 3.58516-3.31045 3.50846-3.38142 3.41116-3.43407 3.31616-3.48559 3.20741-3.51191 3.08607-3.51191 2.78617-3.51191 2.5515-3.39515 2.38095-3.16393 2.20925-2.93499 2.12454-2.61562 2.12454-2.20697L2.12454-2.9304e-05 0.691399-2.9304e-05 0.691399-4.48706 2.12454-4.48706 2.12454-3.83229C2.34089-4.09099 2.56982-4.28331 2.81137-4.40923 3.05519-4.534 3.32419-4.59696 3.61723-4.59696 4.13577-4.59696 4.52955-4.4367 4.79853-4.1162 5.06639-3.79798 5.20147-3.33782 5.20147-2.7334Z" transform="matrix(1.01193 0 0 1 838.571 240.448)"/><path d="M5.16952-2.25732 5.16952-1.84525 1.81333-1.84525C1.84996-1.50872 1.9713-1.25688 2.17963-1.08976 2.38682-0.921489 2.67871-0.837925 3.05418-0.837925 3.35637-0.837925 3.66429-0.881424 3.97908-0.970708 4.29615-1.06228 4.62125-1.19736 4.95434-1.37821L4.95434-0.274737C4.61553-0.146532 4.27669-0.0503795 3.93785 0.013726 3.59903 0.0801172 3.26019 0.114459 2.92135 0.114459 2.10863 0.114459 1.47675-0.0915839 1.02573-0.503681 0.577026-0.915754 0.352645-1.49383 0.352645-2.23904 0.352645-2.97164 0.573571-3.54626 1.01656-3.96522 1.4584-4.38646 2.06623-4.59707 2.83892-4.59707 3.54403-4.59707 4.10837-4.38302 4.53304-3.95605 4.95657-3.53137 5.16949-2.96475 5.16949-2.25732ZM3.69518-2.73351C3.69518-3.0048 3.61505-3.22344 3.45708-3.38828 3.29797-3.5554 3.09078-3.64011 2.83437-3.64011 2.55621-3.64011 2.3307-3.56227 2.15672-3.40659 1.98274-3.25091 1.87398-3.02655 1.83162-2.73351Z" transform="matrix(1.01193 0 0 1 844.484 240.448)"/><path d="M4.19399-4.3452 4.19399-3.25544C3.88835-3.38365 3.59188-3.4798 3.30573-3.54391 3.01841-3.60801 2.74828-3.64006 2.4953-3.64006 2.22286-3.64006 2.02025-3.60572 1.88633-3.53933 1.75469-3.47179 1.68944-3.36648 1.68944-3.2234 1.68944-3.11007 1.73981-3.02308 1.84054-2.96241 1.94127-2.9006 2.12099-2.85481 2.38085-2.82505L2.63268-2.78842C3.36757-2.69341 3.86207-2.53888 4.1162-2.32597 4.36917-2.11192 4.49624-1.77766 4.49624-1.32322 4.49624-0.843599 4.31881-0.483012 3.9651-0.242632 3.61369-0.00453626 3.08827 0.114526 2.39001 0.114526 2.09012 0.114526 1.78219 0.0916322 1.46512 0.0458432 1.15034 5.56777e-05 0.82638-0.06977 0.494423-0.164779L0.494423-1.25454C0.778306-1.11374 1.06905-1.00843 1.36897-0.938611 1.67116-0.871074 1.97794-0.837878 2.2893-0.837878 2.56974-0.837878 2.78037-0.875654 2.92115-0.952346 3.0608-1.03133 3.13177-1.14694 3.13177-1.30033 3.13177-1.42854 3.08255-1.5224 2.98525-1.58421 2.88681-1.64832 2.69336-1.69639 2.40374-1.73073L2.15191-1.76279C1.51317-1.84177 1.06675-1.98944 0.810341-2.20692 0.553931-2.42326 0.425726-2.7518 0.425726-3.19136 0.425726-3.66755 0.587127-4.02011 0.911059-4.24906 1.2373-4.48028 1.73752-4.59704 2.41289-4.59704 2.67502-4.59704 2.95088-4.57529 3.24164-4.53294 3.53468-4.49288 3.85175-4.42992 4.19402-4.34521Z" transform="matrix(1.01193 0 0 1 850.114 240.448)"/><path d="M5.20147-2.73351 5.20147 0 3.75915 0 3.75915-2.08334C3.75915-2.47713 3.74999-2.74725 3.73168-2.89377 3.71336-3.04029 3.68246-3.14789 3.6401-3.21887 3.58516-3.31045 3.50846-3.38142 3.41116-3.43407 3.31616-3.48559 3.20741-3.51191 3.08607-3.51191 2.78617-3.51191 2.5515-3.39515 2.38095-3.16393 2.20925-2.93499 2.12454-2.61562 2.12454-2.20697L2.12454-2.9304e-05 0.691399-2.9304e-05 0.691399-6.23622 2.12454-6.23622 2.12454-3.83238C2.34089-4.09108 2.56982-4.2834 2.81137-4.40932 3.05519-4.53409 3.32419-4.59705 3.61723-4.59705 4.13577-4.59705 4.52955-4.43679 4.79853-4.11628 5.06639-3.79807 5.20147-3.33791 5.20147-2.73349Z" transform="matrix(1.01193 0 0 1 855.057 240.448)"/><path d="M0.755487-5.97978 3.31502-5.97978C4.07511-5.97978 4.65773-5.81037 5.06412-5.47153 5.47276-5.135 5.67768-4.65421 5.67768-4.02922 5.67768-3.40308 5.47279-2.92117 5.06412-2.58233 4.65776-2.24352 4.07511-2.07408 3.31502-2.07408L2.29395-2.07408 2.29395 8.79121e-05 0.755487 8.79121e-05ZM2.29395-4.86256 2.29395-3.19133 3.15018-3.19133C3.44894-3.19133 3.67903-3.26459 3.84158-3.41111 4.00642-3.55763 4.08884-3.76366 4.08884-4.02925 4.08884-4.2971 4.00642-4.50315 3.84158-4.64738 3.67904-4.79047 3.44897-4.86259 3.15018-4.86259Z" transform="matrix(1.01193 0 0 1 863.858 240.448)"/><path d="M2.70148-2.01922C2.40158-2.01922 2.17606-1.96886 2.02382-1.86813 1.87387-1.76739 1.79947-1.61744 1.79947-1.41942 1.79947-1.23627 1.86013-1.09204 1.98262-0.989005 2.10395-0.888273 2.27222-0.837908 2.48629-0.837908 2.75759-0.837908 2.98537-0.93406 3.16852-1.12637 3.35396-1.32097 3.44782-1.56365 3.44782-1.8544L3.44782-2.01924ZM4.89014-2.55953 4.89014 0 3.44782 0 3.44782-0.663912C3.25552-0.391475 3.03804-0.193436 2.79763-0.0686886 2.5561 0.0526476 2.26306 0.114462 1.91851 0.114462 1.45377 0.114462 1.07716-0.0194667 0.787546-0.288469 0.496794-0.55976 0.352557-0.912322 0.352557-1.34617 0.352557-1.87045 0.532273-2.25506 0.892865-2.50001 1.25574-2.74727 1.82464-2.87089 2.60073-2.87089L3.4478-2.87089 3.4478-2.98535C3.4478-3.21086 3.35737-3.37568 3.17765-3.47986 2.99679-3.58632 2.71749-3.64012 2.33973-3.64012 2.03066-3.64012 1.7445-3.60921 1.47892-3.54854 1.21564-3.48673 0.971815-3.39515 0.746321-3.27382L0.746321-4.36815C1.05082-4.44141 1.35757-4.4975 1.66664-4.53756 1.978-4.57648 2.28935-4.59708 2.60071-4.59708 3.40886-4.59708 3.99265-4.43682 4.34981-4.11632 4.70925-3.79811 4.89012-3.27954 4.89012-2.55954Z" transform="matrix(1.01193 0 0 1 869.944 240.448)"/><path d="M0.691399-6.23619 2.12454-6.23619 2.12454 0 0.691399 0Z" transform="matrix(1.01193 0 0 1 875.546 240.448)"/><path d="M6.13099-0.444132C5.74637-0.257547 5.34573-0.116747 4.93134-0.0228864 4.51927 0.0686886 4.09114 0.114476 3.64929 0.114476 2.65342 0.114476 1.86473-0.162538 1.28208-0.718872 0.698286-1.27747 0.407531-2.03298 0.407531-2.98536 0.407531-3.9492 0.702857-4.70812 1.29579-5.261 1.89102-5.81273 2.70377-6.08974 3.73626-6.08974 4.13234-6.08974 4.51235-6.05083 4.87637-5.97528 5.24267-5.90202 5.58722-5.79213 5.91115-5.64561L5.91115-4.40933C5.57462-4.5982 5.24267-4.739 4.913-4.83057 4.58333-4.92444 4.25366-4.97252 3.92399-4.97252 3.30699-4.97252 2.83194-4.79967 2.49999-4.45512 2.17032-4.11285 2.00548-3.62295 2.00548-2.98535 2.00548-2.3535 2.16574-1.86471 2.48624-1.52015 2.80677-1.17445 3.26119-1.00276 3.8507-1.00276 4.00866-1.00276 4.15748-1.01192 4.29483-1.03023 4.43448-1.05083 4.55811-1.08289 4.6657-1.12638L4.6657-2.2894 3.72706-2.2894 3.72706-3.31961 6.1309-3.31961Z" transform="matrix(1.01193 0 0 1 881.283 240.448)"/><path d="M2.70148-2.01922C2.40158-2.01922 2.17606-1.96886 2.02382-1.86813 1.87387-1.76739 1.79947-1.61744 1.79947-1.41942 1.79947-1.23627 1.86013-1.09204 1.98262-0.989005 2.10395-0.888273 2.27222-0.837908 2.48629-0.837908 2.75759-0.837908 2.98537-0.93406 3.16852-1.12637 3.35396-1.32097 3.44782-1.56365 3.44782-1.8544L3.44782-2.01924ZM4.89014-2.55953 4.89014 0 3.44782 0 3.44782-0.663912C3.25552-0.391475 3.03804-0.193436 2.79763-0.0686886 2.5561 0.0526476 2.26306 0.114462 1.91851 0.114462 1.45377 0.114462 1.07716-0.0194667 0.787546-0.288469 0.496794-0.55976 0.352557-0.912322 0.352557-1.34617 0.352557-1.87045 0.532273-2.25506 0.892865-2.50001 1.25574-2.74727 1.82464-2.87089 2.60073-2.87089L3.4478-2.87089 3.4478-2.98535C3.4478-3.21086 3.35737-3.37568 3.17765-3.47986 2.99679-3.58632 2.71749-3.64012 2.33973-3.64012 2.03066-3.64012 1.7445-3.60921 1.47892-3.54854 1.21564-3.48673 0.971815-3.39515 0.746321-3.27382L0.746321-4.36815C1.05082-4.44141 1.35757-4.4975 1.66664-4.53756 1.978-4.57648 2.28935-4.59708 2.60071-4.59708 3.40886-4.59708 3.99265-4.43682 4.34981-4.11632 4.70925-3.79811 4.89012-3.27954 4.89012-2.55954Z" transform="matrix(1.01193 0 0 1 888.098 240.448)"/><path d="M0.641026-1.7491 0.641026-4.48721 2.08334-4.48721 2.08334-4.03851C2.08334-3.79354 2.08105-3.48905 2.07876-3.12275 2.07533-2.75645 2.07418-2.5115 2.07418-2.39015 2.07418-2.02614 2.08334-1.76516 2.10166-1.60718 2.12226-1.44807 2.15431-1.3336 2.19781-1.26377 2.25848-1.16876 2.33632-1.0955 2.43133-1.04399 2.52519-0.994763 2.63394-0.970725 2.75642-0.970725 3.05518-0.970725 3.28985-1.08519 3.46154-1.31414 3.6321-1.54308 3.71795-1.8613 3.71795-2.27109L3.71795-4.48721 5.15109-4.48721 5.15109-0.000175824 3.71795-0.000175824 3.71795-0.650374C3.50046-0.387095 3.27153-0.193641 3.03112-0.0688645 2.78959 0.0524718 2.52287 0.114286 2.22983 0.114286 1.71358 0.114286 1.31979-0.0436806 1.04853-0.361905 0.776091-0.678974 0.641026-1.14145 0.641026-1.74927Z" transform="matrix(1.01193 0 0 1 893.702 240.448)"/><path d="M2.25732-5.76 2.25732-4.48709 3.73626-4.48709 3.73626-3.46145 2.25732-3.46145 2.25732-1.55669C2.25732-1.34835 2.29853-1.2087 2.38095-1.13544 2.46337-1.06218 2.62591-1.02555 2.87088-1.02555L3.60805-1.02555 3.60805 8.79121e-05 2.38095 8.79121e-05C1.81318 8.79121e-05 1.41025-0.116671 1.17216-0.352469 0.936349-0.590564 0.819599-0.991209 0.819599-1.55669L0.819599-3.46145 0.109884-3.46145 0.109884-4.48709 0.819599-4.48709 0.819599-5.76Z" transform="matrix(1.01193 0 0 1 899.612 240.448)"/><path d="M2.70148-2.01922C2.40158-2.01922 2.17606-1.96886 2.02382-1.86813 1.87387-1.76739 1.79947-1.61744 1.79947-1.41942 1.79947-1.23627 1.86013-1.09204 1.98262-0.989005 2.10395-0.888273 2.27222-0.837908 2.48629-0.837908 2.75759-0.837908 2.98537-0.93406 3.16852-1.12637 3.35396-1.32097 3.44782-1.56365 3.44782-1.8544L3.44782-2.01924ZM4.89014-2.55953 4.89014 0 3.44782 0 3.44782-0.663912C3.25552-0.391475 3.03804-0.193436 2.79763-0.0686886 2.5561 0.0526476 2.26306 0.114462 1.91851 0.114462 1.45377 0.114462 1.07716-0.0194667 0.787546-0.288469 0.496794-0.55976 0.352557-0.912322 0.352557-1.34617 0.352557-1.87045 0.532273-2.25506 0.892865-2.50001 1.25574-2.74727 1.82464-2.87089 2.60073-2.87089L3.4478-2.87089 3.4478-2.98535C3.4478-3.21086 3.35737-3.37568 3.17765-3.47986 2.99679-3.58632 2.71749-3.64012 2.33973-3.64012 2.03066-3.64012 1.7445-3.60921 1.47892-3.54854 1.21564-3.48673 0.971815-3.39515 0.746321-3.27382L0.746321-4.36815C1.05082-4.44141 1.35757-4.4975 1.66664-4.53756 1.978-4.57648 2.28935-4.59708 2.60071-4.59708 3.40886-4.59708 3.99265-4.43682 4.34981-4.11632 4.70925-3.79811 4.89012-3.27954 4.89012-2.55954Z" transform="matrix(1.01193 0 0 1 903.581 240.448)"/><path d="M4.84894-3.74095C5.02865-4.01797 5.24387-4.23089 5.49453-4.37741 5.74408-4.52393 6.01881-4.59719 6.31871-4.59719 6.83382-4.59719 7.22646-4.43693 7.49544-4.11643 7.76673-3.79821 7.90295-3.33805 7.90295-2.73363L7.90295-0.000117216 6.46063-0.000117216 6.46063-2.33987 6.46063-2.44518C6.46292-2.4841 6.46521-2.53904 6.46521-2.61002 6.46521-2.92709 6.41713-3.15604 6.32327-3.29684 6.23169-3.43993 6.08174-3.51205 5.87456-3.51205 5.60213-3.51205 5.39152-3.39872 5.24271-3.17323 5.09275-2.95002 5.01606-2.62607 5.01377-2.20254L5.01377-0.000164103 3.57146-0.000164103 3.57146-2.33992C3.57146-2.83671 3.52796-3.15609 3.44325-3.29687 3.3574-3.43995 3.20516-3.51207 2.98538-3.51207 2.71065-3.51207 2.49773-3.39875 2.34892-3.17326 2.19897-2.95004 2.12456-2.62838 2.12456-2.20713L2.12456-0.000187546 0.682249-0.000187546 0.682249-4.48722 2.12456-4.48722 2.12456-3.83245C2.30085-4.08543 2.50232-4.27658 2.72896-4.40479 2.9579-4.53299 3.20972-4.5971 3.48445-4.5971 3.7958-4.5971 4.07053-4.52155 4.30862-4.37274 4.54672-4.22278 4.72644-4.01215 4.84893-3.74089Z" transform="matrix(1.01193 0 0 1 909.184 240.448)"/><path d="M3.64015-6.23619 3.64015-5.29295 2.84803-5.29295C2.64656-5.29295 2.50462-5.25632 2.42221-5.18306 2.34208-5.1098 2.30316-4.9816 2.30316-4.79845L2.30316-4.48709 3.53027-4.48709 3.53027-3.46145 2.30316-3.46145 2.30316-5.86081e-05 0.870022-5.86081e-05 0.870022-3.46145 0.155736-3.46145 0.155736-4.48709 0.870022-4.48709 0.870022-4.79845C0.870022-5.2861 1.0051-5.6478 1.27752-5.88361 1.54881-6.11827 1.97121-6.23616 2.54583-6.23616Z" transform="matrix(1.01193 0 0 1 774.73 248.653)"/><path d="M4.02462-3.26476C3.89641-3.322 3.76935-3.36549 3.64457-3.39297 3.52209-3.42273 3.39846-3.43875 3.2737-3.43875 2.90397-3.43875 2.62007-3.31971 2.42207-3.0816 2.22289-2.84579 2.12445-2.50926 2.12445-2.0697L2.12445-0.000102564 0.691311-0.000102564 0.691311-4.48714 2.12445-4.48714 2.12445-3.74996C2.3076-4.043 2.51824-4.25593 2.75631-4.39099 2.99669-4.52835 3.28401-4.59703 3.61711-4.59703 3.66519-4.59703 3.71785-4.5936 3.77279-4.58787 3.83002-4.58444 3.91244-4.57643 4.02004-4.56498Z" transform="matrix(1.01193 0 0 1 778.343 248.653)"/><path d="M2.82508-3.57158C2.50687-3.57158 2.26418-3.45711 2.09705-3.22816 1.92879-2.99922 1.84522-2.66957 1.84522-2.23915 1.84522-1.80873 1.92879-1.47906 2.09705-1.25014 2.26418-1.02349 2.50684-0.911326 2.82508-0.911326 3.13644-0.911326 3.37454-1.0235 3.53937-1.25014 3.70649-1.47908 3.7912-1.80873 3.7912-2.23915 3.7912-2.66957 3.7065-2.99924 3.53937-3.22816 3.37454-3.4571 3.13644-3.57158 2.82508-3.57158ZM2.82508-4.59722C3.5966-4.59722 4.19985-4.38774 4.6337-3.96993 5.0664-3.5544 5.2839-2.97749 5.2839-2.23918 5.2839-1.50315 5.06641-0.926212 4.6337-0.508425 4.19985-0.0928938 3.5966 0.114286 2.82508 0.114286 2.049 0.114286 1.44346-0.0929026 1.00733-0.508425 0.570051-0.926242 0.352557-1.50315 0.352557-2.23918 0.352557-2.97749 0.570048-3.55443 1.00733-3.96993 1.44346-4.38775 2.049-4.59722 2.82508-4.59722Z" transform="matrix(1.01193 0 0 1 782.438 248.653)"/><path d="M4.84894-3.74095C5.02865-4.01797 5.24387-4.23089 5.49453-4.37741 5.74408-4.52393 6.01881-4.59719 6.31871-4.59719 6.83382-4.59719 7.22646-4.43693 7.49544-4.11643 7.76673-3.79821 7.90295-3.33805 7.90295-2.73363L7.90295-0.000117216 6.46063-0.000117216 6.46063-2.33987 6.46063-2.44518C6.46292-2.4841 6.46521-2.53904 6.46521-2.61002 6.46521-2.92709 6.41713-3.15604 6.32327-3.29684 6.23169-3.43993 6.08174-3.51205 5.87456-3.51205 5.60213-3.51205 5.39152-3.39872 5.24271-3.17323 5.09275-2.95002 5.01606-2.62607 5.01377-2.20254L5.01377-0.000164103 3.57146-0.000164103 3.57146-2.33992C3.57146-2.83671 3.52796-3.15609 3.44325-3.29687 3.3574-3.43995 3.20516-3.51207 2.98538-3.51207 2.71065-3.51207 2.49773-3.39875 2.34892-3.17326 2.19897-2.95004 2.12456-2.62838 2.12456-2.20713L2.12456-0.000187546 0.682249-0.000187546 0.682249-4.48722 2.12456-4.48722 2.12456-3.83245C2.30085-4.08543 2.50232-4.27658 2.72896-4.40479 2.9579-4.53299 3.20972-4.5971 3.48445-4.5971 3.7958-4.5971 4.07053-4.52155 4.30862-4.37274 4.54672-4.22278 4.72644-4.01215 4.84893-3.74089Z" transform="matrix(1.01193 0 0 1 788.142 248.653)"/><path d="M2.25732-5.76 2.25732-4.48709 3.73626-4.48709 3.73626-3.46145 2.25732-3.46145 2.25732-1.55669C2.25732-1.34835 2.29853-1.2087 2.38095-1.13544 2.46337-1.06218 2.62591-1.02555 2.87088-1.02555L3.60805-1.02555 3.60805 8.79121e-05 2.38095 8.79121e-05C1.81318 8.79121e-05 1.41025-0.116671 1.17216-0.352469 0.936349-0.590564 0.819599-0.991209 0.819599-1.55669L0.819599-3.46145 0.109884-3.46145 0.109884-4.48709 0.819599-4.48709 0.819599-5.76Z" transform="matrix(1.01193 0 0 1 799.685 248.653)"/><path d="M5.20147-2.73351 5.20147 0 3.75915 0 3.75915-2.08334C3.75915-2.47713 3.74999-2.74725 3.73168-2.89377 3.71336-3.04029 3.68246-3.14789 3.6401-3.21887 3.58516-3.31045 3.50846-3.38142 3.41116-3.43407 3.31616-3.48559 3.20741-3.51191 3.08607-3.51191 2.78617-3.51191 2.5515-3.39515 2.38095-3.16393 2.20925-2.93499 2.12454-2.61562 2.12454-2.20697L2.12454-2.9304e-05 0.691399-2.9304e-05 0.691399-6.23622 2.12454-6.23622 2.12454-3.83238C2.34089-4.09108 2.56982-4.2834 2.81137-4.40932 3.05519-4.53409 3.32419-4.59705 3.61723-4.59705 4.13577-4.59705 4.52955-4.43679 4.79853-4.11628 5.06639-3.79807 5.20147-3.33791 5.20147-2.73349Z" transform="matrix(1.01193 0 0 1 803.653 248.653)"/><path d="M5.16952-2.25732 5.16952-1.84525 1.81333-1.84525C1.84996-1.50872 1.9713-1.25688 2.17963-1.08976 2.38682-0.921489 2.67871-0.837925 3.05418-0.837925 3.35637-0.837925 3.66429-0.881424 3.97908-0.970708 4.29615-1.06228 4.62125-1.19736 4.95434-1.37821L4.95434-0.274737C4.61553-0.146532 4.27669-0.0503795 3.93785 0.013726 3.59903 0.0801172 3.26019 0.114459 2.92135 0.114459 2.10863 0.114459 1.47675-0.0915839 1.02573-0.503681 0.577026-0.915754 0.352645-1.49383 0.352645-2.23904 0.352645-2.97164 0.573571-3.54626 1.01656-3.96522 1.4584-4.38646 2.06623-4.59707 2.83892-4.59707 3.54403-4.59707 4.10837-4.38302 4.53304-3.95605 4.95657-3.53137 5.16949-2.96475 5.16949-2.25732ZM3.69518-2.73351C3.69518-3.0048 3.61505-3.22344 3.45708-3.38828 3.29797-3.5554 3.09078-3.64011 2.83437-3.64011 2.55621-3.64011 2.3307-3.56227 2.15672-3.40659 1.98274-3.25091 1.87398-3.02655 1.83162-2.73351Z" transform="matrix(1.01193 0 0 1 809.564 248.653)"/><path d="M0.755487-5.97978 2.4771-5.97978 4.65201-1.87722 4.65201-5.97978 6.11264-5.97978 6.11264 0 4.39103 0 2.21612-4.10256 2.21612 0 0.755487 0Z" transform="matrix(1.01193 0 0 1 818.086 248.653)"/><path d="M2.82508-3.57158C2.50687-3.57158 2.26418-3.45711 2.09705-3.22816 1.92879-2.99922 1.84522-2.66957 1.84522-2.23915 1.84522-1.80873 1.92879-1.47906 2.09705-1.25014 2.26418-1.02349 2.50684-0.911326 2.82508-0.911326 3.13644-0.911326 3.37454-1.0235 3.53937-1.25014 3.70649-1.47908 3.7912-1.80873 3.7912-2.23915 3.7912-2.66957 3.7065-2.99924 3.53937-3.22816 3.37454-3.4571 3.13644-3.57158 2.82508-3.57158ZM2.82508-4.59722C3.5966-4.59722 4.19985-4.38774 4.6337-3.96993 5.0664-3.5544 5.2839-2.97749 5.2839-2.23918 5.2839-1.50315 5.06641-0.926212 4.6337-0.508425 4.19985-0.0928938 3.5966 0.114286 2.82508 0.114286 2.049 0.114286 1.44346-0.0929026 1.00733-0.508425 0.570051-0.926242 0.352557-1.50315 0.352557-2.23918 0.352557-2.97749 0.570048-3.55443 1.00733-3.96993 1.44346-4.38775 2.049-4.59722 2.82508-4.59722Z" transform="matrix(1.01193 0 0 1 825.035 248.653)"/><path d="M0.641026-1.7491 0.641026-4.48721 2.08334-4.48721 2.08334-4.03851C2.08334-3.79354 2.08105-3.48905 2.07876-3.12275 2.07533-2.75645 2.07418-2.5115 2.07418-2.39015 2.07418-2.02614 2.08334-1.76516 2.10166-1.60718 2.12226-1.44807 2.15431-1.3336 2.19781-1.26377 2.25848-1.16876 2.33632-1.0955 2.43133-1.04399 2.52519-0.994763 2.63394-0.970725 2.75642-0.970725 3.05518-0.970725 3.28985-1.08519 3.46154-1.31414 3.6321-1.54308 3.71795-1.8613 3.71795-2.27109L3.71795-4.48721 5.15109-4.48721 5.15109-0.000175824 3.71795-0.000175824 3.71795-0.650374C3.50046-0.387095 3.27153-0.193641 3.03112-0.0688645 2.78959 0.0524718 2.52287 0.114286 2.22983 0.114286 1.71358 0.114286 1.31979-0.0436806 1.04853-0.361905 0.776091-0.678974 0.641026-1.14145 0.641026-1.74927Z" transform="matrix(1.01193 0 0 1 830.74 248.653)"/><path d="M5.20147-2.73351 5.20147 0 3.75915 0 3.75915-2.09248C3.75915-2.47938 3.74999-2.74725 3.73168-2.89377 3.71336-3.04029 3.68246-3.14789 3.6401-3.21887 3.58516-3.31045 3.50846-3.38142 3.41116-3.43407 3.31616-3.48559 3.20741-3.51191 3.08607-3.51191 2.78617-3.51191 2.5515-3.39515 2.38095-3.16393 2.20925-2.93499 2.12454-2.61562 2.12454-2.20697L2.12454-2.9304e-05 0.691399-2.9304e-05 0.691399-4.48706 2.12454-4.48706 2.12454-3.83229C2.34089-4.09099 2.56982-4.28331 2.81137-4.40923 3.05519-4.534 3.32419-4.59696 3.61723-4.59696 4.13577-4.59696 4.52955-4.4367 4.79853-4.1162 5.06639-3.79798 5.20147-3.33782 5.20147-2.7334Z" transform="matrix(1.01193 0 0 1 836.651 248.653)"/><path d="M0.755487-5.97978 3.31502-5.97978C4.07511-5.97978 4.65773-5.81037 5.06412-5.47153 5.47276-5.135 5.67768-4.65421 5.67768-4.02922 5.67768-3.40308 5.47279-2.92117 5.06412-2.58233 4.65776-2.24352 4.07511-2.07408 3.31502-2.07408L2.29395-2.07408 2.29395 8.79121e-05 0.755487 8.79121e-05ZM2.29395-4.86256 2.29395-3.19133 3.15018-3.19133C3.44894-3.19133 3.67903-3.26459 3.84158-3.41111 4.00642-3.55763 4.08884-3.76366 4.08884-4.02925 4.08884-4.2971 4.00642-4.50315 3.84158-4.64738 3.67904-4.79047 3.44897-4.86259 3.15018-4.86259Z" transform="matrix(1.01193 0 0 1 845.452 248.653)"/><path d="M4.02462-3.26476C3.89641-3.322 3.76935-3.36549 3.64457-3.39297 3.52209-3.42273 3.39846-3.43875 3.2737-3.43875 2.90397-3.43875 2.62007-3.31971 2.42207-3.0816 2.22289-2.84579 2.12445-2.50926 2.12445-2.0697L2.12445-0.000102564 0.691311-0.000102564 0.691311-4.48714 2.12445-4.48714 2.12445-3.74996C2.3076-4.043 2.51824-4.25593 2.75631-4.39099 2.99669-4.52835 3.28401-4.59703 3.61711-4.59703 3.66519-4.59703 3.71785-4.5936 3.77279-4.58787 3.83002-4.58444 3.91244-4.57643 4.02004-4.56498Z" transform="matrix(1.01193 0 0 1 851.538 248.653)"/><path d="M2.82508-3.57158C2.50687-3.57158 2.26418-3.45711 2.09705-3.22816 1.92879-2.99922 1.84522-2.66957 1.84522-2.23915 1.84522-1.80873 1.92879-1.47906 2.09705-1.25014 2.26418-1.02349 2.50684-0.911326 2.82508-0.911326 3.13644-0.911326 3.37454-1.0235 3.53937-1.25014 3.70649-1.47908 3.7912-1.80873 3.7912-2.23915 3.7912-2.66957 3.7065-2.99924 3.53937-3.22816 3.37454-3.4571 3.13644-3.57158 2.82508-3.57158ZM2.82508-4.59722C3.5966-4.59722 4.19985-4.38774 4.6337-3.96993 5.0664-3.5544 5.2839-2.97749 5.2839-2.23918 5.2839-1.50315 5.06641-0.926212 4.6337-0.508425 4.19985-0.0928938 3.5966 0.114286 2.82508 0.114286 2.049 0.114286 1.44346-0.0929026 1.00733-0.508425 0.570051-0.926242 0.352557-1.50315 0.352557-2.23918 0.352557-2.97749 0.570048-3.55443 1.00733-3.96993 1.44346-4.38775 2.049-4.59722 2.82508-4.59722Z" transform="matrix(1.01193 0 0 1 855.631 248.653)"/><path d="M0.691399-4.48703 2.12454-4.48703 2.12454-0.0823443C2.12454 0.518623 1.97917 0.977641 1.68955 1.29585 1.40224 1.61292 0.98444 1.77204 0.434989 1.77204L-0.274725 1.77204-0.274725 0.828806-0.0228923 0.828806C0.248399 0.828806 0.434983 0.766992 0.535701 0.645656 0.638722 0.523174 0.691379 0.280498 0.691379-0.0823736ZM0.691399-6.23613 2.12454-6.23613 2.12454-5.06397 0.691399-5.06397Z" transform="matrix(1.01193 0 0 1 861.336 248.653)"/><path d="M5.16952-2.25732 5.16952-1.84525 1.81333-1.84525C1.84996-1.50872 1.9713-1.25688 2.17963-1.08976 2.38682-0.921489 2.67871-0.837925 3.05418-0.837925 3.35637-0.837925 3.66429-0.881424 3.97908-0.970708 4.29615-1.06228 4.62125-1.19736 4.95434-1.37821L4.95434-0.274737C4.61553-0.146532 4.27669-0.0503795 3.93785 0.013726 3.59903 0.0801172 3.26019 0.114459 2.92135 0.114459 2.10863 0.114459 1.47675-0.0915839 1.02573-0.503681 0.577026-0.915754 0.352645-1.49383 0.352645-2.23904 0.352645-2.97164 0.573571-3.54626 1.01656-3.96522 1.4584-4.38646 2.06623-4.59707 2.83892-4.59707 3.54403-4.59707 4.10837-4.38302 4.53304-3.95605 4.95657-3.53137 5.16949-2.96475 5.16949-2.25732ZM3.69518-2.73351C3.69518-3.0048 3.61505-3.22344 3.45708-3.38828 3.29797-3.5554 3.09078-3.64011 2.83437-3.64011 2.55621-3.64011 2.3307-3.56227 2.15672-3.40659 1.98274-3.25091 1.87398-3.02655 1.83162-2.73351Z" transform="matrix(1.01193 0 0 1 864.182 248.653)"/><path d="M4.31326-4.3452 4.31326-3.17761C4.12095-3.31154 3.92522-3.41113 3.72718-3.47522 3.53144-3.53933 3.32882-3.57138 3.11821-3.57138 2.71757-3.57138 2.40507-3.45347 2.17958-3.21882 1.95636-2.98645 1.84533-2.66023 1.84533-2.23895 1.84533-1.81999 1.95637-1.49375 2.17958-1.25908 2.40508-1.02671 2.71757-0.911097 3.11821-0.911097 3.34028-0.911097 3.5532-0.94315 3.75467-1.00725 3.95613-1.07364 4.14157-1.17323 4.31326-1.30486L4.31326-0.1327C4.09005-0.0502828 3.86224 0.0103853 3.63103 0.0504498 3.4021 0.0928029 3.16973 0.114552 2.93506 0.114552 2.12577 0.114552 1.49275-0.0926359 1.03487-0.508158 0.579282-0.922547 0.352645-1.49945 0.352645-2.23891 0.352645-2.98066 0.579294-3.55874 1.03487-3.97427 1.49275-4.38866 2.12577-4.59698 2.93506-4.59698 3.16972-4.59698 3.40211-4.57523 3.63103-4.53288 3.85997-4.49281 4.08662-4.42986 4.31326-4.34515Z" transform="matrix(1.01193 0 0 1 869.814 248.653)"/><path d="M2.25732-5.76 2.25732-4.48709 3.73626-4.48709 3.73626-3.46145 2.25732-3.46145 2.25732-1.55669C2.25732-1.34835 2.29853-1.2087 2.38095-1.13544 2.46337-1.06218 2.62591-1.02555 2.87088-1.02555L3.60805-1.02555 3.60805 8.79121e-05 2.38095 8.79121e-05C1.81318 8.79121e-05 1.41025-0.116671 1.17216-0.352469 0.936349-0.590564 0.819599-0.991209 0.819599-1.55669L0.819599-3.46145 0.109884-3.46145 0.109884-4.48709 0.819599-4.48709 0.819599-5.76Z" transform="matrix(1.01193 0 0 1 874.735 248.653)"/></g></svg>