<svg width="124" height="128" xmlns="http://www.w3.org/2000/svg" xmlns:xlink="http://www.w3.org/1999/xlink" xml:space="preserve" overflow="hidden"><defs><clipPath id="clip0"><rect x="761" y="224" width="124" height="128"/></clipPath></defs><g clip-path="url(#clip0)" transform="translate(-761 -224)"><path d="M85.7427 85.5502C93.2069 79.0429 100.671 69.282 105.647 59.3287 110.623 49.3753 113.877 37.7016 114.643 27.7482 115.408 16.0735 112.729 8.03509 106.604 5.16425L98.9486 1.33645C93.0155-1.72579 84.7857 0.953668 75.9818 8.60926 68.5176 15.1165 61.0534 24.8774 56.0772 34.8308 51.1011 44.7841 47.8475 56.4578 47.0819 66.4112 46.3163 78.086 48.9958 86.1243 55.1203 88.9952L59.7136 91.2919 57.6083 95.3111C57.417 95.6938 57.0342 96.0766 56.46 96.268 55.8858 96.4594 55.5031 96.4594 54.9289 96.0766L43.0627 89.9521C34.4502 85.5502 27.9429 78.086 24.8807 68.8993 21.8184 59.7125 22.584 49.7603 26.7946 41.1466L29.8568 35.0222 31.9621 36.1705C32.3449 36.3619 32.5363 36.3619 32.9191 36.3619 33.6846 36.3619 34.2588 35.9791 34.6416 35.2135L42.2972 19.9024C42.6799 18.9454 42.2972 17.7971 41.5316 17.4143L33.876 13.5865C32.9191 13.2037 31.7707 13.5865 31.3879 14.3521L23.7323 29.6632C23.3496 30.6202 23.7323 31.7685 24.4979 32.1513L26.6032 33.2996 23.541 39.4241C18.7562 48.9936 17.9906 59.9028 21.4357 70.0465 24.8807 80.1902 31.9621 88.4199 41.5316 93.2058L53.5892 99.3302C54.3547 99.713 55.3117 99.9044 56.0772 99.9044 58.1825 99.9044 60.2878 98.7561 61.2448 96.6508L63.35 92.6316C64.8812 93.3971 66.6037 93.7799 68.3262 93.7799 73.3023 93.9713 79.4268 91.1005 85.7427 85.5502ZM33.6846 17.7982 37.8952 19.9035 31.9621 31.7696 27.7515 29.6643ZM110.814 27.3677C110.048 36.7458 106.794 48.0378 102.201 57.6073 93.0144 75.9807 74.8334 93.781 65.0715 89.378 69.0906 88.2296 73.684 85.7416 78.2774 81.531 85.7416 75.0237 93.2058 65.2628 98.1819 55.3095 103.158 45.3561 106.412 33.6824 107.177 23.7291 107.56 17.6046 106.986 12.4371 105.455 8.60926 111.005 12.0543 111.196 21.8152 110.814 27.3655ZM59.7136 36.363C67.9434 19.9035 83.446 3.8267 93.5907 3.8267 94.9305 3.8267 96.0788 4.01809 97.2271 4.59226 107.179 9.5684 103.926 35.0222 94.5477 53.7805 85.1696 72.5389 66.7951 90.3349 56.8428 85.5513 47.0819 80.5751 50.3355 54.9289 59.7136 36.363ZM42.6799 24.114C43.0627 23.1571 44.2111 22.7743 45.168 23.3485L49.3786 25.4538C52.2494 26.7935 53.3978 30.2385 51.8666 33.1093L51.6753 33.8749C50.7183 35.7888 48.613 37.1285 46.5077 37.1285 45.5508 37.1285 44.7852 36.9371 44.0197 36.5544L39.8091 34.4491C38.8521 34.0663 38.4694 32.918 39.0435 31.961 39.4263 31.0041 40.5746 30.6213 41.5316 31.1954L45.7422 33.3007C46.125 33.4921 46.6991 33.4921 47.2733 33.4921 47.8475 33.3007 48.2302 32.918 48.4216 32.5352L48.8044 31.7696C48.9958 31.3868 48.9958 30.8127 48.9958 30.2385 48.8044 29.6643 48.4216 29.2816 48.0389 29.0902L43.8283 26.9849C42.4885 26.0279 42.1058 24.8796 42.6799 24.114ZM65.2639 77.7032 67.1778 73.8754C67.5606 72.9184 68.709 72.5357 69.6659 73.1098 70.6229 73.4926 71.0056 74.6409 70.4315 75.5979L68.5176 79.4257C68.3262 79.9999 67.752 80.3826 66.9865 80.3826 66.6037 80.3826 66.4123 80.3826 66.2209 80.1913 65.2639 79.6171 64.8812 78.4687 65.2639 77.7032ZM67.1778 64.3059 69.0917 60.4781C69.4745 59.5211 70.6229 59.1384 71.5798 59.7125 72.5368 60.0953 72.9195 61.2437 72.3454 62.2006L70.4315 66.0284C70.2401 66.6026 69.6659 66.9854 68.9003 66.9854 68.5176 66.9854 68.3262 66.9854 68.1348 66.794 67.1778 66.2198 66.7951 65.0715 67.1778 64.3059ZM80.1923 65.837 78.2785 69.6648C77.8957 70.4304 77.3215 70.8131 76.5559 70.8131 76.1732 70.8131 75.9818 70.8131 75.7904 70.6218 74.8334 70.239 74.4507 69.0906 75.0248 68.1337L76.9387 64.3059C77.3215 63.3489 78.4698 62.9662 79.4268 63.5403 80.1923 63.9231 80.5751 65.0715 80.1923 65.837ZM133.782 119.809 129.954 112.153C129.571 111.388 128.997 111.005 128.231 111.005L122.49 111.005 122.49 109.091C122.49 105.837 120.001 103.349 116.748 103.349L112.92 103.349 112.92 97.6077 114.834 97.6077C115.982 97.6077 116.748 96.8422 116.748 95.6938L116.748 89.9521 128.231 89.9521C128.805 89.9521 129.38 89.5694 129.762 89.1866 130.145 88.6124 130.145 88.0382 129.954 87.4641L121.533 62.3931C120.767 59.3309 117.896 57.417 114.834 57.417 111.772 57.417 108.901 59.3309 107.944 62.3931L100.097 86.1254 89.9532 86.1254C88.8049 86.1254 88.0393 86.891 88.0393 88.0393 88.0393 89.1877 88.8049 89.9532 89.9532 89.9532L97.6088 89.9532 97.6088 95.6949C97.6088 96.8433 98.3744 97.6088 99.5227 97.6088L101.437 97.6088 101.437 103.351 97.6088 103.351C94.3552 103.351 91.8671 105.839 91.8671 109.092L91.8671 111.006 86.1254 111.006C85.3599 111.006 84.7857 111.389 84.4029 112.154L80.5751 119.81C80.1923 120.384 80.3837 121.15 80.5751 121.724 80.7665 122.298 81.7235 122.49 82.2976 122.49L132.059 122.49C132.633 122.49 133.399 122.107 133.782 121.533 134.164 120.958 133.973 120.384 133.782 119.81ZM111.58 63.5403C111.963 62.2006 113.303 61.2437 114.834 61.2437 116.365 61.2437 117.513 62.2006 118.088 63.5403L125.552 86.1243 104.116 86.1243ZM112.92 89.9521 112.92 93.7799 101.437 93.7799 101.437 89.9521ZM105.264 97.6077 109.092 97.6077 109.092 103.349 105.264 103.349ZM85.3599 118.661 87.2738 114.833 93.781 114.833C94.9294 114.833 95.6949 114.067 95.6949 112.919L95.6949 109.091C95.6949 107.943 96.4605 107.177 97.6088 107.177L116.748 107.177C117.896 107.177 118.662 107.943 118.662 109.091L118.662 111.005 107.178 111.005C106.03 111.005 105.264 111.771 105.264 112.919 105.264 114.067 106.03 114.833 107.178 114.833L127.083 114.833 128.997 118.661ZM67.1778 35.5974C75.2162 19.5207 87.6565 13.0134 92.6338 15.6929 93.5907 16.0757 93.9735 17.224 93.3993 18.1809 93.0166 19.1379 91.8682 19.5207 90.9113 18.9465 89.9543 18.5637 87.0835 18.9465 82.8729 21.8174 78.0882 25.2624 73.8776 30.6213 70.6239 37.1285 70.2412 37.8941 69.667 38.2769 68.9014 38.2769 68.5187 38.2769 68.3273 38.2769 68.1359 38.0855 67.1789 37.5113 66.7962 36.363 67.1789 35.5974Z" transform="matrix(1.0017 0 0 1 745.509 223.998)"/><path d="M6.41145-0.38278C6.08079-0.211896 5.73561-0.0828773 5.37589 0.00341221 5.01789 0.0922718 4.64537 0.136703 4.2583 0.136703 3.09629 0.136703 2.17439-0.187982 1.49332-0.83733 0.814052-1.4867 0.474866-2.36845 0.474866-3.48267 0.474866-4.59688 0.814074-5.47859 1.49332-6.128 2.1743-6.77737 3.09621-7.10203 4.2583-7.10203 4.64535-7.10203 5.01789-7.05846 5.37589-6.97216 5.73559-6.88501 6.08079-6.75514 6.41145-6.58256L6.41145-5.14029C6.07653-5.36757 5.7467-5.53418 5.42375-5.63926 5.09992-5.74606 4.759-5.79989 4.40186-5.79989 3.75933-5.79989 3.25437-5.59312 2.88782-5.18129 2.52042-4.77117 2.33758-4.2047 2.33758-3.48272 2.33758-2.76243 2.52043-2.19596 2.88782-1.78414 3.25437-1.37402 3.75933-1.16895 4.40186-1.16895 4.759-1.16895 5.09992-1.22107 5.42375-1.32617 5.74673-1.43297 6.07653-1.60043 6.41145-1.82857Z" transform="matrix(1.0017 0 0 1 760.847 375.196)"/><path d="M4.69244-3.80724C4.54377-3.87559 4.3968-3.92515 4.25157-3.95761 4.10802-3.99179 3.96278-4.00888 3.81752-4.00888 3.38688-4.00888 3.05537-3.87046 2.82297-3.59535 2.59227-3.31937 2.47779-2.92378 2.47779-2.40941L2.47779 0.000135613 0.803137 0.000135613 0.803137-5.23235 2.47779-5.23235 2.47779-4.37451C2.69139-4.71628 2.93747-4.96576 3.21601-5.12299 3.49624-5.2802 3.83119-5.3588 4.22081-5.3588 4.2755-5.3588 4.33531-5.35624 4.40195-5.35197 4.46774-5.34684 4.56258-5.33659 4.68562-5.32121Z" transform="matrix(1.0017 0 0 1 767.882 375.196)"/><path d="M6.02867-2.63156 6.02867-2.15308 2.11535-2.15308C2.15636-1.7609 2.29734-1.46699 2.53914-1.27133 2.78266-1.07481 3.12357-0.977401 3.56103-0.977401 3.91135-0.977401 4.27191-1.02867 4.64102-1.13119 5.01013-1.23543 5.38949-1.39435 5.7791-1.60626L5.7791-0.317799C5.38435-0.167421 4.98961-0.0546434 4.59316 0.0205564 4.19671 0.0974535 3.80111 0.136757 3.40722 0.136757 2.45882 0.136757 1.72231-0.103344 1.19607-0.584378 0.671461-1.06712 0.40999-1.74298 0.40999-2.61105 0.40999-3.46546 0.667174-4.1362 1.18237-4.62406 1.6993-5.11365 2.40932-5.35887 3.31159-5.35887 4.13354-5.35887 4.79229-5.11023 5.287-4.61382 5.78085-4.11912 6.02863-3.45866 6.02863-2.63157ZM4.30957-3.18521C4.30957-3.5039 4.21559-3.76023 4.02934-3.95418 3.84478-4.14984 3.60299-4.24811 3.30479-4.24811 2.9784-4.24811 2.71439-4.15669 2.51189-3.9747 2.3111-3.79185 2.1855-3.52868 2.13593-3.18521Z" transform="matrix(1.0017 0 0 1 772.609 375.196)"/><path d="M3.14776-2.35486C2.79915-2.35486 2.53684-2.29505 2.36169-2.17714 2.18567-2.05838 2.09853-1.88409 2.09853-1.65424 2.09853-1.44235 2.16859-1.27573 2.31043-1.15527 2.4514-1.03651 2.64878-0.977554 2.90168-0.977554 3.2161-0.977554 3.48011-1.09034 3.69458-1.31591 3.91075-1.54146 4.01926-1.82343 4.01926-2.16349L4.01926-2.35488ZM5.70429-2.98713 5.70429-0.000131239 4.01938-0.000131239 4.01938-0.775949C3.79383-0.458964 3.54091-0.227415 3.26065-0.0821555 2.98039 0.063104 2.6395 0.136576 2.23876 0.136576 1.6962 0.136576 1.25532-0.0214925 0.916112-0.338487 0.57861-0.654619 0.410296-1.06474 0.410296-1.56885 0.410296-2.18403 0.620484-2.63346 1.04256-2.91884 1.46635-3.20592 2.12939-3.34948 3.03166-3.34948L4.01936-3.34948 4.01936-3.48277C4.01936-3.74677 3.91427-3.94075 3.70494-4.06376 3.49731-4.1868 3.17178-4.24831 2.72747-4.24831 2.36947-4.24831 2.03711-4.21157 1.72951-4.13895 1.42193-4.06803 1.13482-3.96123 0.868254-3.81768L0.868254-5.09246C1.22796-5.18132 1.58768-5.24711 1.94824-5.29069 2.3105-5.33597 2.67108-5.35904 3.03164-5.35904 3.97662-5.35904 4.65845-5.17192 5.07542-4.79854 5.49409-4.42688 5.70427-3.82281 5.70427-2.98719Z" transform="matrix(1.0017 0 0 1 779.11 375.196)"/><path d="M2.63156-6.71921 2.63156-5.23251 4.35406-5.23251 4.35406-4.03631 2.63156-4.03631 2.63156-1.81816C2.63156-1.57379 2.6794-1.40889 2.7751-1.3226 2.87079-1.23801 3.06218-1.19615 3.34927-1.19615L4.21052-1.19615 4.21052 4.81209e-05 2.7751 4.81209e-05C2.11379 4.81209e-05 1.64555-0.137514 1.37043-0.413485 1.09445-0.688605 0.956895-1.15682 0.956895-1.81816L0.956895-4.03631 0.126394-4.03631 0.126394-5.23251 0.956895-5.23251 0.956895-6.7192Z" transform="matrix(1.0017 0 0 1 785.579 375.196)"/><path d="M6.02867-2.63156 6.02867-2.15308 2.11535-2.15308C2.15636-1.7609 2.29734-1.46699 2.53914-1.27133 2.78266-1.07481 3.12357-0.977401 3.56103-0.977401 3.91135-0.977401 4.27191-1.02867 4.64102-1.13119 5.01013-1.23543 5.38949-1.39435 5.7791-1.60626L5.7791-0.317799C5.38435-0.167421 4.98961-0.0546434 4.59316 0.0205564 4.19671 0.0974535 3.80111 0.136757 3.40722 0.136757 2.45882 0.136757 1.72231-0.103344 1.19607-0.584378 0.671461-1.06712 0.40999-1.74298 0.40999-2.61105 0.40999-3.46546 0.667174-4.1362 1.18237-4.62406 1.6993-5.11365 2.40932-5.35887 3.31159-5.35887 4.13354-5.35887 4.79229-5.11023 5.287-4.61382 5.78085-4.11912 6.02863-3.45866 6.02863-2.63157ZM4.30957-3.18521C4.30957-3.5039 4.21559-3.76023 4.02934-3.95418 3.84478-4.14984 3.60299-4.24811 3.30479-4.24811 2.9784-4.24811 2.71439-4.15669 2.51189-3.9747 2.3111-3.79185 2.1855-3.52868 2.13593-3.18521Z" transform="matrix(1.0017 0 0 1 790.161 375.196)"/><path d="M4.36434-4.46693 4.36434-7.26931 6.04584-7.26931 6.04584 0 4.36434 0 4.36434-0.755301C4.13365-0.447721 3.8799-0.222143 3.6022-0.0785901 3.32367 0.0649522 3.00239 0.136725 2.63842 0.136725 1.99334 0.136725 1.4636-0.119607 1.04921-0.632247 0.63653-1.14491 0.430616-1.80452 0.430616-2.61109 0.430616-3.41766 0.636532-4.07726 1.04921-4.58993 1.4636-5.10259 1.99334-5.3589 2.63842-5.3589 3.00069-5.3589 3.32025-5.28542 3.59879-5.14017 3.87902-4.99662 4.13365-4.77191 4.36434-4.46689ZM3.26043-1.08009C3.62013-1.08009 3.89355-1.21082 4.08067-1.47313 4.2695-1.73458 4.36434-2.11395 4.36434-2.61121 4.36434-3.11018 4.26951-3.4904 4.08067-3.75273 3.89355-4.01418 3.62013-4.14577 3.26043-4.14577 2.90499-4.14577 2.63243-4.01419 2.4436-3.75273 2.25648-3.49043 2.16336-3.11021 2.16336-2.61121 2.16336-2.11395 2.25649-1.73458 2.4436-1.47313 2.63243-1.21083 2.90499-1.08009 3.26043-1.08009Z" transform="matrix(1.0017 0 0 1 796.662 375.196)"/><path d="M3.58851-1.07999C3.94565-1.07999 4.21906-1.21071 4.40875-1.47302 4.59757-1.73447 4.69242-2.11384 4.69242-2.6111 4.69242-3.11007 4.59758-3.49029 4.40875-3.75262 4.21907-4.01407 3.94565-4.14566 3.58851-4.14566 3.23051-4.14566 2.95624-4.01322 2.76485-3.74921 2.57346-3.4869 2.47777-3.10754 2.47777-2.61113 2.47777-2.11642 2.57346-1.73705 2.76485-1.47305 2.95624-1.21074 3.23051-1.08001 3.58851-1.08001ZM2.47777-4.46682C2.70761-4.77184 2.96309-4.99657 3.24333-5.1401 3.52356-5.28535 3.84569-5.35883 4.21053-5.35883 4.85476-5.35883 5.38451-5.1025 5.79975-4.58986 6.21413-4.07719 6.42177-3.41759 6.42177-2.61102 6.42177-1.80445 6.21415-1.14484 5.79975-0.632177 5.38451-0.119515 4.85476 0.136795 4.21053 0.136795 3.84569 0.136795 3.52359 0.0633139 3.24333-0.0819367 2.96306-0.227187 2.70761-0.451899 2.47777-0.755213L2.47777 8.74925e-05 0.803116 8.74925e-05 0.803116-7.26923 2.47777-7.26923Z" transform="matrix(1.0017 0 0 1 806.861 375.196)"/><path d="M0.116201-5.23249 1.79085-5.23249 3.19552-1.68161 4.39172-5.23249 6.06637-5.23249 3.8655 0.495645C3.6442 1.07837 3.38531 1.48505 3.08968 1.71575 2.79575 1.94815 2.407 2.06436 1.92426 2.06436L0.957048 2.06436 0.957048 0.967295 1.47995 0.967295C1.76447 0.967295 1.97039 0.921156 2.09854 0.830588 2.22841 0.741729 2.32924 0.579397 2.40271 0.345267L2.44714 0.201725Z" transform="matrix(1.0017 0 0 1 813.722 375.196)"/><path d="M2.67596-5.61527 2.67596-1.36029 3.32189-1.36029C4.05755-1.36029 4.6189-1.54228 5.0068-1.90712 5.39385-2.27111 5.5878-2.80083 5.5878-3.49633 5.5878-4.18669 5.39384-4.71132 5.0068-5.07187 4.62146-5.43414 4.06011-5.61529 3.32189-5.61529ZM0.87825-6.97551 2.77507-6.97551C3.83456-6.97551 4.62232-6.90033 5.13999-6.74996 5.65947-6.59958 6.10464-6.34325 6.4763-5.98099 6.80184-5.66656 7.0445-5.30257 7.20426-4.89074 7.36318-4.48062 7.44351-4.01582 7.44351-3.49633 7.44351-2.97002 7.3632-2.49922 7.20426-2.08484 7.04449-1.67216 6.80184-1.30902 6.4763-0.994593 6.10208-0.634036 5.6535-0.377705 5.12975-0.225621 4.60515-0.0752436 3.82078-6.56194e-05 2.77489-6.56194e-05L0.878075-6.56194e-05Z" transform="matrix(1.0017 0 0 1 823.308 375.196)"/><path d="M6.02867-2.63156 6.02867-2.15308 2.11535-2.15308C2.15636-1.7609 2.29734-1.46699 2.53914-1.27133 2.78266-1.07481 3.12357-0.977401 3.56103-0.977401 3.91135-0.977401 4.27191-1.02867 4.64102-1.13119 5.01013-1.23543 5.38949-1.39435 5.7791-1.60626L5.7791-0.317799C5.38435-0.167421 4.98961-0.0546434 4.59316 0.0205564 4.19671 0.0974535 3.80111 0.136757 3.40722 0.136757 2.45882 0.136757 1.72231-0.103344 1.19607-0.584378 0.671461-1.06712 0.40999-1.74298 0.40999-2.61105 0.40999-3.46546 0.667174-4.1362 1.18237-4.62406 1.6993-5.11365 2.40932-5.35887 3.31159-5.35887 4.13354-5.35887 4.79229-5.11023 5.287-4.61382 5.78085-4.11912 6.02863-3.45866 6.02863-2.63157ZM4.30957-3.18521C4.30957-3.5039 4.21559-3.76023 4.02934-3.95418 3.84478-4.14984 3.60299-4.24811 3.30479-4.24811 2.9784-4.24811 2.71439-4.15669 2.51189-3.9747 2.3111-3.79185 2.1855-3.52868 2.13593-3.18521Z" transform="matrix(1.0017 0 0 1 831.265 375.196)"/><path d="M6.06629-3.18516 6.06629 0 4.38138 0 4.38138-2.44017C4.38138-2.8913 4.37113-3.20231 4.35063-3.37319 4.33183-3.54407 4.29765-3.67053 4.2481-3.75255 4.18145-3.86192 4.09259-3.94565 3.98151-4.00545 3.86958-4.06697 3.74226-4.09773 3.59873-4.09773 3.25011-4.09773 2.97499-3.96273 2.77507-3.69443 2.57685-3.42528 2.47773-3.05191 2.47773-2.57343L2.47773 0.000157487 0.803078 0.000157487 0.803078-5.23233 2.47773-5.23233 2.47773-4.46677C2.72807-4.77179 2.99466-4.99652 3.27745-5.14005 3.56198-5.2853 3.87641-5.35878 4.22073-5.35878 4.82395-5.35878 5.28193-5.17252 5.59463-4.80169 5.90905-4.43258 6.06626-3.89346 6.06626-3.18514Z" transform="matrix(1.0017 0 0 1 837.766 375.196)"/><path d="M0.803159-5.23249 2.47781-5.23249 2.47781 0 0.803159 0ZM0.803159-7.26942 2.47781-7.26942 2.47781-5.90577 0.803159-5.90577Z" transform="matrix(1.0017 0 0 1 844.591 375.196)"/><path d="M4.89061-5.06844 4.89061-3.80048C4.53261-3.94829 4.18743-4.06022 3.85505-4.1354 3.52184-4.21059 3.20741-4.24818 2.91177-4.24818 2.59223-4.24818 2.35554-4.20802 2.2009-4.12856 2.04795-4.04825 1.97191-3.92692 1.97191-3.76286 1.97191-3.62787 2.03001-3.52449 2.14621-3.45185 2.26241-3.38093 2.47175-3.32881 2.77506-3.29464L3.06899-3.25363C3.92513-3.14426 4.50186-2.96398 4.79833-2.71362 5.09396-2.46499 5.24261-2.07451 5.24261-1.54135 5.24261-0.982561 5.03584-0.563887 4.62402-0.283648 4.2139-0.00341002 3.60042 0.136731 2.78532 0.136731 2.43843 0.136731 2.08127 0.10939 1.71218 0.0547069 1.34309 2.40604e-05 0.963704-0.0820002 0.5741-0.191366L0.5741-1.46274C0.906462-1.3004 1.24823-1.17907 1.5994-1.09704 1.94972-1.01673 2.30687-0.977425 2.66913-0.977425 2.99467-0.977425 3.23989-1.02185 3.40393-1.11072 3.56969-1.20128 3.65342-1.33627 3.65342-1.51401 3.65342-1.66439 3.59617-1.77546 3.48254-1.84893 3.36804-1.92156 3.14162-1.9788 2.80241-2.01982L2.50848-2.05741C1.76344-2.15054 1.24137-2.32227 0.943198-2.57349 0.644148-2.82638 0.495477-3.21004 0.495477-3.72524 0.495477-4.27889 0.685158-4.68901 1.06623-4.9556 1.44645-5.2239 2.0283-5.3589 2.81267-5.3589 3.12025-5.3589 3.44323-5.33497 3.78329-5.28713 4.1225-5.24099 4.49161-5.16836 4.89062-5.0684Z" transform="matrix(1.0017 0 0 1 847.877 375.196)"/><path d="M5.73491-6.75683 5.73491-5.28039C5.34958-5.45128 4.97447-5.57944 4.6105-5.66658 4.24566-5.75544 3.90133-5.79987 3.57836-5.79987 3.14945-5.79987 2.83159-5.74006 2.62482-5.62215 2.41976-5.50339 2.31724-5.31884 2.31724-5.0685 2.31724-4.88138 2.38645-4.73529 2.52572-4.63104 2.66413-4.52851 2.9162-4.43965 3.28102-4.36445L4.04658-4.21066C4.82069-4.05344 5.37263-3.81591 5.70073-3.49978 6.02883-3.18279 6.19288-2.73166 6.19288-2.14638 6.19288-1.3757 5.96389-0.803238 5.50593-0.427283 5.04968-0.0513275 4.35247 0.136628 3.41431 0.136628 2.97173 0.136628 2.52742 0.0939079 2.08141 0.0101754 1.63712-0.0735571 1.19281-0.199157 0.748503-0.36578L0.748503-1.88323C1.19279-1.64571 1.62172-1.46714 2.03696-1.34666 2.45391-1.22789 2.8555-1.16894 3.2434-1.16894 3.63473-1.16894 3.93463-1.23388 4.14225-1.36375 4.35158-1.49533 4.45668-1.68244 4.45668-1.92424 4.45668-2.14298 4.38576-2.31129 4.24478-2.43006 4.10295-2.54797 3.82099-2.65391 3.3972-2.7479L2.69999-2.90169C2.00278-3.05207 1.49185-3.28959 1.16887-3.61598 0.847599-3.94408 0.686985-4.38495 0.686985-4.93863 0.686985-5.63327 0.910834-6.16729 1.36026-6.54151 1.80884-6.91489 2.45392-7.10201 3.29468-7.10201 3.67746-7.10201 4.07135-7.07296 4.47718-7.01657 4.88218-6.95932 5.30169-6.87303 5.73489-6.75683Z" transform="matrix(1.0017 0 0 1 856.92 375.196)"/><path d="M6.06629-3.18516 6.06629 0 4.38138 0 4.38138-2.42989C4.38138-2.88787 4.37113-3.20227 4.35063-3.37316 4.33183-3.54405 4.29765-3.67051 4.2481-3.75253 4.18145-3.8619 4.09259-3.94563 3.98151-4.00543 3.86958-4.06695 3.74226-4.09771 3.59873-4.09771 3.25011-4.09771 2.97499-3.96271 2.77507-3.69441 2.57685-3.42526 2.47773-3.05189 2.47773-2.57341L2.47773 0.00017936 0.803078 0.00017936 0.803078-7.26914 2.47773-7.26914 2.47773-4.46675C2.72807-4.77177 2.99466-4.9965 3.27745-5.14003 3.56198-5.28528 3.87641-5.35876 4.22073-5.35876 4.82395-5.35876 5.28193-5.1725 5.59463-4.80167 5.90905-4.43256 6.06626-3.89343 6.06626-3.18512Z" transform="matrix(1.0017 0 0 1 863.823 375.196)"/><path d="M0.748477-2.03693 0.748477-5.23238 2.42997-5.23238 2.42997-4.70948C2.42997-4.42666 2.42741-4.07122 2.42314-3.64317 2.42057-3.21426 2.41972-2.92888 2.41972-2.78532 2.41972-2.36324 2.42997-2.06078 2.45048-1.87623 2.47269-1.69168 2.512-1.55669 2.56668-1.47294 2.63503-1.36357 2.72389-1.27898 2.83327-1.22004 2.94434-1.16023 3.07252-1.13118 3.21605-1.13118 3.56466-1.13118 3.83808-1.26447 4.03629-1.53104 4.23622-1.79934 4.33705-2.17186 4.33705-2.64863L4.33705-5.23228 6.00828-5.23228 6.00828 0.000207795 4.33705 0.000207795 4.33705-0.755093C4.08415-0.451778 3.81585-0.227054 3.53389-0.0818164 3.25365 0.0634343 2.94349 0.136915 2.60428 0.136915 1.99765 0.136915 1.53626-0.0484949 1.22013-0.420172 0.905699-0.790987 0.748497-1.33014 0.748497-2.03673Z" transform="matrix(1.0017 0 0 1 870.647 375.196)"/><path d="M5.65289-4.36434C5.86479-4.68732 6.11599-4.9334 6.40819-5.10256 6.69954-5.27345 7.01996-5.35889 7.36855-5.35889 7.97006-5.35889 8.42804-5.17263 8.74245-4.80181 9.05687-4.4327 9.21408-3.89357 9.21408-3.18525L9.21408-8.74925e-05 7.53258-8.74925e-05 7.53258-2.72745C7.53429-2.76846 7.53685-2.81033 7.53941-2.8539 7.54112-2.89662 7.54283-2.95985 7.54283-3.04187 7.54283-3.41269 7.48815-3.68184 7.37878-3.84845 7.26942-4.0142 7.09255-4.09793 6.84904-4.09793 6.53205-4.09793 6.28683-3.96635 6.11423-3.70489 5.94079-3.44259 5.85108-3.06407 5.84423-2.57022L5.84423-0.000131239 4.16273-0.000131239 4.16273-2.72749C4.16273-3.30849 4.11232-3.68188 4.01236-3.84849 3.9141-4.01425 3.73724-4.09797 3.48261-4.09797 3.16134-4.09797 2.91271-3.96554 2.73757-3.70152 2.56412-3.43922 2.47783-3.06327 2.47783-2.5737L2.47783-0.000109366 0.792917-0.000109366 0.792917-5.2326 2.47783-5.2326 2.47783-4.46704C2.68289-4.76268 2.9187-4.98482 3.18529-5.13349 3.45188-5.28387 3.74408-5.35905 4.06363-5.35905 4.42589-5.35905 4.7446-5.27104 5.02058-5.09589 5.29826-4.92244 5.50931-4.67895 5.65284-4.3645Z" transform="matrix(1.0017 0 0 1 877.472 375.196)"/><path d="M3.14776-2.35486C2.79915-2.35486 2.53684-2.29505 2.36169-2.17714 2.18567-2.05838 2.09853-1.88409 2.09853-1.65424 2.09853-1.44235 2.16859-1.27573 2.31043-1.15527 2.4514-1.03651 2.64878-0.977554 2.90168-0.977554 3.2161-0.977554 3.48011-1.09034 3.69458-1.31591 3.91075-1.54146 4.01926-1.82343 4.01926-2.16349L4.01926-2.35488ZM5.70429-2.98713 5.70429-0.000131239 4.01938-0.000131239 4.01938-0.775949C3.79383-0.458964 3.54091-0.227415 3.26065-0.0821555 2.98039 0.063104 2.6395 0.136576 2.23876 0.136576 1.6962 0.136576 1.25532-0.0214925 0.916112-0.338487 0.57861-0.654619 0.410296-1.06474 0.410296-1.56885 0.410296-2.18403 0.620484-2.63346 1.04256-2.91884 1.46635-3.20592 2.12939-3.34948 3.03166-3.34948L4.01936-3.34948 4.01936-3.48277C4.01936-3.74677 3.91427-3.94075 3.70494-4.06376 3.49731-4.1868 3.17178-4.24831 2.72747-4.24831 2.36947-4.24831 2.03711-4.21157 1.72951-4.13895 1.42193-4.06803 1.13482-3.96123 0.868254-3.81768L0.868254-5.09246C1.22796-5.18132 1.58768-5.24711 1.94824-5.29069 2.3105-5.33597 2.67108-5.35904 3.03164-5.35904 3.97662-5.35904 4.65845-5.17192 5.07542-4.79854 5.49409-4.42688 5.70427-3.82281 5.70427-2.98719Z" transform="matrix(1.0017 0 0 1 887.46 375.196)"/><path d="M0.116201-5.23249 1.79085-5.23249 3.19552-1.68161 4.39172-5.23249 6.06637-5.23249 3.8655 0.495645C3.6442 1.07837 3.38531 1.48505 3.08968 1.71575 2.79575 1.94815 2.407 2.06436 1.92426 2.06436L0.957048 2.06436 0.957048 0.967295 1.47995 0.967295C1.76447 0.967295 1.97039 0.921156 2.09854 0.830588 2.22841 0.741729 2.32924 0.579397 2.40271 0.345267L2.44714 0.201725Z" transform="matrix(1.0017 0 0 1 893.929 375.196)"/></g></svg>