<svg width="49" height="85" xmlns="http://www.w3.org/2000/svg" xmlns:xlink="http://www.w3.org/1999/xlink" xml:space="preserve" overflow="hidden"><defs><clipPath id="clip0"><rect x="1011" y="58" width="49" height="85"/></clipPath></defs><g clip-path="url(#clip0)" transform="translate(-1011 -58)"><path d="M56 65.5856 50.955 65.5856C50.3975 65.5856 49.9456 65.1337 49.9456 64.5762 49.9456 64.0189 50.3975 63.567 50.955 63.567L56 63.567C56.5575 63.567 57.0094 64.0189 57.0094 64.5762 57.0086 65.1337 56.5568 65.5856 56 65.5856Z" transform="matrix(1 0 0 1.00288 972.716 47.8277)"/><path d="M65.0811 65.5856 60.036 65.5856C59.4786 65.5856 59.0267 65.1337 59.0267 64.5762 59.0267 64.0189 59.4786 63.567 60.036 63.567L65.0811 63.567C65.6386 63.567 66.0904 64.0189 66.0904 64.5762 66.0904 65.1337 65.6386 65.5856 65.0811 65.5856Z" transform="matrix(1 0 0 1.00288 972.716 47.8277)"/><path d="M74.1622 65.5856 69.1171 65.5856C68.5596 65.5856 68.1077 65.1337 68.1077 64.5762 68.1077 64.0189 68.5596 63.567 69.1171 63.567L74.1622 63.567C74.7196 63.567 75.1715 64.0189 75.1715 64.5762 75.1708 65.1337 74.7189 65.5856 74.1622 65.5856Z" transform="matrix(1 0 0 1.00288 972.716 47.8277)"/><path d="M56 71.6396 50.955 71.6396C50.3975 71.6396 49.9456 71.1878 49.9456 70.6303 49.9456 70.073 50.3975 69.6211 50.955 69.6211L56 69.6211C56.5575 69.6211 57.0094 70.073 57.0094 70.6303 57.0086 71.1878 56.5568 71.6396 56 71.6396Z" transform="matrix(1 0 0 1.00288 972.716 47.8277)"/><path d="M65.0811 71.6396 60.036 71.6396C59.4786 71.6396 59.0267 71.1878 59.0267 70.6303 59.0267 70.073 59.4786 69.6211 60.036 69.6211L65.0811 69.6211C65.6386 69.6211 66.0904 70.073 66.0904 70.6303 66.0904 71.1878 65.6386 71.6396 65.0811 71.6396Z" transform="matrix(1 0 0 1.00288 972.716 47.8277)"/><path d="M74.1622 71.6396 69.1171 71.6396C68.5596 71.6396 68.1077 71.1878 68.1077 70.6303 68.1077 70.073 68.5596 69.6211 69.1171 69.6211L74.1622 69.6211C74.7196 69.6211 75.1715 70.073 75.1715 70.6303 75.1708 71.1878 74.7189 71.6396 74.1622 71.6396Z" transform="matrix(1 0 0 1.00288 972.716 47.8277)"/><path d="M56 77.6937 50.955 77.6937C50.3975 77.6937 49.9456 77.2418 49.9456 76.6843 49.9456 76.127 50.3975 75.6751 50.955 75.6751L56 75.6751C56.5575 75.6751 57.0094 76.127 57.0094 76.6843 57.0086 77.2418 56.5568 77.6937 56 77.6937Z" transform="matrix(1 0 0 1.00288 972.716 47.8277)"/><path d="M65.0811 77.6937 60.036 77.6937C59.4786 77.6937 59.0267 77.2418 59.0267 76.6843 59.0267 76.127 59.4786 75.6751 60.036 75.6751L65.0811 75.6751C65.6386 75.6751 66.0904 76.127 66.0904 76.6843 66.0904 77.2418 65.6386 77.6937 65.0811 77.6937Z" transform="matrix(1 0 0 1.00288 972.716 47.8277)"/><path d="M74.1622 77.6937 69.1171 77.6937C68.5596 77.6937 68.1077 77.2418 68.1077 76.6843 68.1077 76.127 68.5596 75.6751 69.1171 75.6751L74.1622 75.6751C74.7196 75.6751 75.1715 76.127 75.1715 76.6843 75.1708 77.2418 74.7189 77.6937 74.1622 77.6937Z" transform="matrix(1 0 0 1.00288 972.716 47.8277)"/><path d="M56 83.7477 50.955 83.7477C50.3975 83.7477 49.9456 83.2959 49.9456 82.7384 49.9456 82.1811 50.3975 81.7292 50.955 81.7292L56 81.7292C56.5575 81.7292 57.0094 82.1811 57.0094 82.7384 57.0086 83.2959 56.5568 83.7477 56 83.7477Z" transform="matrix(1 0 0 1.00288 972.716 47.8277)"/><path d="M65.0811 83.7477 60.036 83.7477C59.4786 83.7477 59.0267 83.2959 59.0267 82.7384 59.0267 82.1811 59.4786 81.7292 60.036 81.7292L65.0811 81.7292C65.6386 81.7292 66.0904 82.1811 66.0904 82.7384 66.0904 83.2959 65.6386 83.7477 65.0811 83.7477Z" transform="matrix(1 0 0 1.00288 972.716 47.8277)"/><path d="M74.1622 83.7477 69.1171 83.7477C68.5596 83.7477 68.1077 83.2959 68.1077 82.7384 68.1077 82.1811 68.5596 81.7292 69.1171 81.7292L74.1622 81.7292C74.7196 81.7292 75.1715 82.1811 75.1715 82.7384 75.1708 83.2959 74.7189 83.7477 74.1622 83.7477Z" transform="matrix(1 0 0 1.00288 972.716 47.8277)"/><path d="M77.6631 88.582 48.4649 88.582C47.6132 88.582 46.92 87.8894 46.92 87.0378L46.92 57.2883 45.0647 53.5777C44.9591 53.3665 44.902 53.1272 44.902 52.8872L44.902 35.1346C44.902 34.2829 45.5946 33.5897 46.447 33.5897L79.6831 33.5897C80.5346 33.5897 81.2279 34.2822 81.2279 35.1346L81.2279 52.8872C81.2279 53.1272 81.1708 53.3665 81.0632 53.5804L79.2094 57.2881 79.2094 87.0377C79.2094 87.8894 78.516 88.582 77.6645 88.582ZM48.9369 86.5641 77.1892 86.5641 77.1892 57.1786C77.1892 56.9386 77.2461 56.6993 77.3539 56.4852L79.207 52.7768 79.207 35.6097 46.9187 35.6097 46.9187 52.7775 48.7741 56.4881C48.8804 56.6986 48.9373 56.9386 48.9373 57.1786Z" transform="matrix(1 0 0 1.00288 972.716 47.8277)"/><path d="M77.1892 54.0234 48.9369 54.0234C48.3795 54.0234 47.9276 53.5715 47.9276 53.0141L47.9276 37.7114C47.9276 37.1541 48.3795 36.7022 48.9369 36.7022L77.1892 36.7022C77.7467 36.7022 78.1986 37.1541 78.1986 37.7114L78.1986 53.0148C78.1978 53.5715 77.7459 54.0234 77.1885 54.0234ZM49.9459 52.0056 76.1802 52.0056 76.1802 38.7202 49.9459 38.7202Z" transform="matrix(1 0 0 1.00288 972.716 47.8277)"/><path d="M77.1892 34.6C76.6317 34.6 76.1798 34.1481 76.1798 33.5906L76.1805 15.0087C76.1805 14.6378 75.8793 14.3366 75.5085 14.3366 75.1375 14.3366 74.8355 14.6378 74.8355 15.0087L74.8355 33.5906C74.8355 34.1481 74.3838 34.6 73.8263 34.6 73.2688 34.6 72.8169 34.1481 72.8169 33.5906L72.8169 15.0087C72.8169 13.525 74.024 12.3179 75.5077 12.3179 76.9915 12.3179 78.1986 13.525 78.1986 15.0087L78.1986 33.5906C78.1986 34.1474 77.7467 34.5993 77.1894 34.5993Z" transform="matrix(1 0 0 1.00288 972.716 47.8277)"/><path d="M55.1586 34.6C54.6011 34.6 54.1492 34.1481 54.1492 33.5906L54.1492 25.4346C54.1492 25.0638 53.8481 24.7618 53.4771 24.7618 53.1061 24.7618 52.8049 25.0638 52.8049 25.4346L52.8049 33.5906C52.8049 34.1481 52.3532 34.6 51.7957 34.6 51.2382 34.6 50.7863 34.1481 50.7863 33.5906L50.7863 25.4346C50.7863 23.951 51.9933 22.7438 53.4771 22.7438 54.9609 22.7438 56.1679 23.951 56.1679 25.4346L56.1679 33.5906C56.1672 34.1481 55.716 34.6 55.1587 34.6Z" transform="matrix(1 0 0 1.00288 972.716 47.8277)"/><path d="M3.38126-0.202703C3.20672-0.112613 3.02441-0.045045 2.8351 0 2.64717 0.0464523 2.45011 0.070382 2.24389 0.070382 1.63157 0.070382 1.14663-0.0999441 0.788378-0.442014 0.429423-0.785474 0.250649-1.25001 0.250649-1.8356 0.250649-2.42259 0.429422-2.88712 0.788378-3.22919 1.14663-3.57265 1.63157-3.7444 2.24389-3.7444 2.45011-3.7444 2.64719-3.72047 2.8351-3.67402 3.02443-3.62897 3.20672-3.56141 3.38126-3.47132L3.38126-2.71117C3.20459-2.82941 3.03076-2.91668 2.86043-2.97299 2.68941-3.0293 2.50923-3.05744 2.31989-3.05744 1.98205-3.05744 1.716-2.94834 1.52315-2.73086 1.3296-2.51479 1.23317-2.21636 1.23317-1.83559 1.23317-1.45622 1.3296-1.1578 1.52315-0.940308 1.716-0.724236 1.98205-0.616542 2.31989-0.616542 2.50923-0.616542 2.68941-0.643288 2.86043-0.698186 3.03076-0.754492 3.20461-0.84247 3.38126-0.962834Z" transform="matrix(1 0 0 1.00288 985.328 164.198)"/><path d="M2.47459-2.00739C2.39577-2.04258 2.31764-2.06932 2.24092-2.08622 2.1656-2.10452 2.0896-2.11436 2.01288-2.11436 1.78555-2.11436 1.61099-2.04117 1.48924-1.89477 1.36678-1.74978 1.30625-1.54286 1.30625-1.27259L1.30625-6.30631e-05 0.425063-6.30631e-05 0.425063-2.75899 1.30625-2.75899 1.30625-2.30573C1.41886-2.48591 1.54838-2.61681 1.69476-2.69987 1.84256-2.78432 2.01923-2.82656 2.22404-2.82656 2.2536-2.82656 2.28598-2.82445 2.31977-2.82092 2.35495-2.81881 2.40562-2.81389 2.47178-2.80685Z" transform="matrix(1 0 0 1.00288 989.031 164.198)"/><path d="M3.17856-1.38795 3.17856-1.13458 1.11495-1.13458C1.13748-0.927658 1.21208-0.772811 1.34018-0.670054 1.46757-0.566591 1.64705-0.515211 1.87791-0.515211 2.06371-0.515211 2.25305-0.541957 2.44659-0.596854 2.64155-0.65316 2.84144-0.736213 3.04625-0.847413L3.04625-0.168926C2.83793-0.0900973 2.62959-0.0309766 2.42124 0.00843964 2.21292 0.0492613 2.00458 0.0703766 1.79623 0.0703766 1.29652 0.0703766 0.908-0.0563117 0.630685-0.309695 0.354793-0.563065 0.216829-0.918506 0.216829-1.3767 0.216829-1.82715 0.352668-2.18047 0.625045-2.43807 0.896721-2.69708 1.27045-2.82658 1.74555-2.82658 2.1791-2.82658 2.52609-2.69495 2.78721-2.43243 3.04762-2.17132 3.17854-1.82292 3.17854-1.38795ZM2.27204-1.68074C2.27204-1.84755 2.22277-1.98198 2.12564-2.08333 2.0278-2.18609 1.90041-2.23818 1.74276-2.23818 1.57173-2.23818 1.43306-2.19032 1.32609-2.09459 1.21912-1.99886 1.15225-1.86092 1.1262-1.68074Z" transform="matrix(1 0 0 1.00288 991.519 164.198)"/><path d="M1.66104-1.24155C1.47665-1.24155 1.33798-1.21058 1.24438-1.14865 1.15218-1.08671 1.10643-0.994506 1.10643-0.872753 1.10643-0.760141 1.14373-0.671456 1.21904-0.608104 1.29365-0.546168 1.39711-0.5152 1.52874-0.5152 1.69554-0.5152 1.8356-0.574321 1.94822-0.692566 2.06223-0.812216 2.11995-0.961431 2.11995-1.14021L2.11995-1.24156ZM3.00677-1.57377 3.00677 0 2.11995 0 2.11995-0.408216C2.00171-0.240704 1.86798-0.118937 1.72016-0.0422342 1.57165 0.0323712 1.39148 0.0703784 1.17962 0.0703784 0.893874 0.0703784 0.662306-0.0119694 0.484234-0.177369 0.305461-0.344177 0.216775-0.560955 0.216775-0.827712 0.216775-1.15007 0.327276-1.38656 0.548991-1.53717 0.772108-1.6892 1.12191-1.76521 1.5991-1.76521L2.11993-1.76521 2.11993-1.83559C2.11993-1.97425 2.06432-2.07559 1.95382-2.13964 1.84261-2.2051 1.67089-2.23818 1.43862-2.23818 1.24858-2.23818 1.07263-2.21917 0.909337-2.18187 0.747456-2.14387 0.597535-2.08757 0.458886-2.01295L0.458886-2.68582C0.646112-2.73086 0.834724-2.76535 1.02476-2.78998 1.2162-2.81391 1.40764-2.82658 1.59908-2.82658 2.09598-2.82658 2.45494-2.72805 2.67454-2.53097 2.89555-2.33532 3.00676-2.01647 3.00676-1.57377Z" transform="matrix(1 0 0 1.00288 994.941 164.198)"/><path d="M1.38795-3.54162 1.38795-2.75895 2.2973-2.75895 2.2973-2.12832 1.38795-2.12832 1.38795-0.957153C1.38795-0.829056 1.41328-0.743189 1.46396-0.698144 1.51464-0.653099 1.61458-0.630577 1.7652-0.630577L2.21847-0.630577 2.21847 5.40541e-05 1.46396 5.40541e-05C1.11486 5.40541e-05 0.867113-0.0717369 0.720717-0.216721 0.575728-0.363117 0.503942-0.609459 0.503942-0.957153L0.503942-2.12832 0.067564-2.12832 0.067564-2.75895 0.503942-2.75895 0.503942-3.54162Z" transform="matrix(1 0 0 1.00288 998.345 164.198)"/><path d="M3.17856-1.38795 3.17856-1.13458 1.11495-1.13458C1.13748-0.927658 1.21208-0.772811 1.34018-0.670054 1.46757-0.566591 1.64705-0.515211 1.87791-0.515211 2.06371-0.515211 2.25305-0.541957 2.44659-0.596854 2.64155-0.65316 2.84144-0.736213 3.04625-0.847413L3.04625-0.168926C2.83793-0.0900973 2.62959-0.0309766 2.42124 0.00843964 2.21292 0.0492613 2.00458 0.0703766 1.79623 0.0703766 1.29652 0.0703766 0.908-0.0563117 0.630685-0.309695 0.354793-0.563065 0.216829-0.918506 0.216829-1.3767 0.216829-1.82715 0.352668-2.18047 0.625045-2.43807 0.896721-2.69708 1.27045-2.82658 1.74555-2.82658 2.1791-2.82658 2.52609-2.69495 2.78721-2.43243 3.04762-2.17132 3.17854-1.82292 3.17854-1.38795ZM2.27204-1.68074C2.27204-1.84755 2.22277-1.98198 2.12564-2.08333 2.0278-2.18609 1.90041-2.23818 1.74276-2.23818 1.57173-2.23818 1.43306-2.19032 1.32609-2.09459 1.21912-1.99886 1.15225-1.86092 1.1262-1.68074Z" transform="matrix(1 0 0 1.00288 1000.76 164.198)"/><path d="M2.30018-2.3564 2.30018-3.83443 3.18701-3.83443 3.18701-1.8018e-05 2.30018-1.8018e-05 2.30018-0.399802C2.17982-0.236514 2.04681-0.116865 1.9004-0.0422523 1.75398 0.0323604 1.58368 0.0703604 1.39083 0.0703604 1.05088 0.0703604 0.772162-0.0647748 0.554685-0.335045 0.336504-0.605315 0.228108-0.952306 0.228108-1.3767 0.228108-1.80252 0.336497-2.15092 0.554685-2.42119 0.772162-2.69146 1.05088-2.82659 1.39083-2.82659 1.58227-2.82659 1.75119-2.78789 1.89759-2.71117 2.04539-2.63375 2.17982-2.51551 2.30018-2.35643ZM1.72022-0.568667C1.90744-0.568667 2.05101-0.636939 2.15095-0.77418 2.2502-0.912834 2.30016-1.11342 2.30016-1.37667 2.30016-1.63919 2.2502-1.83908 2.15095-1.97632 2.05101-2.11497 1.90742-2.18465 1.72022-2.18465 1.53229-2.18465 1.38872-2.11497 1.28948-1.97632 1.18953-1.83908 1.14027-1.63919 1.14027-1.37667 1.14027-1.11344 1.18954-0.912847 1.28948-0.77418 1.38872-0.636933 1.53231-0.568667 1.72022-0.568667Z" transform="matrix(1 0 0 1.00288 1004.18 164.198)"/><path d="M1.89189-0.568685C2.08123-0.568685 2.22551-0.636957 2.32544-0.774198 2.42468-0.912852 2.47465-1.11344 2.47465-1.37668 2.47465-1.63921 2.42468-1.8391 2.32544-1.97634 2.2255-2.11499 2.08121-2.18467 1.89189-2.18467 1.70186-2.18467 1.55686-2.11499 1.45551-1.97634 1.35557-1.83699 1.3063-1.6371 1.3063-1.37668 1.3063-1.11557 1.35557-0.915676 1.45551-0.777027 1.55686-0.637668 1.70186-0.568703 1.89189-0.568703ZM1.30631-2.35641C1.42807-2.51548 1.5625-2.63373 1.7089-2.71115 1.8567-2.78787 2.02703-2.82658 2.21847-2.82658 2.55982-2.82658 2.83924-2.69144 3.05742-2.42117 3.2749-2.1509 3.384-1.8025 3.384-1.37669 3.384-0.952274 3.2749-0.605301 3.05742-0.335031 2.83924-0.0647604 2.55982 0.0703748 2.21847 0.0703748 2.02703 0.0703748 1.8567 0.0323676 1.7089-0.0422378 1.5625-0.118955 1.42807-0.237895 1.30631-0.399787L1.30631-3.6036e-06 0.425117-3.6036e-06 0.425117-3.83441 1.30631-3.83441Z" transform="matrix(1 0 0 1.00288 1009.55 164.198)"/><path d="M0.0619369-2.75892 0.943126-2.75892 1.68637-0.886667 2.31701-2.75892 3.1982-2.75892 2.03829 0.261982C1.92144 0.567441 1.78561 0.781405 1.63006 0.903874 1.47381 1.02775 1.2697 1.08968 1.01633 1.08968L0.503937 1.08968 0.503937 0.509712 0.779829 0.509712C0.929744 0.509712 1.03884 0.485077 1.10641 0.436514 1.17538 0.389357 1.22887 0.304897 1.26688 0.183144L1.29221 0.10713Z" transform="matrix(1 0 0 1.00288 1013.16 164.198)"/><path d="M3.0236-3.56144 3.0236-2.78441C2.8209-2.8745 2.62241-2.94207 2.42957-2.98712 2.23813-3.03357 2.05654-3.0575 1.88622-3.0575 1.66099-3.0575 1.49348-3.02512 1.3851-2.96178 1.27601-2.89984 1.22181-2.80272 1.22181-2.6718 1.22181-2.57396 1.25841-2.49724 1.33161-2.44095 1.40481-2.38605 1.53712-2.3396 1.72856-2.30018L2.13396-2.21854C2.54288-2.1376 2.83286-2.01303 3.00389-1.84411 3.17634-1.6766 3.2629-1.43941 3.2629-1.13184 3.2629-0.726432 3.14256-0.423784 2.90254-0.225315 2.66184-0.0282342 2.29514 0.0702883 1.80175 0.0702883 1.56667 0.0702883 1.33229 0.0477658 1.09793 0.00272072 0.862852-0.0402126 0.628474-0.104966 0.394114-0.191532L0.394114-0.993892C0.628492-0.867906 0.855825-0.772883 1.07541-0.70955 1.29501-0.647613 1.50615-0.616645 1.70885-0.616645 1.91717-0.616645 2.07555-0.650429 2.18463-0.717996 2.29514-0.786971 2.35074-0.886915 2.35074-1.01641 2.35074-1.13043 2.31274-1.21911 2.23813-1.28106 2.16281-1.343 2.0136-1.3993 1.79049-1.44998L1.42451-1.52881C1.0564-1.60764 0.786831-1.73292 0.616506-1.90607 0.447587-2.0785 0.363137-2.31148 0.363137-2.60427 0.363137-2.97025 0.48138-3.2518 0.717876-3.44886 0.954371-3.64593 1.29361-3.74447 1.73701-3.74447 1.93971-3.74447 2.14663-3.72897 2.35919-3.69942 2.57315-3.66915 2.79416-3.62341 3.0236-3.56148Z" transform="matrix(1 0 0 1.00288 1018.2 164.198)"/><path d="M2.69423-0.670054 1.21337-0.670054 0.976883 0 0.0253153 0 1.38793-3.67676 2.51686-3.67676 3.87948 0 2.92791 0ZM1.44987-1.35135 2.45494-1.35135 1.95382-2.81532Z" transform="matrix(1 0 0 1.00288 1021.84 164.198)"/><path d="M2.69423-0.670054 1.21337-0.670054 0.976883 0 0.0253153 0 1.38793-3.67676 2.51686-3.67676 3.87948 0 2.92791 0ZM1.44987-1.35135 2.45494-1.35135 1.95382-2.81532Z" transform="matrix(1 0 0 1.00288 1025.74 164.198)"/><path d="M1.41047-2.9618 1.41047-0.718018 1.75112-0.718018C2.13962-0.718018 2.43595-0.813739 2.64076-1.00519 2.84486-1.19663 2.94762-1.47605 2.94762-1.84414 2.94762-2.20802 2.84486-2.48463 2.64076-2.67467 2.43805-2.86611 2.14105-2.96184 1.75112-2.96184ZM0.464523-3.6769 1.46396-3.6769C2.02141-3.6769 2.43665-3.63748 2.71115-3.55865 2.98494-3.47982 3.21932-3.34468 3.41497-3.15324 3.58741-2.98786 3.71481-2.79641 3.79786-2.57894 3.88232-2.36285 3.92454-2.11791 3.92454-1.84414 3.92454-1.56612 3.88231-1.31837 3.79786-1.10089 3.71481-0.882712 3.58741-0.690568 3.41497-0.523757 3.21789-0.333721 2.98142-0.198586 2.70551-0.118351 2.42962-0.0395225 2.01577-0.000108108 1.46396-0.000108108L0.464523-0.000108108Z" transform="matrix(1 0 0 1.00288 1029.64 164.198)"/><path d="M0.464523-3.67676 1.41047-3.67676 1.41047 0 0.464523 0Z" transform="matrix(1 0 0 1.00288 1033.83 164.198)"/><path d="M2.69423-0.670054 1.21337-0.670054 0.976883 0 0.0253153 0 1.38793-3.67676 2.51686-3.67676 3.87948 0 2.92791 0ZM1.44987-1.35135 2.45494-1.35135 1.95382-2.81532Z" transform="matrix(1 0 0 1.00288 1037.47 164.198)"/><path d="M0.464523-3.67676 1.41047-3.67676 1.41047-0.717838 3.07714-0.717838 3.07714 7.20721e-05 0.464523 7.20721e-05Z" transform="matrix(1 0 0 1.00288 1041.37 164.198)"/><path d="M2.69423-0.670054 1.21337-0.670054 0.976883 0 0.0253153 0 1.38793-3.67676 2.51686-3.67676 3.87948 0 2.92791 0ZM1.44987-1.35135 2.45494-1.35135 1.95382-2.81532Z" transform="matrix(1 0 0 1.00288 1044.59 164.198)"/><path d="M2.2382-3.83441 2.2382-3.25445 1.75115-3.25445C1.62728-3.25445 1.54-3.23193 1.48933-3.18688 1.44006-3.14184 1.41614-3.06301 1.41614-2.9504L1.41614-2.75895 2.17065-2.75895 2.17065-2.12832 1.41614-2.12832 1.41614-3.6036e-05 0.534946-3.6036e-05 0.534946-2.12832 0.0957567-2.12832 0.0957567-2.75895 0.534946-2.75895 0.534946-2.9504C0.534946-3.25023 0.617998-3.47263 0.785505-3.61762 0.952312-3.76191 1.21203-3.8344 1.56534-3.8344Z" transform="matrix(1 0 0 1.00288 985.328 169.258)"/><path d="M2.47459-2.00739C2.39577-2.04258 2.31764-2.06932 2.24092-2.08622 2.1656-2.10452 2.0896-2.11436 2.01288-2.11436 1.78555-2.11436 1.61099-2.04117 1.48924-1.89477 1.36678-1.74978 1.30625-1.54286 1.30625-1.27259L1.30625-6.30631e-05 0.425063-6.30631e-05 0.425063-2.75899 1.30625-2.75899 1.30625-2.30573C1.41886-2.48591 1.54838-2.61681 1.69476-2.69987 1.84256-2.78432 2.01923-2.82656 2.22404-2.82656 2.2536-2.82656 2.28598-2.82445 2.31977-2.82092 2.35495-2.81881 2.40562-2.81389 2.47178-2.80685Z" transform="matrix(1 0 0 1.00288 987.524 169.258)"/><path d="M1.73705-2.19604C1.54139-2.19604 1.39216-2.12566 1.28941-1.98488 1.18594-1.84411 1.13456-1.64142 1.13456-1.37677 1.13456-1.11213 1.18594-0.909423 1.28941-0.768667 1.39216-0.629308 1.54137-0.560342 1.73705-0.560342 1.92849-0.560342 2.07488-0.629317 2.17623-0.768667 2.27899-0.909432 2.33108-1.11213 2.33108-1.37677 2.33108-1.64142 2.27899-1.84413 2.17623-1.98488 2.07488-2.12564 1.92849-2.19604 1.73705-2.19604ZM1.73705-2.82667C2.21142-2.82667 2.58234-2.69787 2.8491-2.44097 3.11515-2.18548 3.24888-1.83076 3.24888-1.37679 3.24888-0.924234 3.11515-0.569495 2.8491-0.312613 2.58234-0.0571171 2.21142 0.0702703 1.73705 0.0702703 1.25986 0.0702703 0.887531-0.0571225 0.619369-0.312613 0.350504-0.569513 0.216775-0.924234 0.216775-1.37679 0.216775-1.83076 0.350503-2.1855 0.619369-2.44097 0.887531-2.69787 1.25986-2.82667 1.73705-2.82667Z" transform="matrix(1 0 0 1.00288 990.012 169.258)"/><path d="M2.98144-2.30018C3.09195-2.4705 3.22427-2.60142 3.3784-2.69151 3.53184-2.7816 3.70076-2.82665 3.88515-2.82665 4.20187-2.82665 4.4433-2.72811 4.60868-2.53104 4.7755-2.33539 4.85924-2.05245 4.85924-1.68081L4.85924-7.20721e-05 3.97241-7.20721e-05 3.97241-1.4387 3.97241-1.50346C3.97382-1.52739 3.97523-1.56117 3.97523-1.60481 3.97523-1.79976 3.94568-1.94054 3.88795-2.02712 3.83164-2.1151 3.73944-2.15944 3.61205-2.15944 3.44456-2.15944 3.31505-2.08975 3.22355-1.95112 3.13135-1.81386 3.0842-1.61468 3.08279-1.35426L3.08279-0.000100901 2.19596-0.000100901 2.19596-1.43873C2.19596-1.74419 2.16923-1.94058 2.11714-2.02714 2.06434-2.1151 1.97074-2.15944 1.8356-2.15944 1.66668-2.15944 1.53576-2.08977 1.44427-1.95112 1.35207-1.81387 1.30632-1.6161 1.30632-1.35709L1.30632-0.000115315 0.419492-0.000115315 0.419492-2.75903 1.30632-2.75903 1.30632-2.35643C1.41471-2.51198 1.53859-2.62951 1.67794-2.70834 1.8187-2.78717 1.97355-2.82659 2.14247-2.82659 2.33391-2.82659 2.50283-2.78014 2.64923-2.68865 2.79562-2.59643 2.90613-2.46694 2.98144-2.30014Z" transform="matrix(1 0 0 1.00288 993.477 169.258)"/><path d="M1.38795-3.54162 1.38795-2.75895 2.2973-2.75895 2.2973-2.12832 1.38795-2.12832 1.38795-0.957153C1.38795-0.829056 1.41328-0.743189 1.46396-0.698144 1.51464-0.653099 1.61458-0.630577 1.7652-0.630577L2.21847-0.630577 2.21847 5.40541e-05 1.46396 5.40541e-05C1.11486 5.40541e-05 0.867113-0.0717369 0.720717-0.216721 0.575728-0.363117 0.503942-0.609459 0.503942-0.957153L0.503942-2.12832 0.067564-2.12832 0.067564-2.75895 0.503942-2.75895 0.503942-3.54162Z" transform="matrix(1 0 0 1.00288 1000.49 169.258)"/><path d="M3.1982-1.68074 3.1982 0 2.31137 0 2.31137-1.28097C2.31137-1.5231 2.30575-1.68919 2.29449-1.77928 2.28323-1.86937 2.26422-1.93553 2.23818-1.97917 2.2044-2.03548 2.15723-2.07912 2.09741-2.1115 2.03899-2.14317 1.97213-2.15935 1.89751-2.15935 1.71312-2.15935 1.56883-2.08757 1.46396-1.94539 1.35839-1.80461 1.30631-1.60825 1.30631-1.35699L1.30631-1.8018e-05 0.425117-1.8018e-05 0.425117-3.83443 1.30631-3.83443 1.30631-2.3564C1.43933-2.51546 1.58009-2.63371 1.72861-2.71113 1.87852-2.78786 2.04393-2.82656 2.22411-2.82656 2.54294-2.82656 2.78506-2.72802 2.95045-2.53095 3.11515-2.3353 3.1982-2.05236 3.1982-1.68072Z" transform="matrix(1 0 0 1.00288 1002.9 169.258)"/><path d="M3.17856-1.38795 3.17856-1.13458 1.11495-1.13458C1.13748-0.927658 1.21208-0.772811 1.34018-0.670054 1.46757-0.566591 1.64705-0.515211 1.87791-0.515211 2.06371-0.515211 2.25305-0.541957 2.44659-0.596854 2.64155-0.65316 2.84144-0.736213 3.04625-0.847413L3.04625-0.168926C2.83793-0.0900973 2.62959-0.0309766 2.42124 0.00843964 2.21292 0.0492613 2.00458 0.0703766 1.79623 0.0703766 1.29652 0.0703766 0.908-0.0563117 0.630685-0.309695 0.354793-0.563065 0.216829-0.918506 0.216829-1.3767 0.216829-1.82715 0.352668-2.18047 0.625045-2.43807 0.896721-2.69708 1.27045-2.82658 1.74555-2.82658 2.1791-2.82658 2.52609-2.69495 2.78721-2.43243 3.04762-2.17132 3.17854-1.82292 3.17854-1.38795ZM2.27204-1.68074C2.27204-1.84755 2.22277-1.98198 2.12564-2.08333 2.0278-2.18609 1.90041-2.23818 1.74276-2.23818 1.57173-2.23818 1.43306-2.19032 1.32609-2.09459 1.21912-1.99886 1.15225-1.86092 1.1262-1.68074Z" transform="matrix(1 0 0 1.00288 1006.49 169.258)"/><path d="M0.464523-3.67676 1.52308-3.67676 2.86036-1.15423 2.86036-3.67676 3.75845-3.67676 3.75845 0 2.69989 0 1.36261-2.52252 1.36261 0 0.464523 0Z" transform="matrix(1 0 0 1.00288 1011.67 169.258)"/><path d="M1.73705-2.19604C1.54139-2.19604 1.39216-2.12566 1.28941-1.98488 1.18594-1.84411 1.13456-1.64142 1.13456-1.37677 1.13456-1.11213 1.18594-0.909423 1.28941-0.768667 1.39216-0.629308 1.54137-0.560342 1.73705-0.560342 1.92849-0.560342 2.07488-0.629317 2.17623-0.768667 2.27899-0.909432 2.33108-1.11213 2.33108-1.37677 2.33108-1.64142 2.27899-1.84413 2.17623-1.98488 2.07488-2.12564 1.92849-2.19604 1.73705-2.19604ZM1.73705-2.82667C2.21142-2.82667 2.58234-2.69787 2.8491-2.44097 3.11515-2.18548 3.24888-1.83076 3.24888-1.37679 3.24888-0.924234 3.11515-0.569495 2.8491-0.312613 2.58234-0.0571171 2.21142 0.0702703 1.73705 0.0702703 1.25986 0.0702703 0.887531-0.0571225 0.619369-0.312613 0.350504-0.569513 0.216775-0.924234 0.216775-1.37679 0.216775-1.83076 0.350503-2.1855 0.619369-2.44097 0.887531-2.69787 1.25986-2.82667 1.73705-2.82667Z" transform="matrix(1 0 0 1.00288 1015.89 169.258)"/><path d="M0.394144-1.07546 0.394144-2.75903 1.28097-2.75903 1.28097-2.48313C1.28097-2.33252 1.27957-2.1453 1.27816-1.92007 1.27605-1.69485 1.27534-1.54423 1.27534-1.46962 1.27534-1.2458 1.28097-1.08533 1.29223-0.988198 1.3049-0.890366 1.32461-0.819984 1.35135-0.777045 1.38866-0.718627 1.43652-0.673582 1.49494-0.64191 1.55265-0.611645 1.61952-0.596865 1.69483-0.596865 1.87852-0.596865 2.02281-0.667247 2.12838-0.808018 2.23324-0.948784 2.28604-1.14445 2.28604-1.39641L2.28604-2.75903 3.16723-2.75903 3.16723-0.000108108 2.28604-0.000108108 2.28604-0.399892C2.15231-0.238011 2.01155-0.119063 1.86373-0.0423423 1.71522 0.0322631 1.55123 0.0702703 1.37104 0.0702703 1.05362 0.0702703 0.811495-0.0268577 0.644703-0.222523 0.477191-0.417477 0.394144-0.701838 0.394144-1.07557Z" transform="matrix(1 0 0 1.00288 1019.36 169.258)"/><path d="M3.1982-1.68074 3.1982 0 2.31137 0 2.31137-1.28659C2.31137-1.52449 2.30575-1.68919 2.29449-1.77928 2.28323-1.86937 2.26422-1.93553 2.23818-1.97917 2.2044-2.03548 2.15723-2.07912 2.09741-2.1115 2.03899-2.14317 1.97213-2.15935 1.89751-2.15935 1.71312-2.15935 1.56883-2.08757 1.46396-1.94539 1.35839-1.80461 1.30631-1.60825 1.30631-1.35699L1.30631-1.8018e-05 0.425117-1.8018e-05 0.425117-2.75894 1.30631-2.75894 1.30631-2.35634C1.43933-2.51541 1.58009-2.63366 1.72861-2.71108 1.87852-2.7878 2.04393-2.8265 2.22411-2.8265 2.54294-2.8265 2.78506-2.72796 2.95045-2.5309 3.11515-2.33524 3.1982-2.05231 3.1982-1.68067Z" transform="matrix(1 0 0 1.00288 1022.95 169.258)"/><path d="M0.464523-3.67676 2.03829-3.67676C2.50564-3.67676 2.86387-3.57259 3.11375-3.36425 3.36501-3.15733 3.49101-2.86171 3.49101-2.47742 3.49101-2.09243 3.36503-1.79613 3.11375-1.58778 2.86389-1.37946 2.50564-1.27528 2.03829-1.27528L1.41047-1.27528 1.41047 5.40541e-05 0.464523 5.40541e-05ZM1.41047-2.98982 1.41047-1.96223 1.93694-1.96223C2.12063-1.96223 2.26211-2.00728 2.36205-2.09737 2.46341-2.18746 2.51407-2.31414 2.51407-2.47744 2.51407-2.64214 2.46341-2.76883 2.36205-2.85751 2.26211-2.9455 2.12065-2.98984 1.93694-2.98984Z" transform="matrix(1 0 0 1.00288 1028.3 169.258)"/><path d="M2.47459-2.00739C2.39577-2.04258 2.31764-2.06932 2.24092-2.08622 2.1656-2.10452 2.0896-2.11436 2.01288-2.11436 1.78555-2.11436 1.61099-2.04117 1.48924-1.89477 1.36678-1.74978 1.30625-1.54286 1.30625-1.27259L1.30625-6.30631e-05 0.425063-6.30631e-05 0.425063-2.75899 1.30625-2.75899 1.30625-2.30573C1.41886-2.48591 1.54838-2.61681 1.69476-2.69987 1.84256-2.78432 2.01923-2.82656 2.22404-2.82656 2.2536-2.82656 2.28598-2.82445 2.31977-2.82092 2.35495-2.81881 2.40562-2.81389 2.47178-2.80685Z" transform="matrix(1 0 0 1.00288 1032 169.258)"/><path d="M1.73705-2.19604C1.54139-2.19604 1.39216-2.12566 1.28941-1.98488 1.18594-1.84411 1.13456-1.64142 1.13456-1.37677 1.13456-1.11213 1.18594-0.909423 1.28941-0.768667 1.39216-0.629308 1.54137-0.560342 1.73705-0.560342 1.92849-0.560342 2.07488-0.629317 2.17623-0.768667 2.27899-0.909432 2.33108-1.11213 2.33108-1.37677 2.33108-1.64142 2.27899-1.84413 2.17623-1.98488 2.07488-2.12564 1.92849-2.19604 1.73705-2.19604ZM1.73705-2.82667C2.21142-2.82667 2.58234-2.69787 2.8491-2.44097 3.11515-2.18548 3.24888-1.83076 3.24888-1.37679 3.24888-0.924234 3.11515-0.569495 2.8491-0.312613 2.58234-0.0571171 2.21142 0.0702703 1.73705 0.0702703 1.25986 0.0702703 0.887531-0.0571225 0.619369-0.312613 0.350504-0.569513 0.216775-0.924234 0.216775-1.37679 0.216775-1.83076 0.350503-2.1855 0.619369-2.44097 0.887531-2.69787 1.25986-2.82667 1.73705-2.82667Z" transform="matrix(1 0 0 1.00288 1034.48 169.258)"/><path d="M0.425117-2.75892 1.30631-2.75892 1.30631-0.0506306C1.30631 0.318883 1.21692 0.601117 1.03885 0.796775 0.862186 0.99173 0.605297 1.08957 0.267459 1.08957L-0.168919 1.08957-0.168919 0.509604-0.0140757 0.509604C0.152732 0.509604 0.267456 0.471596 0.329384 0.396991 0.392728 0.321681 0.425104 0.172468 0.425104-0.0506486ZM0.425117-3.83438 1.30631-3.83438 1.30631-3.11366 0.425117-3.11366Z" transform="matrix(1 0 0 1.00288 1037.95 169.258)"/><path d="M3.17856-1.38795 3.17856-1.13458 1.11495-1.13458C1.13748-0.927658 1.21208-0.772811 1.34018-0.670054 1.46757-0.566591 1.64705-0.515211 1.87791-0.515211 2.06371-0.515211 2.25305-0.541957 2.44659-0.596854 2.64155-0.65316 2.84144-0.736213 3.04625-0.847413L3.04625-0.168926C2.83793-0.0900973 2.62959-0.0309766 2.42124 0.00843964 2.21292 0.0492613 2.00458 0.0703766 1.79623 0.0703766 1.29652 0.0703766 0.908-0.0563117 0.630685-0.309695 0.354793-0.563065 0.216829-0.918506 0.216829-1.3767 0.216829-1.82715 0.352668-2.18047 0.625045-2.43807 0.896721-2.69708 1.27045-2.82658 1.74555-2.82658 2.1791-2.82658 2.52609-2.69495 2.78721-2.43243 3.04762-2.17132 3.17854-1.82292 3.17854-1.38795ZM2.27204-1.68074C2.27204-1.84755 2.22277-1.98198 2.12564-2.08333 2.0278-2.18609 1.90041-2.23818 1.74276-2.23818 1.57173-2.23818 1.43306-2.19032 1.32609-2.09459 1.21912-1.99886 1.15225-1.86092 1.1262-1.68074Z" transform="matrix(1 0 0 1.00288 1039.68 169.258)"/><path d="M2.65207-2.67171 2.65207-1.9538C2.53382-2.03614 2.41348-2.09739 2.29171-2.13679 2.17135-2.1762 2.04677-2.19591 1.91728-2.19591 1.67094-2.19591 1.47879-2.12342 1.34014-1.97914 1.2029-1.83625 1.13463-1.63568 1.13463-1.37665 1.13463-1.11905 1.2029-0.918454 1.34014-0.774166 1.4788-0.631288 1.67094-0.560202 1.91728-0.560202 2.05382-0.560202 2.18474-0.57991 2.30861-0.619322 2.43249-0.660144 2.5465-0.721378 2.65207-0.802313L2.65207-0.0815928C2.51483-0.0309171 2.37476 0.00638559 2.23259 0.0310198 2.09182 0.0570613 1.94895 0.0704342 1.80467 0.0704342 1.30706 0.0704342 0.917838-0.0569586 0.636306-0.312449 0.35618-0.567241 0.216829-0.921962 0.216829-1.37663 0.216829-1.8327 0.356187-2.18814 0.636306-2.44364 0.917838-2.69843 1.30706-2.82652 1.80467-2.82652 1.94895-2.82652 2.09184-2.81315 2.23259-2.7871 2.37335-2.76247 2.51272-2.72377 2.65207-2.67168Z" transform="matrix(1 0 0 1.00288 1043.1 169.258)"/><path d="M1.38795-3.54162 1.38795-2.75895 2.2973-2.75895 2.2973-2.12832 1.38795-2.12832 1.38795-0.957153C1.38795-0.829056 1.41328-0.743189 1.46396-0.698144 1.51464-0.653099 1.61458-0.630577 1.7652-0.630577L2.21847-0.630577 2.21847 5.40541e-05 1.46396 5.40541e-05C1.11486 5.40541e-05 0.867113-0.0717369 0.720717-0.216721 0.575728-0.363117 0.503942-0.609459 0.503942-0.957153L0.503942-2.12832 0.067564-2.12832 0.067564-2.75895 0.503942-2.75895 0.503942-3.54162Z" transform="matrix(1 0 0 1.00288 1046.09 169.258)"/></g></svg>